RobotoSerifTextWide-Medium.ufo
<glyph name="exclam" format="1">
  <advance width="338"/>
  <unicode hex="0021"/>
  <outline>
    <contour>
      <point x="249" y="729" type="line"/>
      <point x="249" y="551"/>
      <point x="214" y="450"/>
      <point x="214" y="226" type="curve"/>
      <point x="125" y="226" type="line"/>
      <point x="125" y="450"/>
      <point x="90" y="550"/>
      <point x="90" y="729" type="curve"/>
    </contour>
    <component base="period" xOffset="12"/>
  </outline>
</glyph>
<glyph name="numbersign" format="1">
  <advance width="740"/>
  <unicode hex="0023"/>
  <outline>
    <contour>
      <point x="109" y="0" type="line"/>
      <point x="191" y="0" type="line"/>
      <point x="377" y="750" type="line"/>
      <point x="295" y="750" type="line"/>
    </contour>
    <contour>
      <point x="32" y="230" type="line"/>
      <point x="646" y="230" type="line"/>
      <point x="646" y="319" type="line"/>
      <point x="32" y="319" type="line"/>
    </contour>
    <contour>
      <point x="86" y="451" type="line"/>
      <point x="700" y="451" type="line"/>
      <point x="700" y="540" type="line"/>
      <point x="86" y="540" type="line"/>
    </contour>
    <contour>
      <point x="345" y="0" type="line"/>
      <point x="427" y="0" type="line"/>
      <point x="613" y="750" type="line"/>
      <point x="530" y="750" type="line"/>
    </contour>
  </outline>
</glyph>
<glyph name="dollar" format="1">
  <advance width="660"/>
  <unicode hex="0024"/>
  <outline>
    <contour>
      <point x="293" y="790" type="line"/>
      <point x="293" y="667" type="line"/>
      <point x="298" y="651" type="line"/>
      <point x="298" y="56" type="line"/>
      <point x="293" y="42" type="line"/>
      <point x="293" y="-120" type="line"/>
      <point x="376" y="-120" type="line"/>
      <point x="376" y="43" type="line"/>
      <point x="371" y="59" type="line"/>
      <point x="371" y="654" type="line"/>
      <point x="376" y="667" type="line"/>
      <point x="376" y="790" type="line"/>
    </contour>
    <contour>
      <point x="335" y="78" type="curve" smooth="yes"/>
      <point x="236" y="78"/>
      <point x="153" y="111"/>
      <point x="112" y="159" type="curve"/>
      <point x="101" y="149"/>
      <point x="130" y="101"/>
      <point x="165" y="101" type="curve"/>
      <point x="165" y="218" type="line"/>
      <point x="44" y="218" type="line"/>
      <point x="44" y="90" type="line"/>
      <point x="97" y="51"/>
      <point x="204" y="12"/>
      <point x="340" y="12" type="curve" smooth="yes"/>
      <point x="503" y="12"/>
      <point x="619" y="80"/>
      <point x="619" y="217" type="curve" smooth="yes"/>
      <point x="619" y="341"/>
      <point x="497" y="390"/>
      <point x="364" y="421" type="curve" smooth="yes"/>
      <point x="268" y="442"/>
      <point x="176" y="458"/>
      <point x="176" y="535" type="curve" smooth="yes"/>
      <point x="176" y="599"/>
      <point x="235" y="633"/>
      <point x="350" y="633" type="curve" smooth="yes"/>
      <point x="431" y="633"/>
      <point x="491" y="608"/>
      <point x="527" y="572" type="curve"/>
      <point x="536" y="592"/>
      <point x="511" y="621"/>
      <point x="479" y="622" type="curve"/>
      <point x="479" y="521" type="line"/>
      <point x="593" y="521" type="line"/>
      <point x="593" y="635" type="line"/>
      <point x="553" y="665"/>
      <point x="462" y="698"/>
      <point x="346" y="698" type="curve" smooth="yes"/>
      <point x="180" y="698"/>
      <point x="70" y="632"/>
      <point x="70" y="513" type="curve" smooth="yes"/>
      <point x="70" y="385"/>
      <point x="187" y="346"/>
      <point x="307" y="317" type="curve" smooth="yes"/>
      <point x="416" y="292"/>
      <point x="506" y="274"/>
      <point x="506" y="187" type="curve" smooth="yes"/>
      <point x="506" y="106"/>
      <point x="442" y="78"/>
    </contour>
  </outline>
</glyph>
<glyph name="percent" format="1">
  <advance width="913"/>
  <unicode hex="0025"/>
  <outline>
    <contour>
      <point x="226" y="720" type="curve" smooth="yes"/>
      <point x="112" y="720"/>
      <point x="32" y="648"/>
      <point x="32" y="550" type="curve" smooth="yes"/>
      <point x="32" y="451"/>
      <point x="112" y="380"/>
      <point x="226" y="380" type="curve" smooth="yes"/>
      <point x="339" y="380"/>
      <point x="421" y="452"/>
      <point x="421" y="550" type="curve" smooth="yes"/>
      <point x="421" y="649"/>
      <point x="339" y="720"/>
    </contour>
    <contour>
      <point x="226" y="434" type="curve" smooth="yes"/>
      <point x="173" y="434"/>
      <point x="141" y="475"/>
      <point x="141" y="550" type="curve" smooth="yes"/>
      <point x="141" y="624"/>
      <point x="173" y="666"/>
      <point x="226" y="666" type="curve" smooth="yes"/>
      <point x="279" y="666"/>
      <point x="312" y="624"/>
      <point x="312" y="550" type="curve" smooth="yes"/>
      <point x="312" y="475"/>
      <point x="279" y="434"/>
    </contour>
    <contour>
      <point x="686" y="330" type="curve" smooth="yes"/>
      <point x="573" y="330"/>
      <point x="492" y="258"/>
      <point x="492" y="160" type="curve" smooth="yes"/>
      <point x="492" y="62"/>
      <point x="573" y="-10"/>
      <point x="686" y="-10" type="curve" smooth="yes"/>
      <point x="800" y="-10"/>
      <point x="880" y="63"/>
      <point x="880" y="160" type="curve" smooth="yes"/>
      <point x="880" y="259"/>
      <point x="800" y="330"/>
    </contour>
    <contour>
      <point x="686" y="44" type="curve" smooth="yes"/>
      <point x="633" y="44"/>
      <point x="601" y="86"/>
      <point x="601" y="160" type="curve" smooth="yes"/>
      <point x="601" y="235"/>
      <point x="633" y="276"/>
      <point x="686" y="276" type="curve" smooth="yes"/>
      <point x="739" y="276"/>
      <point x="771" y="235"/>
      <point x="771" y="160" type="curve" smooth="yes"/>
      <point x="771" y="86"/>
      <point x="739" y="44"/>
    </contour>
    <component base="fraction" xOffset="244"/>
  </outline>
</glyph>
<glyph name="ampersand" format="1">
  <advance width="884"/>
  <unicode hex="0026"/>
  <outline>
    <contour>
      <point x="753" y="305" type="curve" smooth="yes"/>
      <point x="761" y="338"/>
      <point x="789" y="343"/>
      <point x="836" y="343" type="curve" smooth="yes"/>
      <point x="842" y="343" type="line"/>
      <point x="842" y="397" type="line"/>
      <point x="596" y="397" type="line"/>
      <point x="596" y="343" type="line"/>
      <point x="600" y="343" type="line" smooth="yes"/>
      <point x="631" y="343"/>
      <point x="678" y="340"/>
      <point x="678" y="333" type="curve" smooth="yes"/>
      <point x="678" y="219"/>
      <point x="561" y="58"/>
      <point x="387" y="58" type="curve" smooth="yes"/>
      <point x="265" y="58"/>
      <point x="201" y="119"/>
      <point x="201" y="214" type="curve" smooth="yes"/>
      <point x="201" y="300"/>
      <point x="259" y="354"/>
      <point x="350" y="385" type="curve"/>
      <point x="322" y="426" type="line"/>
      <point x="169" y="393"/>
      <point x="58" y="319"/>
      <point x="58" y="204" type="curve" smooth="yes"/>
      <point x="58" y="73"/>
      <point x="177" y="-10"/>
      <point x="361" y="-10" type="curve" smooth="yes"/>
      <point x="619" y="-10"/>
      <point x="729" y="212"/>
    </contour>
    <contour>
      <point x="845" y="0" type="line"/>
      <point x="845" y="64" type="line"/>
      <point x="819" y="64" type="line" smooth="yes"/>
      <point x="774" y="64"/>
      <point x="754" y="76"/>
      <point x="721" y="102" type="curve" smooth="yes"/>
      <point x="467" y="295"/>
      <point x="361" y="429"/>
      <point x="361" y="547" type="curve" smooth="yes"/>
      <point x="361" y="622"/>
      <point x="402" y="653"/>
      <point x="460" y="653" type="curve" smooth="yes"/>
      <point x="513" y="653"/>
      <point x="541" y="622"/>
      <point x="541" y="576" type="curve" smooth="yes"/>
      <point x="541" y="508"/>
      <point x="479" y="474"/>
      <point x="360" y="434" type="curve"/>
      <point x="388" y="383" type="line"/>
      <point x="531" y="423"/>
      <point x="649" y="482"/>
      <point x="649" y="580" type="curve" smooth="yes"/>
      <point x="649" y="662"/>
      <point x="581" y="719"/>
      <point x="455" y="719" type="curve" smooth="yes"/>
      <point x="321" y="719"/>
      <point x="227" y="653"/>
      <point x="227" y="546" type="curve" smooth="yes"/>
      <point x="227" y="388"/>
      <point x="418" y="183"/>
      <point x="665" y="0" type="curve"/>
    </contour>
  </outline>
</glyph>
<glyph name="quotesingle" format="1">
  <advance width="282"/>
  <unicode hex="0027"/>
  <outline>
    <contour>
      <point x="206" y="710" type="line"/>
      <point x="206" y="631"/>
      <point x="180" y="597"/>
      <point x="180" y="467" type="curve"/>
      <point x="103" y="467" type="line"/>
      <point x="103" y="597"/>
      <point x="76" y="630"/>
      <point x="76" y="710" type="curve"/>
    </contour>
  </outline>
</glyph>
<glyph name="parenleft" format="1">
  <advance width="396"/>
  <unicode hex="0028"/>
  <outline>
    <contour>
      <point x="181" y="310" type="curve" smooth="yes"/>
      <point x="181" y="112"/>
      <point x="289" y="-49"/>
      <point x="387" y="-127" type="curve"/>
      <point x="387" y="-130" type="line"/>
      <point x="290" y="-130" type="line"/>
      <point x="162" y="-50"/>
      <point x="49" y="118"/>
      <point x="49" y="310" type="curve" smooth="yes"/>
      <point x="49" y="503"/>
      <point x="162" y="670"/>
      <point x="290" y="750" type="curve"/>
      <point x="387" y="750" type="line"/>
      <point x="387" y="747" type="line"/>
      <point x="289" y="669"/>
      <point x="181" y="509"/>
    </contour>
  </outline>
</glyph>
<glyph name="asterisk" format="1">
  <advance width="500"/>
  <unicode hex="002A"/>
  <outline>
    <contour>
      <point x="87" y="392" type="line"/>
      <point x="144" y="421"/>
      <point x="166" y="453"/>
      <point x="264" y="504" type="curve"/>
      <point x="236" y="543" type="line"/>
      <point x="137" y="493"/>
      <point x="95" y="495"/>
      <point x="39" y="464" type="curve"/>
    </contour>
    <contour>
      <point x="236" y="504" type="curve"/>
      <point x="264" y="543" type="line"/>
      <point x="166" y="594"/>
      <point x="144" y="627"/>
      <point x="87" y="655" type="curve"/>
      <point x="39" y="582" type="line"/>
      <point x="96" y="552"/>
      <point x="137" y="554"/>
    </contour>
    <contour>
      <point x="203" y="337" type="curve"/>
      <point x="297" y="337" type="line"/>
      <point x="297" y="394"/>
      <point x="278" y="427"/>
      <point x="278" y="524" type="curve"/>
      <point x="223" y="524" type="line"/>
      <point x="223" y="427"/>
      <point x="203" y="394"/>
    </contour>
    <contour>
      <point x="223" y="524" type="curve"/>
      <point x="278" y="524" type="line"/>
      <point x="278" y="621"/>
      <point x="297" y="654"/>
      <point x="297" y="710" type="curve"/>
      <point x="203" y="710" type="line"/>
      <point x="203" y="654"/>
      <point x="223" y="621"/>
    </contour>
    <contour>
      <point x="414" y="392" type="curve"/>
      <point x="461" y="464" type="line"/>
      <point x="405" y="495"/>
      <point x="364" y="493"/>
      <point x="265" y="543" type="curve"/>
      <point x="238" y="504" type="line"/>
      <point x="337" y="453"/>
      <point x="356" y="421"/>
    </contour>
    <contour>
      <point x="265" y="504" type="line"/>
      <point x="364" y="554"/>
      <point x="405" y="552"/>
      <point x="461" y="582" type="curve"/>
      <point x="414" y="655" type="line"/>
      <point x="356" y="627"/>
      <point x="337" y="594"/>
      <point x="238" y="543" type="curve"/>
    </contour>
  </outline>
</glyph>
<glyph name="plus" format="1">
  <advance width="660"/>
  <unicode hex="002B"/>
  <outline>
    <contour>
      <point x="277" y="558" type="line"/>
      <point x="277" y="125" type="line"/>
      <point x="381" y="125" type="line"/>
      <point x="381" y="558" type="line"/>
    </contour>
    <contour>
      <point x="576" y="383" type="line"/>
      <point x="84" y="383" type="line"/>
      <point x="84" y="299" type="line"/>
      <point x="576" y="299" type="line"/>
    </contour>
  </outline>
</glyph>
<glyph name="comma" format="1">
  <advance width="331"/>
  <unicode hex="002C"/>
  <outline>
    <contour>
      <point x="136" y="-172" type="line"/>
      <point x="224" y="-110"/>
      <point x="267" y="-33"/>
      <point x="267" y="46" type="curve" smooth="yes"/>
      <point x="267" y="111"/>
      <point x="227" y="144"/>
      <point x="169" y="144" type="curve" smooth="yes"/>
      <point x="115" y="144"/>
      <point x="78" y="112"/>
      <point x="78" y="67" type="curve" smooth="yes"/>
      <point x="78" y="22"/>
      <point x="115" y="-8"/>
      <point x="172" y="-8" type="curve" smooth="yes"/>
      <point x="195" y="-8"/>
      <point x="209" y="-6"/>
      <point x="220" y="8" type="curve"/>
      <point x="210" y="16"/>
      <point x="194" y="19"/>
      <point x="191" y="11" type="curve"/>
      <point x="187" y="-34"/>
      <point x="127" y="-87"/>
      <point x="46" y="-131" type="curve"/>
    </contour>
  </outline>
</glyph>
<glyph name="period" format="1">
  <advance width="315"/>
  <unicode hex="002E"/>
  <outline>
    <contour>
      <point x="248" y="68" type="curve" smooth="yes"/>
      <point x="248" y="113"/>
      <point x="211" y="145"/>
      <point x="158" y="145" type="curve" smooth="yes"/>
      <point x="104" y="145"/>
      <point x="67" y="113"/>
      <point x="67" y="68" type="curve" smooth="yes"/>
      <point x="67" y="23"/>
      <point x="104" y="-8"/>
      <point x="158" y="-8" type="curve" smooth="yes"/>
      <point x="211" y="-8"/>
      <point x="248" y="23"/>
    </contour>
  </outline>
</glyph>
<glyph name="slash" format="1">
  <advance width="520"/>
  <unicode hex="002F"/>
  <outline>
    <contour>
      <point x="429" y="744" type="line"/>
      <point x="-20" y="-134" type="line"/>
      <point x="90" y="-134" type="line"/>
      <point x="539" y="744" type="line"/>
    </contour>
  </outline>
</glyph>
<glyph name="zero" format="1">
  <advance width="664"/>
  <unicode hex="0030"/>
  <outline>
    <contour>
      <point x="332" y="-10" type="curve" smooth="yes"/>
      <point x="501" y="-10"/>
      <point x="626" y="114"/>
      <point x="626" y="304" type="curve" smooth="yes"/>
      <point x="626" y="494"/>
      <point x="501" y="619"/>
      <point x="332" y="619" type="curve" smooth="yes"/>
      <point x="163" y="619"/>
      <point x="39" y="494"/>
      <point x="39" y="304" type="curve" smooth="yes"/>
      <point x="39" y="114"/>
      <point x="163" y="-10"/>
    </contour>
    <contour>
      <point x="332" y="57" type="curve" smooth="yes"/>
      <point x="237" y="57"/>
      <point x="184" y="140"/>
      <point x="184" y="304" type="curve" smooth="yes"/>
      <point x="184" y="469"/>
      <point x="236" y="552"/>
      <point x="332" y="552" type="curve" smooth="yes"/>
      <point x="428" y="552"/>
      <point x="480" y="469"/>
      <point x="480" y="304" type="curve" smooth="yes"/>
      <point x="480" y="139"/>
      <point x="427" y="57"/>
    </contour>
  </outline>
</glyph>
<glyph name="one" format="1">
  <advance width="664"/>
  <unicode hex="0031"/>
  <outline>
    <contour>
      <point x="437" y="94" type="curve" smooth="yes"/>
      <point x="437" y="609" type="line"/>
      <point x="327" y="609" type="line"/>
      <point x="285" y="559"/>
      <point x="209" y="535"/>
      <point x="92" y="533" type="curve"/>
      <point x="92" y="451" type="line"/>
      <point x="197" y="449"/>
      <point x="285" y="483"/>
      <point x="312" y="542" type="curve"/>
      <point x="313" y="555"/>
      <point x="309" y="551"/>
      <point x="292" y="533" type="curve"/>
      <point x="292" y="94" type="line" smooth="yes"/>
      <point x="292" y="63"/>
      <point x="242" y="56"/>
      <point x="167" y="56" type="curve" smooth="yes"/>
      <point x="112" y="56" type="line"/>
      <point x="112" y="0" type="line"/>
      <point x="612" y="0" type="line"/>
      <point x="612" y="56" type="line"/>
      <point x="570" y="56" type="line" smooth="yes"/>
      <point x="489" y="56"/>
      <point x="437" y="63"/>
    </contour>
  </outline>
</glyph>
<glyph name="two" format="1">
  <advance width="664"/>
  <unicode hex="0032"/>
  <outline>
    <contour>
      <point x="385" y="93" type="line" smooth="yes"/>
      <point x="484" y="93"/>
      <point x="516" y="100"/>
      <point x="523" y="139" type="curve" smooth="yes"/>
      <point x="533" y="204" type="line"/>
      <point x="606" y="204" type="line"/>
      <point x="606" y="0" type="line"/>
      <point x="49" y="0" type="line"/>
      <point x="49" y="111" type="line"/>
      <point x="252" y="212"/>
      <point x="437" y="310"/>
      <point x="437" y="444" type="curve" smooth="yes"/>
      <point x="437" y="519"/>
      <point x="389" y="550"/>
      <point x="310" y="550" type="curve" smooth="yes"/>
      <point x="233" y="550"/>
      <point x="176" y="522"/>
      <point x="143" y="481" type="curve"/>
      <point x="146" y="510"/>
      <point x="156" y="539"/>
      <point x="189" y="542" type="curve"/>
      <point x="189" y="424" type="line"/>
      <point x="65" y="424" type="line"/>
      <point x="65" y="538" type="line"/>
      <point x="110" y="579"/>
      <point x="200" y="618"/>
      <point x="320" y="618" type="curve" smooth="yes"/>
      <point x="484" y="618"/>
      <point x="581" y="555"/>
      <point x="581" y="441" type="curve" smooth="yes"/>
      <point x="581" y="289"/>
      <point x="329" y="161"/>
      <point x="107" y="69" type="curve"/>
      <point x="99" y="69"/>
      <point x="97" y="87"/>
      <point x="100" y="93" type="curve"/>
    </contour>
  </outline>
</glyph>
<glyph name="three" format="1">
  <advance width="664"/>
  <unicode hex="0033"/>
  <outline>
    <contour>
      <point x="317" y="-20" type="curve" smooth="yes"/>
      <point x="415" y="-20"/>
      <point x="479" y="28"/>
      <point x="479" y="115" type="curve" smooth="yes"/>
      <point x="479" y="198"/>
      <point x="429" y="251"/>
      <point x="287" y="251" type="curve" smooth="yes"/>
      <point x="211" y="251" type="line"/>
      <point x="211" y="316" type="line"/>
      <point x="276" y="316" type="line" smooth="yes"/>
      <point x="387" y="316"/>
      <point x="453" y="359"/>
      <point x="453" y="446" type="curve" smooth="yes"/>
      <point x="453" y="521"/>
      <point x="396" y="550"/>
      <point x="321" y="550" type="curve" smooth="yes"/>
      <point x="243" y="550"/>
      <point x="190" y="524"/>
      <point x="160" y="484" type="curve"/>
      <point x="162" y="514"/>
      <point x="174" y="543"/>
      <point x="203" y="547" type="curve"/>
      <point x="203" y="430" type="line"/>
      <point x="80" y="430" type="line"/>
      <point x="80" y="541" type="line"/>
      <point x="124" y="580"/>
      <point x="208" y="618"/>
      <point x="330" y="618" type="curve" smooth="yes"/>
      <point x="479" y="618"/>
      <point x="591" y="559"/>
      <point x="591" y="456" type="curve" smooth="yes"/>
      <point x="591" y="347"/>
      <point x="458" y="280"/>
      <point x="290" y="280" type="curve"/>
      <point x="311" y="294" type="line"/>
      <point x="540" y="294"/>
      <point x="621" y="219"/>
      <point x="621" y="113" type="curve" smooth="yes"/>
      <point x="621" y="-11"/>
      <point x="496" y="-90"/>
      <point x="329" y="-90" type="curve" smooth="yes"/>
      <point x="171" y="-90"/>
      <point x="74" y="-24"/>
      <point x="27" y="71" type="curve"/>
      <point x="94" y="117" type="line"/>
      <point x="133" y="40"/>
      <point x="201" y="-20"/>
    </contour>
  </outline>
</glyph>
<glyph name="four" format="1">
  <advance width="664"/>
  <unicode hex="0034"/>
  <outline>
    <contour>
      <point x="32" y="102" type="line"/>
      <point x="652" y="102" type="line"/>
      <point x="652" y="190" type="line"/>
      <point x="83" y="190" type="line"/>
      <point x="80" y="140" type="line"/>
      <point x="405" y="555" type="line"/>
      <point x="432" y="609" type="line"/>
      <point x="356" y="609" type="line"/>
      <point x="32" y="195" type="line"/>
    </contour>
    <contour>
      <point x="526" y="-77" type="line"/>
      <point x="526" y="609" type="line"/>
      <point x="396" y="609" type="line"/>
      <point x="384" y="562" type="line"/>
      <point x="384" y="-77" type="line"/>
    </contour>
  </outline>
</glyph>
<glyph name="five" format="1">
  <advance width="664"/>
  <unicode hex="0035"/>
  <outline>
    <contour>
      <point x="319" y="-90" type="curve" smooth="yes"/>
      <point x="167" y="-90"/>
      <point x="81" y="-23"/>
      <point x="34" y="56" type="curve"/>
      <point x="99" y="104" type="line"/>
      <point x="134" y="47"/>
      <point x="194" y="-20"/>
      <point x="307" y="-20" type="curve" smooth="yes"/>
      <point x="413" y="-20"/>
      <point x="477" y="42"/>
      <point x="477" y="148" type="curve" smooth="yes"/>
      <point x="477" y="244"/>
      <point x="413" y="298"/>
      <point x="327" y="298" type="curve" smooth="yes"/>
      <point x="260" y="298"/>
      <point x="208" y="273"/>
      <point x="170" y="231" type="curve"/>
      <point x="98" y="231" type="line"/>
      <point x="98" y="609" type="line"/>
      <point x="566" y="609" type="line"/>
      <point x="542" y="512" type="line"/>
      <point x="154" y="512" type="line"/>
      <point x="180" y="589" type="line"/>
      <point x="180" y="276" type="line"/>
      <point x="176" y="265"/>
      <point x="156" y="258"/>
      <point x="152" y="277" type="curve"/>
      <point x="193" y="331"/>
      <point x="265" y="366"/>
      <point x="362" y="366" type="curve" smooth="yes"/>
      <point x="523" y="366"/>
      <point x="619" y="266"/>
      <point x="619" y="148" type="curve" smooth="yes"/>
      <point x="619" y="7"/>
      <point x="501" y="-90"/>
    </contour>
  </outline>
</glyph>
<glyph name="six" format="1">
  <advance width="664"/>
  <unicode hex="0036"/>
  <outline>
    <contour>
      <point x="542" y="672" type="line"/>
      <point x="329" y="639"/>
      <point x="183" y="496"/>
      <point x="183" y="292" type="curve" smooth="yes"/>
      <point x="183" y="119"/>
      <point x="248" y="58"/>
      <point x="342" y="58" type="curve" smooth="yes"/>
      <point x="428" y="58"/>
      <point x="479" y="121"/>
      <point x="479" y="229" type="curve" smooth="yes"/>
      <point x="479" y="324"/>
      <point x="440" y="386"/>
      <point x="353" y="386" type="curve" smooth="yes"/>
      <point x="266" y="386"/>
      <point x="203" y="330"/>
      <point x="160" y="254" type="curve"/>
      <point x="149" y="312" type="line"/>
      <point x="181" y="381"/>
      <point x="263" y="453"/>
      <point x="383" y="453" type="curve" smooth="yes"/>
      <point x="523" y="453"/>
      <point x="624" y="373"/>
      <point x="624" y="233" type="curve" smooth="yes"/>
      <point x="624" y="91"/>
      <point x="507" y="-10"/>
      <point x="344" y="-10" type="curve" smooth="yes"/>
      <point x="170" y="-10"/>
      <point x="41" y="90"/>
      <point x="41" y="295" type="curve" smooth="yes"/>
      <point x="41" y="513"/>
      <point x="234" y="701"/>
      <point x="530" y="740" type="curve"/>
    </contour>
  </outline>
</glyph>
<glyph name="seven" format="1">
  <advance width="664"/>
  <unicode hex="0037"/>
  <outline>
    <contour>
      <point x="282" y="512" type="line" smooth="yes"/>
      <point x="188" y="512"/>
      <point x="150" y="505"/>
      <point x="146" y="469" type="curve" smooth="yes"/>
      <point x="136" y="383" type="line"/>
      <point x="70" y="383" type="line"/>
      <point x="70" y="609" type="line"/>
      <point x="631" y="609" type="line"/>
      <point x="631" y="517" type="line"/>
      <point x="496" y="354"/>
      <point x="385" y="230"/>
      <point x="358" y="-77" type="curve"/>
      <point x="215" y="-77" type="line"/>
      <point x="249" y="221"/>
      <point x="468" y="442"/>
      <point x="565" y="532" type="curve"/>
      <point x="583" y="512" type="line"/>
    </contour>
  </outline>
</glyph>
<glyph name="eight" format="1">
  <advance width="664"/>
  <unicode hex="0038"/>
  <outline>
    <contour>
      <point x="332" y="60" type="curve" smooth="yes"/>
      <point x="244" y="60"/>
      <point x="186" y="112"/>
      <point x="186" y="200" type="curve" smooth="yes"/>
      <point x="186" y="294"/>
      <point x="244" y="343"/>
      <point x="332" y="343" type="curve" smooth="yes"/>
      <point x="420" y="343"/>
      <point x="478" y="294"/>
      <point x="478" y="200" type="curve" smooth="yes"/>
      <point x="478" y="112"/>
      <point x="420" y="60"/>
    </contour>
    <contour>
      <point x="332" y="-10" type="curve" smooth="yes"/>
      <point x="505" y="-10"/>
      <point x="625" y="75"/>
      <point x="625" y="195" type="curve" smooth="yes"/>
      <point x="625" y="317"/>
      <point x="499" y="390"/>
      <point x="332" y="390" type="curve" smooth="yes"/>
      <point x="165" y="390"/>
      <point x="39" y="317"/>
      <point x="39" y="195" type="curve" smooth="yes"/>
      <point x="39" y="75"/>
      <point x="160" y="-10"/>
    </contour>
    <contour>
      <point x="332" y="410" type="curve" smooth="yes"/>
      <point x="261" y="410"/>
      <point x="214" y="453"/>
      <point x="214" y="530" type="curve" smooth="yes"/>
      <point x="214" y="607"/>
      <point x="261" y="650"/>
      <point x="332" y="650" type="curve" smooth="yes"/>
      <point x="404" y="650"/>
      <point x="450" y="607"/>
      <point x="450" y="530" type="curve" smooth="yes"/>
      <point x="450" y="453"/>
      <point x="403" y="410"/>
    </contour>
    <contour>
      <point x="332" y="366" type="curve" smooth="yes"/>
      <point x="481" y="366"/>
      <point x="585" y="433"/>
      <point x="585" y="542" type="curve" smooth="yes"/>
      <point x="585" y="647"/>
      <point x="481" y="720"/>
      <point x="332" y="720" type="curve" smooth="yes"/>
      <point x="184" y="720"/>
      <point x="79" y="647"/>
      <point x="79" y="542" type="curve" smooth="yes"/>
      <point x="79" y="433"/>
      <point x="183" y="366"/>
    </contour>
  </outline>
</glyph>
<glyph name="nine" format="1">
  <advance width="664"/>
  <unicode hex="0039"/>
  <outline>
    <contour>
      <point x="103" y="-29" type="line"/>
      <point x="339" y="-12"/>
      <point x="481" y="100"/>
      <point x="481" y="319" type="curve" smooth="yes"/>
      <point x="481" y="494"/>
      <point x="418" y="552"/>
      <point x="325" y="552" type="curve" smooth="yes"/>
      <point x="236" y="552"/>
      <point x="185" y="496"/>
      <point x="185" y="394" type="curve" smooth="yes"/>
      <point x="185" y="304"/>
      <point x="226" y="244"/>
      <point x="316" y="244" type="curve" smooth="yes"/>
      <point x="403" y="244"/>
      <point x="463" y="295"/>
      <point x="504" y="378" type="curve"/>
      <point x="515" y="320" type="line"/>
      <point x="486" y="246"/>
      <point x="405" y="177"/>
      <point x="286" y="177" type="curve" smooth="yes"/>
      <point x="144" y="177"/>
      <point x="40" y="256"/>
      <point x="40" y="392" type="curve" smooth="yes"/>
      <point x="40" y="526"/>
      <point x="156" y="619"/>
      <point x="323" y="619" type="curve" smooth="yes"/>
      <point x="500" y="619"/>
      <point x="623" y="524"/>
      <point x="623" y="317" type="curve" smooth="yes"/>
      <point x="623" y="82"/>
      <point x="432" y="-76"/>
      <point x="114" y="-97" type="curve"/>
    </contour>
  </outline>
</glyph>
<glyph name="less" format="1">
  <advance width="660"/>
  <unicode hex="003C"/>
  <outline>
    <contour>
      <point x="551" y="557" type="line"/>
      <point x="110" y="387" type="line"/>
      <point x="110" y="340" type="line"/>
      <point x="134" y="313" type="line"/>
      <point x="551" y="470" type="line"/>
    </contour>
    <contour>
      <point x="551" y="230" type="line"/>
      <point x="135" y="387" type="line"/>
      <point x="110" y="358" type="line"/>
      <point x="110" y="304" type="line"/>
      <point x="551" y="133" type="line"/>
    </contour>
  </outline>
</glyph>
<glyph name="question" format="1">
  <advance width="653"/>
  <unicode hex="003F"/>
  <outline>
    <contour>
      <point x="251" y="371" type="line"/>
      <point x="373" y="409"/>
      <point x="455" y="454"/>
      <point x="455" y="554" type="curve" smooth="yes"/>
      <point x="455" y="624"/>
      <point x="403" y="666"/>
      <point x="316" y="666" type="curve" smooth="yes"/>
      <point x="239" y="666"/>
      <point x="178" y="640"/>
      <point x="149" y="602" type="curve"/>
      <point x="146" y="635"/>
      <point x="159" y="657"/>
      <point x="189" y="662" type="curve"/>
      <point x="189" y="537" type="line"/>
      <point x="62" y="537" type="line"/>
      <point x="62" y="657" type="line"/>
      <point x="101" y="693"/>
      <point x="196" y="736"/>
      <point x="326" y="736" type="curve" smooth="yes"/>
      <point x="498" y="736"/>
      <point x="597" y="661"/>
      <point x="597" y="551" type="curve" smooth="yes"/>
      <point x="597" y="426"/>
      <point x="467" y="363"/>
      <point x="348" y="330" type="curve"/>
      <point x="348" y="226" type="line"/>
      <point x="251" y="226" type="line"/>
    </contour>
    <component base="period" xOffset="141" yOffset="-1"/>
  </outline>
</glyph>
<glyph name="at" format="1">
  <advance width="1076"/>
  <unicode hex="0040"/>
  <outline>
    <contour>
      <point x="549" y="-89" type="curve" smooth="yes"/>
      <point x="303" y="-89"/>
      <point x="129" y="33"/>
      <point x="129" y="231" type="curve" smooth="yes"/>
      <point x="129" y="446"/>
      <point x="323" y="609"/>
      <point x="587" y="609" type="curve" smooth="yes"/>
      <point x="816" y="609"/>
      <point x="948" y="493"/>
      <point x="948" y="342" type="curve" smooth="yes"/>
      <point x="948" y="194"/>
      <point x="858" y="113"/>
      <point x="791" y="113" type="curve" smooth="yes"/>
      <point x="748" y="113"/>
      <point x="729" y="133"/>
      <point x="739" y="179" type="curve" smooth="yes"/>
      <point x="798" y="469" type="line"/>
      <point x="711" y="469" type="line"/>
      <point x="671" y="387" type="line"/>
      <point x="657" y="382" type="line"/>
      <point x="611" y="151" type="line"/>
      <point x="614" y="146"/>
      <point x="621" y="143"/>
      <point x="622" y="145" type="curve"/>
      <point x="631" y="96"/>
      <point x="680" y="55"/>
      <point x="769" y="55" type="curve" smooth="yes"/>
      <point x="897" y="55"/>
      <point x="1027" y="159"/>
      <point x="1027" y="342" type="curve" smooth="yes"/>
      <point x="1027" y="532"/>
      <point x="856" y="673"/>
      <point x="587" y="673" type="curve" smooth="yes"/>
      <point x="282" y="673"/>
      <point x="50" y="487"/>
      <point x="50" y="231" type="curve" smooth="yes"/>
      <point x="50" y="-8"/>
      <point x="262" y="-153"/>
      <point x="549" y="-153" type="curve" smooth="yes"/>
      <point x="678" y="-153"/>
      <point x="799" y="-126"/>
      <point x="870" y="-97" type="curve"/>
      <point x="847" y="-37" type="line"/>
      <point x="775" y="-64"/>
      <point x="673" y="-89"/>
    </contour>
    <contour>
      <point x="481" y="49" type="curve" smooth="yes"/>
      <point x="574" y="49"/>
      <point x="619" y="110"/>
      <point x="694" y="212" type="curve"/>
      <point x="668" y="246" type="line"/>
      <point x="607" y="160"/>
      <point x="560" y="106"/>
      <point x="499" y="106" type="curve" smooth="yes"/>
      <point x="447" y="106"/>
      <point x="421" y="145"/>
      <point x="421" y="213" type="curve" smooth="yes"/>
      <point x="421" y="311"/>
      <point x="477" y="416"/>
      <point x="563" y="416" type="curve" smooth="yes"/>
      <point x="616" y="416"/>
      <point x="654" y="384"/>
      <point x="674" y="300" type="curve"/>
      <point x="711" y="329" type="line"/>
      <point x="683" y="438"/>
      <point x="634" y="475"/>
      <point x="549" y="475" type="curve" smooth="yes"/>
      <point x="390" y="475"/>
      <point x="296" y="343"/>
      <point x="296" y="225" type="curve" smooth="yes"/>
      <point x="296" y="111"/>
      <point x="374" y="49"/>
    </contour>
  </outline>
</glyph>
<glyph name="A" format="1">
  <advance width="829"/>
  <unicode hex="0041"/>
  <outline>
    <contour>
      <point x="207" y="303" type="line"/>
      <point x="202" y="238" type="line"/>
      <point x="551" y="238" type="line"/>
      <point x="551" y="303" type="line"/>
    </contour>
    <contour>
      <point x="359" y="657" type="line"/>
      <point x="598" y="66" type="line"/>
      <point x="598" y="60"/>
      <point x="557" y="56"/>
      <point x="523" y="56" type="curve" smooth="yes"/>
      <point x="503" y="56" type="line"/>
      <point x="503" y="0" type="line"/>
      <point x="818" y="0" type="line"/>
      <point x="818" y="56" type="line"/>
      <point x="813" y="56" type="line"/>
      <point x="780" y="56"/>
      <point x="759" y="60"/>
      <point x="749" y="84" type="curve" smooth="yes"/>
      <point x="493" y="710" type="line"/>
      <point x="334" y="710" type="line"/>
      <point x="86" y="99" type="line" smooth="yes"/>
      <point x="71" y="65"/>
      <point x="53" y="56"/>
      <point x="17" y="56" type="curve"/>
      <point x="11" y="56" type="line"/>
      <point x="11" y="0" type="line"/>
      <point x="253" y="0" type="line"/>
      <point x="253" y="56" type="line"/>
      <point x="236" y="56" type="line" smooth="yes"/>
      <point x="201" y="56"/>
      <point x="163" y="63"/>
      <point x="163" y="75" type="curve"/>
      <point x="382" y="638" type="line"/>
    </contour>
    <contour>
      <point x="407" y="721" type="move" name="top"/>
    </contour>
    <contour>
      <point x="648" y="0" type="move" name="right"/>
    </contour>
    <contour>
      <point x="407" y="0" type="move" name="bottom"/>
    </contour>
  </outline>
</glyph>
<glyph name="B" format="1">
  <advance width="798"/>
  <unicode hex="0042"/>
  <outline>
    <contour>
      <point x="439" y="710" type="curve" smooth="yes"/>
      <point x="53" y="710" type="line"/>
      <point x="53" y="654" type="line"/>
      <point x="65" y="654" type="line" smooth="yes"/>
      <point x="109" y="654"/>
      <point x="141" y="647"/>
      <point x="141" y="618" type="curve" smooth="yes"/>
      <point x="141" y="92" type="line" smooth="yes"/>
      <point x="141" y="63"/>
      <point x="109" y="56"/>
      <point x="65" y="56" type="curve" smooth="yes"/>
      <point x="53" y="56" type="line"/>
      <point x="53" y="0" type="line"/>
      <point x="451" y="0" type="line" smooth="yes"/>
      <point x="642" y="0"/>
      <point x="750" y="76"/>
      <point x="750" y="199" type="curve" smooth="yes"/>
      <point x="750" y="317"/>
      <point x="642" y="385"/>
      <point x="460" y="386" type="curve"/>
      <point x="518" y="355" type="line"/>
      <point x="518" y="395" type="line"/>
      <point x="450" y="364" type="line"/>
      <point x="616" y="366"/>
      <point x="715" y="432"/>
      <point x="715" y="535" type="curve" smooth="yes"/>
      <point x="715" y="644"/>
      <point x="621" y="710"/>
    </contour>
    <contour>
      <point x="292" y="65" type="line"/>
      <point x="292" y="645" type="line"/>
      <point x="416" y="645" type="line" smooth="yes"/>
      <point x="516" y="645"/>
      <point x="563" y="604"/>
      <point x="563" y="530" type="curve" smooth="yes"/>
      <point x="563" y="456"/>
      <point x="521" y="404"/>
      <point x="412" y="404" type="curve" smooth="yes"/>
      <point x="264" y="404" type="line"/>
      <point x="264" y="340" type="line"/>
      <point x="425" y="340" type="line" smooth="yes"/>
      <point x="546" y="340"/>
      <point x="595" y="286"/>
      <point x="595" y="203" type="curve" smooth="yes"/>
      <point x="595" y="113"/>
      <point x="540" y="65"/>
      <point x="425" y="65" type="curve" smooth="yes"/>
    </contour>
  </outline>
</glyph>
<glyph name="C" format="1">
  <advance width="823"/>
  <unicode hex="0043"/>
  <outline>
    <contour>
      <point x="451" y="649" type="curve" smooth="yes"/>
      <point x="575" y="649"/>
      <point x="652" y="587"/>
      <point x="690" y="497" type="curve"/>
      <point x="773" y="497" type="line"/>
      <point x="773" y="710" type="line"/>
      <point x="700" y="710" type="line"/>
      <point x="678" y="553" type="line"/>
      <point x="727" y="548" type="line"/>
      <point x="687" y="656"/>
      <point x="599" y="720"/>
      <point x="435" y="720" type="curve" smooth="yes"/>
      <point x="220" y="720"/>
      <point x="44" y="570"/>
      <point x="44" y="355" type="curve" smooth="yes"/>
      <point x="44" y="137"/>
      <point x="208" y="-10"/>
      <point x="450" y="-10" type="curve" smooth="yes"/>
      <point x="634" y="-10"/>
      <point x="747" y="88"/>
      <point x="790" y="232" type="curve"/>
      <point x="717" y="260" type="line"/>
      <point x="685" y="145"/>
      <point x="601" y="62"/>
      <point x="469" y="62" type="curve" smooth="yes"/>
      <point x="302" y="62"/>
      <point x="203" y="173"/>
      <point x="203" y="355" type="curve" smooth="yes"/>
      <point x="203" y="535"/>
      <point x="309" y="649"/>
    </contour>
  </outline>
</glyph>
<glyph name="D" format="1">
  <advance width="899"/>
  <unicode hex="0044"/>
  <outline>
    <contour>
      <point x="52" y="654" type="line"/>
      <point x="65" y="654" type="line" smooth="yes"/>
      <point x="109" y="654"/>
      <point x="140" y="647"/>
      <point x="140" y="618" type="curve" smooth="yes"/>
      <point x="140" y="92" type="line" smooth="yes"/>
      <point x="140" y="63"/>
      <point x="109" y="56"/>
      <point x="65" y="56" type="curve" smooth="yes"/>
      <point x="52" y="56" type="line"/>
      <point x="52" y="0" type="line"/>
      <point x="429" y="0" type="line" smooth="yes"/>
      <point x="684" y="0"/>
      <point x="856" y="138"/>
      <point x="856" y="357" type="curve" smooth="yes"/>
      <point x="856" y="578"/>
      <point x="686" y="710"/>
      <point x="429" y="710" type="curve" smooth="yes"/>
      <point x="52" y="710" type="line"/>
    </contour>
    <contour>
      <point x="417" y="643" type="line" smooth="yes"/>
      <point x="592" y="643"/>
      <point x="697" y="542"/>
      <point x="697" y="357" type="curve" smooth="yes"/>
      <point x="697" y="172"/>
      <point x="591" y="68"/>
      <point x="417" y="68" type="curve" smooth="yes"/>
      <point x="292" y="68" type="line"/>
      <point x="292" y="643" type="line"/>
    </contour>
    <contour>
      <point x="447" y="741" type="move" name="top"/>
    </contour>
    <contour>
      <point x="448" y="0" type="move" name="bottom"/>
    </contour>
  </outline>
</glyph>
<glyph name="E" format="1">
  <advance width="753"/>
  <unicode hex="0045"/>
  <outline>
    <contour>
      <point x="699" y="210" type="line"/>
      <point x="621" y="210" type="line"/>
      <point x="612" y="122" type="line" smooth="yes"/>
      <point x="607" y="75"/>
      <point x="579" y="67"/>
      <point x="468" y="67" type="curve" smooth="yes"/>
      <point x="292" y="67" type="line"/>
      <point x="292" y="643" type="line"/>
      <point x="442" y="643" type="line" smooth="yes"/>
      <point x="542" y="643"/>
      <point x="576" y="636"/>
      <point x="581" y="589" type="curve" smooth="yes"/>
      <point x="588" y="525" type="line"/>
      <point x="665" y="525" type="line"/>
      <point x="665" y="710" type="line"/>
      <point x="52" y="710" type="line"/>
      <point x="52" y="654" type="line"/>
      <point x="65" y="654" type="line" smooth="yes"/>
      <point x="109" y="654"/>
      <point x="140" y="647"/>
      <point x="140" y="618" type="curve" smooth="yes"/>
      <point x="140" y="92" type="line" smooth="yes"/>
      <point x="140" y="63"/>
      <point x="109" y="56"/>
      <point x="65" y="56" type="curve" smooth="yes"/>
      <point x="52" y="56" type="line"/>
      <point x="52" y="0" type="line"/>
      <point x="699" y="0" type="line"/>
    </contour>
    <contour>
      <point x="258" y="394" type="curve"/>
      <point x="258" y="334" type="line"/>
      <point x="359" y="330"/>
      <point x="458" y="327"/>
      <point x="556" y="324" type="curve"/>
      <point x="556" y="403" type="line"/>
      <point x="456" y="399"/>
      <point x="357" y="396"/>
    </contour>
    <contour>
      <point x="436" y="741" type="move" name="top"/>
    </contour>
    <contour>
      <point x="511" y="0" type="move" name="right"/>
    </contour>
    <contour>
      <point x="436" y="0" type="move" name="bottom"/>
    </contour>
  </outline>
</glyph>
<glyph name="F" format="1">
  <advance width="707"/>
  <unicode hex="0046"/>
  <outline>
    <contour>
      <point x="292" y="643" type="line"/>
      <point x="442" y="643" type="line" smooth="yes"/>
      <point x="552" y="643"/>
      <point x="575" y="637"/>
      <point x="580" y="590" type="curve" smooth="yes"/>
      <point x="588" y="525" type="line"/>
      <point x="664" y="525" type="line"/>
      <point x="664" y="710" type="line"/>
      <point x="52" y="710" type="line"/>
      <point x="52" y="654" type="line"/>
      <point x="65" y="654" type="line" smooth="yes"/>
      <point x="109" y="654"/>
      <point x="140" y="647"/>
      <point x="140" y="618" type="curve" smooth="yes"/>
      <point x="140" y="92" type="line" smooth="yes"/>
      <point x="140" y="63"/>
      <point x="109" y="56"/>
      <point x="65" y="56" type="curve" smooth="yes"/>
      <point x="52" y="56" type="line"/>
      <point x="52" y="0" type="line"/>
      <point x="404" y="0" type="line"/>
      <point x="404" y="56" type="line"/>
      <point x="384" y="56" type="line" smooth="yes"/>
      <point x="342" y="56"/>
      <point x="292" y="57"/>
      <point x="292" y="92" type="curve" smooth="yes"/>
    </contour>
    <contour>
      <point x="259" y="387" type="curve"/>
      <point x="259" y="327" type="line"/>
      <point x="359" y="323"/>
      <point x="461" y="320"/>
      <point x="563" y="317" type="curve"/>
      <point x="563" y="396" type="line"/>
      <point x="461" y="392"/>
      <point x="359" y="389"/>
    </contour>
  </outline>
</glyph>
<glyph name="G" format="1">
  <advance width="894"/>
  <unicode hex="0047"/>
  <outline>
    <contour>
      <point x="799" y="264" type="line" smooth="yes"/>
      <point x="799" y="293"/>
      <point x="826" y="300"/>
      <point x="863" y="300" type="curve" smooth="yes"/>
      <point x="869" y="300" type="line"/>
      <point x="869" y="356" type="line"/>
      <point x="569" y="356" type="line"/>
      <point x="569" y="300" type="line"/>
      <point x="580" y="300" type="line" smooth="yes"/>
      <point x="625" y="300"/>
      <point x="657" y="293"/>
      <point x="657" y="264" type="curve" smooth="yes"/>
      <point x="657" y="116" type="line"/>
      <point x="636" y="98"/>
      <point x="579" y="62"/>
      <point x="477" y="62" type="curve" smooth="yes"/>
      <point x="307" y="62"/>
      <point x="203" y="166"/>
      <point x="203" y="355" type="curve" smooth="yes"/>
      <point x="203" y="535"/>
      <point x="301" y="649"/>
      <point x="461" y="649" type="curve" smooth="yes"/>
      <point x="593" y="649"/>
      <point x="670" y="585"/>
      <point x="710" y="498" type="curve"/>
      <point x="794" y="498" type="line"/>
      <point x="794" y="710" type="line"/>
      <point x="720" y="710" type="line"/>
      <point x="699" y="554" type="line"/>
      <point x="746" y="550" type="line"/>
      <point x="708" y="653"/>
      <point x="609" y="720"/>
      <point x="447" y="720" type="curve" smooth="yes"/>
      <point x="212" y="720"/>
      <point x="44" y="569"/>
      <point x="44" y="355" type="curve" smooth="yes"/>
      <point x="44" y="137"/>
      <point x="212" y="-10"/>
      <point x="471" y="-10" type="curve" smooth="yes"/>
      <point x="627" y="-10"/>
      <point x="749" y="49"/>
      <point x="799" y="100" type="curve"/>
    </contour>
    <contour>
      <point x="452" y="741" type="move" name="top"/>
    </contour>
    <contour>
      <point x="458" y="0" type="move" name="bottom"/>
    </contour>
  </outline>
</glyph>
<glyph name="H" format="1">
  <advance width="958"/>
  <unicode hex="0048"/>
  <outline>
    <contour>
      <point x="218" y="399" type="line"/>
      <point x="218" y="333" type="line"/>
      <point x="728" y="333" type="line"/>
      <point x="728" y="399" type="line"/>
    </contour>
    <contour>
      <point x="53" y="0" type="line"/>
      <point x="381" y="0" type="line"/>
      <point x="381" y="56" type="line"/>
      <point x="371" y="56" type="line" smooth="yes"/>
      <point x="335" y="56"/>
      <point x="292" y="59"/>
      <point x="292" y="66" type="curve" smooth="yes"/>
      <point x="292" y="644" type="line" smooth="yes"/>
      <point x="292" y="651"/>
      <point x="335" y="654"/>
      <point x="371" y="654" type="curve" smooth="yes"/>
      <point x="381" y="654" type="line"/>
      <point x="381" y="710" type="line"/>
      <point x="53" y="710" type="line"/>
      <point x="53" y="654" type="line"/>
      <point x="65" y="654" type="line" smooth="yes"/>
      <point x="109" y="654"/>
      <point x="141" y="647"/>
      <point x="141" y="618" type="curve" smooth="yes"/>
      <point x="141" y="92" type="line" smooth="yes"/>
      <point x="141" y="63"/>
      <point x="109" y="56"/>
      <point x="65" y="56" type="curve" smooth="yes"/>
      <point x="53" y="56" type="line"/>
    </contour>
    <contour>
      <point x="578" y="0" type="line"/>
      <point x="906" y="0" type="line"/>
      <point x="906" y="56" type="line"/>
      <point x="893" y="56" type="line" smooth="yes"/>
      <point x="850" y="56"/>
      <point x="818" y="63"/>
      <point x="818" y="92" type="curve" smooth="yes"/>
      <point x="818" y="618" type="line" smooth="yes"/>
      <point x="818" y="647"/>
      <point x="850" y="654"/>
      <point x="893" y="654" type="curve" smooth="yes"/>
      <point x="906" y="654" type="line"/>
      <point x="906" y="710" type="line"/>
      <point x="578" y="710" type="line"/>
      <point x="578" y="654" type="line"/>
      <point x="588" y="654" type="line" smooth="yes"/>
      <point x="622" y="654"/>
      <point x="667" y="651"/>
      <point x="667" y="644" type="curve" smooth="yes"/>
      <point x="667" y="66" type="line" smooth="yes"/>
      <point x="667" y="59"/>
      <point x="622" y="56"/>
      <point x="588" y="56" type="curve" smooth="yes"/>
      <point x="578" y="56" type="line"/>
    </contour>
    <contour>
      <point x="482" y="741" type="move" name="top"/>
    </contour>
    <contour>
      <point x="482" y="0" type="move" name="bottom"/>
    </contour>
  </outline>
</glyph>
<glyph name="I" format="1">
  <advance width="431"/>
  <unicode hex="0049"/>
  <outline>
    <contour>
      <point x="141" y="92" type="line" smooth="yes"/>
      <point x="141" y="63"/>
      <point x="109" y="56"/>
      <point x="65" y="56" type="curve" smooth="yes"/>
      <point x="53" y="56" type="line"/>
      <point x="53" y="0" type="line"/>
      <point x="380" y="0" type="line"/>
      <point x="380" y="56" type="line"/>
      <point x="367" y="56" type="line" smooth="yes"/>
      <point x="324" y="56"/>
      <point x="292" y="63"/>
      <point x="292" y="92" type="curve" smooth="yes"/>
      <point x="292" y="618" type="line" smooth="yes"/>
      <point x="292" y="647"/>
      <point x="324" y="654"/>
      <point x="367" y="654" type="curve" smooth="yes"/>
      <point x="380" y="654" type="line"/>
      <point x="380" y="710" type="line"/>
      <point x="53" y="710" type="line"/>
      <point x="53" y="654" type="line"/>
      <point x="65" y="654" type="line" smooth="yes"/>
      <point x="109" y="654"/>
      <point x="141" y="647"/>
      <point x="141" y="618" type="curve" smooth="yes"/>
    </contour>
    <contour>
      <point x="212" y="741" type="move" name="top"/>
    </contour>
    <contour>
      <point x="279" y="0" type="move" name="right"/>
    </contour>
    <contour>
      <point x="212" y="0" type="move" name="bottom"/>
    </contour>
  </outline>
</glyph>
<glyph name="J" format="1">
  <advance width="668"/>
  <unicode hex="004A"/>
  <outline>
    <contour>
      <point x="281" y="710" type="line"/>
      <point x="281" y="654" type="line"/>
      <point x="305" y="654" type="line" smooth="yes"/>
      <point x="349" y="654"/>
      <point x="383" y="647"/>
      <point x="383" y="618" type="curve" smooth="yes"/>
      <point x="383" y="223" type="line" smooth="yes"/>
      <point x="383" y="95"/>
      <point x="333" y="60"/>
      <point x="249" y="60" type="curve" smooth="yes"/>
      <point x="184" y="60"/>
      <point x="140" y="83"/>
      <point x="118" y="112" type="curve"/>
      <point x="95" y="112"/>
      <point x="107" y="72"/>
      <point x="155" y="66" type="curve"/>
      <point x="155" y="179" type="line"/>
      <point x="27" y="179" type="line"/>
      <point x="27" y="57" type="line"/>
      <point x="74" y="20"/>
      <point x="152" y="-10"/>
      <point x="261" y="-10" type="curve" smooth="yes"/>
      <point x="423" y="-10"/>
      <point x="532" y="49"/>
      <point x="532" y="226" type="curve" smooth="yes"/>
      <point x="532" y="618" type="line" smooth="yes"/>
      <point x="532" y="647"/>
      <point x="564" y="654"/>
      <point x="607" y="654" type="curve" smooth="yes"/>
      <point x="620" y="654" type="line"/>
      <point x="620" y="710" type="line"/>
    </contour>
    <contour>
      <point x="435" y="741" type="move" name="top"/>
    </contour>
  </outline>
</glyph>
<glyph name="K" format="1">
  <advance width="867"/>
  <unicode hex="004B"/>
  <outline>
    <contour>
      <point x="53" y="0" type="line"/>
      <point x="378" y="0" type="line"/>
      <point x="378" y="56" type="line"/>
      <point x="368" y="56" type="line" smooth="yes"/>
      <point x="333" y="56"/>
      <point x="292" y="59"/>
      <point x="292" y="66" type="curve" smooth="yes"/>
      <point x="292" y="644" type="line" smooth="yes"/>
      <point x="292" y="651"/>
      <point x="337" y="654"/>
      <point x="374" y="654" type="curve" smooth="yes"/>
      <point x="386" y="654" type="line"/>
      <point x="386" y="710" type="line"/>
      <point x="53" y="710" type="line"/>
      <point x="53" y="654" type="line"/>
      <point x="65" y="654" type="line" smooth="yes"/>
      <point x="109" y="654"/>
      <point x="141" y="647"/>
      <point x="141" y="618" type="curve" smooth="yes"/>
      <point x="141" y="92" type="line" smooth="yes"/>
      <point x="141" y="63"/>
      <point x="109" y="56"/>
      <point x="65" y="56" type="curve" smooth="yes"/>
      <point x="53" y="56" type="line"/>
    </contour>
    <contour>
      <point x="510" y="0" type="line"/>
      <point x="846" y="0" type="line"/>
      <point x="846" y="56" type="line"/>
      <point x="833" y="56" type="line" smooth="yes"/>
      <point x="792" y="56"/>
      <point x="777" y="64"/>
      <point x="752" y="91" type="curve" smooth="yes"/>
      <point x="447" y="423" type="line"/>
      <point x="419" y="356" type="line"/>
      <point x="707" y="623" type="line" smooth="yes"/>
      <point x="731" y="647"/>
      <point x="752" y="654"/>
      <point x="787" y="654" type="curve" smooth="yes"/>
      <point x="808" y="654" type="line"/>
      <point x="808" y="710" type="line"/>
      <point x="539" y="710" type="line"/>
      <point x="539" y="654" type="line"/>
      <point x="550" y="654" type="line" smooth="yes"/>
      <point x="585" y="654"/>
      <point x="627" y="651"/>
      <point x="628" y="644" type="curve"/>
      <point x="329" y="364" type="line"/>
      <point x="329" y="343" type="line"/>
      <point x="592" y="66" type="line"/>
      <point x="592" y="59"/>
      <point x="552" y="56"/>
      <point x="521" y="56" type="curve" smooth="yes"/>
      <point x="510" y="56" type="line"/>
    </contour>
    <contour>
      <point x="435" y="741" type="move" name="top"/>
    </contour>
    <contour>
      <point x="435" y="0" type="move" name="bottom"/>
    </contour>
  </outline>
</glyph>
<glyph name="L" format="1">
  <advance width="726"/>
  <unicode hex="004C"/>
  <outline>
    <contour>
      <point x="386" y="710" type="line"/>
      <point x="386" y="654" type="line"/>
      <point x="372" y="654" type="line" smooth="yes"/>
      <point x="325" y="654"/>
      <point x="292" y="647"/>
      <point x="292" y="618" type="curve" smooth="yes"/>
      <point x="292" y="67" type="line"/>
      <point x="450" y="67" type="line" smooth="yes"/>
      <point x="562" y="67"/>
      <point x="588" y="74"/>
      <point x="594" y="122" type="curve" smooth="yes"/>
      <point x="604" y="219" type="line"/>
      <point x="685" y="219" type="line"/>
      <point x="685" y="0" type="line"/>
      <point x="52" y="0" type="line"/>
      <point x="52" y="56" type="line"/>
      <point x="65" y="56" type="line" smooth="yes"/>
      <point x="109" y="56"/>
      <point x="140" y="63"/>
      <point x="140" y="92" type="curve" smooth="yes"/>
      <point x="140" y="618" type="line" smooth="yes"/>
      <point x="140" y="647"/>
      <point x="109" y="654"/>
      <point x="65" y="654" type="curve" smooth="yes"/>
      <point x="52" y="654" type="line"/>
      <point x="52" y="710" type="line"/>
    </contour>
    <contour>
      <point x="437" y="741" type="move" name="top"/>
    </contour>
    <contour>
      <point x="545" y="710" type="move" name="right"/>
    </contour>
    <contour>
      <point x="548" y="410" type="move" name="mid"/>
    </contour>
    <contour>
      <point x="439" y="0" type="move" name="bottom"/>
    </contour>
  </outline>
</glyph>
<glyph name="M" format="1">
  <advance width="1117"/>
  <unicode hex="004D"/>
  <outline>
    <contour>
      <point x="53" y="0" type="line"/>
      <point x="303" y="0" type="line"/>
      <point x="303" y="56" type="line"/>
      <point x="297" y="56" type="line" smooth="yes"/>
      <point x="266" y="56"/>
      <point x="223" y="59"/>
      <point x="223" y="66" type="curve" smooth="yes"/>
      <point x="223" y="679" type="line"/>
      <point x="209" y="687" type="line"/>
      <point x="480" y="-2" type="line"/>
      <point x="568" y="-2" type="line"/>
      <point x="839" y="686" type="line"/>
      <point x="826" y="688" type="line"/>
      <point x="826" y="66" type="line" smooth="yes"/>
      <point x="826" y="59"/>
      <point x="790" y="56"/>
      <point x="757" y="56" type="curve" smooth="yes"/>
      <point x="746" y="56" type="line"/>
      <point x="746" y="0" type="line"/>
      <point x="1066" y="0" type="line"/>
      <point x="1066" y="56" type="line"/>
      <point x="1053" y="56" type="line" smooth="yes"/>
      <point x="1009" y="56"/>
      <point x="978" y="63"/>
      <point x="978" y="92" type="curve" smooth="yes"/>
      <point x="978" y="618" type="line" smooth="yes"/>
      <point x="978" y="647"/>
      <point x="1009" y="654"/>
      <point x="1053" y="654" type="curve" smooth="yes"/>
      <point x="1066" y="654" type="line"/>
      <point x="1066" y="710" type="line"/>
      <point x="766" y="710" type="line"/>
      <point x="546" y="154" type="line"/>
      <point x="577" y="146" type="line"/>
      <point x="360" y="710" type="line"/>
      <point x="53" y="710" type="line"/>
      <point x="53" y="654" type="line"/>
      <point x="65" y="654" type="line" smooth="yes"/>
      <point x="109" y="654"/>
      <point x="141" y="647"/>
      <point x="141" y="618" type="curve" smooth="yes"/>
      <point x="141" y="92" type="line" smooth="yes"/>
      <point x="141" y="63"/>
      <point x="109" y="56"/>
      <point x="65" y="56" type="curve"/>
      <point x="53" y="56" type="line"/>
    </contour>
    <contour>
      <point x="537" y="0" type="move" name="bottom"/>
    </contour>
  </outline>
</glyph>
<glyph name="N" format="1">
  <advance width="908"/>
  <unicode hex="004E"/>
  <outline>
    <contour>
      <point x="53" y="0" type="line"/>
      <point x="323" y="0" type="line"/>
      <point x="323" y="56" type="line"/>
      <point x="307" y="56" type="line" smooth="yes"/>
      <point x="267" y="56"/>
      <point x="223" y="64"/>
      <point x="223" y="71" type="curve" smooth="yes"/>
      <point x="223" y="669" type="line"/>
      <point x="201" y="670" type="line"/>
      <point x="623" y="0" type="line"/>
      <point x="774" y="0" type="line"/>
      <point x="774" y="614" type="line" smooth="yes"/>
      <point x="774" y="644"/>
      <point x="806" y="654"/>
      <point x="850" y="654" type="curve" smooth="yes"/>
      <point x="863" y="654" type="line"/>
      <point x="863" y="710" type="line"/>
      <point x="593" y="710" type="line"/>
      <point x="593" y="654" type="line"/>
      <point x="608" y="654" type="line" smooth="yes"/>
      <point x="648" y="654"/>
      <point x="692" y="646"/>
      <point x="692" y="639" type="curve" smooth="yes"/>
      <point x="692" y="122" type="line"/>
      <point x="714" y="117" type="line"/>
      <point x="345" y="710" type="line"/>
      <point x="53" y="710" type="line"/>
      <point x="53" y="654" type="line"/>
      <point x="65" y="654" type="line" smooth="yes"/>
      <point x="109" y="654"/>
      <point x="141" y="647"/>
      <point x="141" y="618" type="curve" smooth="yes"/>
      <point x="141" y="97" type="line" smooth="yes"/>
      <point x="141" y="68"/>
      <point x="109" y="56"/>
      <point x="65" y="56" type="curve" smooth="yes"/>
      <point x="53" y="56" type="line"/>
    </contour>
    <contour>
      <point x="472" y="741" type="move" name="top"/>
    </contour>
    <contour>
      <point x="470" y="0" type="move" name="bottom"/>
    </contour>
  </outline>
</glyph>
<glyph name="O" format="1">
  <advance width="927"/>
  <unicode hex="004F"/>
  <outline>
    <contour>
      <point x="464" y="720" type="curve" smooth="yes"/>
      <point x="225" y="720"/>
      <point x="44" y="573"/>
      <point x="44" y="355" type="curve" smooth="yes"/>
      <point x="44" y="138"/>
      <point x="225" y="-10"/>
      <point x="464" y="-10" type="curve" smooth="yes"/>
      <point x="703" y="-10"/>
      <point x="883" y="138"/>
      <point x="883" y="355" type="curve" smooth="yes"/>
      <point x="883" y="573"/>
      <point x="703" y="720"/>
    </contour>
    <contour>
      <point x="464" y="60" type="curve" smooth="yes"/>
      <point x="313" y="60"/>
      <point x="203" y="169"/>
      <point x="203" y="355" type="curve" smooth="yes"/>
      <point x="203" y="541"/>
      <point x="312" y="650"/>
      <point x="464" y="650" type="curve" smooth="yes"/>
      <point x="615" y="650"/>
      <point x="724" y="541"/>
      <point x="724" y="355" type="curve" smooth="yes"/>
      <point x="724" y="169"/>
      <point x="615" y="60"/>
    </contour>
    <contour>
      <point x="464" y="741" type="move" name="top"/>
    </contour>
    <contour>
      <point x="464" y="0" type="move" name="bottom"/>
    </contour>
  </outline>
</glyph>
<glyph name="P" format="1">
  <advance width="763"/>
  <unicode hex="0050"/>
  <outline>
    <contour>
      <point x="292" y="66" type="line" smooth="yes"/>
      <point x="292" y="59"/>
      <point x="330" y="56"/>
      <point x="360" y="56" type="curve" smooth="yes"/>
      <point x="391" y="56" type="line"/>
      <point x="391" y="0" type="line"/>
      <point x="52" y="0" type="line"/>
      <point x="52" y="56" type="line"/>
      <point x="65" y="56" type="line" smooth="yes"/>
      <point x="109" y="56"/>
      <point x="140" y="63"/>
      <point x="140" y="92" type="curve" smooth="yes"/>
      <point x="140" y="618" type="line" smooth="yes"/>
      <point x="140" y="647"/>
      <point x="109" y="654"/>
      <point x="65" y="654" type="curve" smooth="yes"/>
      <point x="52" y="654" type="line"/>
      <point x="52" y="710" type="line"/>
      <point x="430" y="710" type="line" smooth="yes"/>
      <point x="626" y="710"/>
      <point x="734" y="629"/>
      <point x="734" y="500" type="curve" smooth="yes"/>
      <point x="734" y="369"/>
      <point x="617" y="279"/>
      <point x="424" y="279" type="curve" smooth="yes"/>
      <point x="269" y="279" type="line"/>
      <point x="269" y="345" type="line"/>
      <point x="403" y="345" type="line" smooth="yes"/>
      <point x="520" y="345"/>
      <point x="579" y="403"/>
      <point x="579" y="497" type="curve" smooth="yes"/>
      <point x="579" y="591"/>
      <point x="521" y="643"/>
      <point x="408" y="643" type="curve" smooth="yes"/>
      <point x="292" y="643" type="line"/>
    </contour>
  </outline>
</glyph>
<glyph name="Q" format="1">
  <advance width="927"/>
  <unicode hex="0051"/>
  <outline>
    <contour>
      <point x="418" y="3" type="line"/>
      <point x="412" y="-148"/>
      <point x="513" y="-197"/>
      <point x="675" y="-197" type="curve" smooth="yes"/>
      <point x="733" y="-197"/>
      <point x="787" y="-189"/>
      <point x="835" y="-176" type="curve"/>
      <point x="835" y="-63" type="line"/>
      <point x="785" y="-80"/>
      <point x="728" y="-94"/>
      <point x="663" y="-94" type="curve" smooth="yes"/>
      <point x="563" y="-94"/>
      <point x="501" y="-73"/>
      <point x="507" y="10" type="curve"/>
    </contour>
    <contour>
      <point x="464" y="720" type="curve" smooth="yes"/>
      <point x="225" y="720"/>
      <point x="44" y="573"/>
      <point x="44" y="355" type="curve" smooth="yes"/>
      <point x="44" y="138"/>
      <point x="225" y="-10"/>
      <point x="464" y="-10" type="curve" smooth="yes"/>
      <point x="703" y="-10"/>
      <point x="883" y="138"/>
      <point x="883" y="355" type="curve" smooth="yes"/>
      <point x="883" y="573"/>
      <point x="703" y="720"/>
    </contour>
    <contour>
      <point x="464" y="60" type="curve" smooth="yes"/>
      <point x="313" y="60"/>
      <point x="203" y="169"/>
      <point x="203" y="355" type="curve" smooth="yes"/>
      <point x="203" y="541"/>
      <point x="312" y="650"/>
      <point x="464" y="650" type="curve" smooth="yes"/>
      <point x="615" y="650"/>
      <point x="724" y="541"/>
      <point x="724" y="355" type="curve" smooth="yes"/>
      <point x="724" y="169"/>
      <point x="615" y="60"/>
    </contour>
  </outline>
</glyph>
<glyph name="R" format="1">
  <advance width="823"/>
  <unicode hex="0052"/>
  <outline>
    <contour>
      <point x="413" y="321" type="line"/>
      <point x="558" y="338" type="line"/>
      <point x="719" y="84" type="line" smooth="yes"/>
      <point x="733" y="62"/>
      <point x="757" y="56"/>
      <point x="788" y="56" type="curve" smooth="yes"/>
      <point x="799" y="56" type="line"/>
      <point x="799" y="0" type="line"/>
      <point x="600" y="0" type="line"/>
    </contour>
    <contour>
      <point x="52" y="0" type="line"/>
      <point x="52" y="56" type="line"/>
      <point x="65" y="56" type="line" smooth="yes"/>
      <point x="109" y="56"/>
      <point x="140" y="63"/>
      <point x="140" y="92" type="curve" smooth="yes"/>
      <point x="140" y="618" type="line" smooth="yes"/>
      <point x="140" y="647"/>
      <point x="109" y="654"/>
      <point x="65" y="654" type="curve" smooth="yes"/>
      <point x="52" y="654" type="line"/>
      <point x="52" y="710" type="line"/>
      <point x="424" y="710" type="line" smooth="yes"/>
      <point x="616" y="710"/>
      <point x="723" y="632"/>
      <point x="723" y="506" type="curve" smooth="yes"/>
      <point x="723" y="402"/>
      <point x="634" y="323"/>
      <point x="482" y="304" type="curve" smooth="yes"/>
      <point x="458" y="300"/>
      <point x="433" y="296"/>
      <point x="404" y="296" type="curve" smooth="yes"/>
      <point x="269" y="296" type="line"/>
      <point x="269" y="361" type="line"/>
      <point x="390" y="361" type="line" smooth="yes"/>
      <point x="506" y="361"/>
      <point x="565" y="416"/>
      <point x="565" y="506" type="curve" smooth="yes"/>
      <point x="565" y="592"/>
      <point x="508" y="643"/>
      <point x="401" y="643" type="curve" smooth="yes"/>
      <point x="292" y="643" type="line"/>
      <point x="292" y="66" type="line" smooth="yes"/>
      <point x="292" y="59"/>
      <point x="328" y="56"/>
      <point x="358" y="56" type="curve" smooth="yes"/>
      <point x="372" y="56" type="line"/>
      <point x="372" y="0" type="line"/>
    </contour>
    <contour>
      <point x="448" y="741" type="move" name="top"/>
    </contour>
    <contour>
      <point x="448" y="0" type="move" name="bottom"/>
    </contour>
  </outline>
</glyph>
<glyph name="S" format="1">
  <advance width="717"/>
  <unicode hex="0053"/>
  <outline>
    <contour>
      <point x="394" y="60" type="curve" smooth="yes"/>
      <point x="274" y="60"/>
      <point x="171" y="125"/>
      <point x="131" y="223" type="curve"/>
      <point x="46" y="223" type="line"/>
      <point x="46" y="0" type="line"/>
      <point x="119" y="0" type="line"/>
      <point x="139" y="166" type="line"/>
      <point x="129" y="171"/>
      <point x="109" y="178"/>
      <point x="85" y="175" type="curve"/>
      <point x="139" y="41"/>
      <point x="264" y="-10"/>
      <point x="404" y="-10" type="curve" smooth="yes"/>
      <point x="566" y="-10"/>
      <point x="676" y="72"/>
      <point x="676" y="207" type="curve" smooth="yes"/>
      <point x="676" y="348"/>
      <point x="556" y="389"/>
      <point x="416" y="426" type="curve" smooth="yes"/>
      <point x="298" y="456"/>
      <point x="204" y="467"/>
      <point x="204" y="553" type="curve" smooth="yes"/>
      <point x="204" y="615"/>
      <point x="250" y="652"/>
      <point x="339" y="652" type="curve" smooth="yes"/>
      <point x="436" y="652"/>
      <point x="514" y="602"/>
      <point x="549" y="522" type="curve"/>
      <point x="630" y="522" type="line"/>
      <point x="630" y="710" type="line"/>
      <point x="560" y="710" type="line"/>
      <point x="539" y="569" type="line"/>
      <point x="556" y="563"/>
      <point x="578" y="561"/>
      <point x="588" y="566" type="curve"/>
      <point x="538" y="683"/>
      <point x="443" y="720"/>
      <point x="320" y="720" type="curve" smooth="yes"/>
      <point x="178" y="720"/>
      <point x="73" y="649"/>
      <point x="73" y="528" type="curve" smooth="yes"/>
      <point x="73" y="384"/>
      <point x="196" y="342"/>
      <point x="328" y="307" type="curve" smooth="yes"/>
      <point x="455" y="274"/>
      <point x="540" y="258"/>
      <point x="540" y="169" type="curve" smooth="yes"/>
      <point x="540" y="94"/>
      <point x="485" y="60"/>
    </contour>
    <contour>
      <point x="393" y="741" type="move" name="top"/>
    </contour>
    <contour>
      <point x="398" y="0" type="move" name="bottom"/>
    </contour>
  </outline>
</glyph>
<glyph name="T" format="1">
  <advance width="803"/>
  <unicode hex="0054"/>
  <outline>
    <contour>
      <point x="326" y="92" type="line" smooth="yes"/>
      <point x="326" y="63"/>
      <point x="290" y="56"/>
      <point x="239" y="56" type="curve" smooth="yes"/>
      <point x="220" y="56" type="line"/>
      <point x="220" y="0" type="line"/>
      <point x="584" y="0" type="line"/>
      <point x="584" y="56" type="line"/>
      <point x="565" y="56" type="line" smooth="yes"/>
      <point x="515" y="56"/>
      <point x="478" y="63"/>
      <point x="478" y="92" type="curve" smooth="yes"/>
      <point x="478" y="645" type="line"/>
      <point x="540" y="645" type="line" smooth="yes"/>
      <point x="647" y="645"/>
      <point x="675" y="637"/>
      <point x="680" y="595" type="curve" smooth="yes"/>
      <point x="689" y="505" type="line"/>
      <point x="767" y="505" type="line"/>
      <point x="767" y="710" type="line"/>
      <point x="37" y="710" type="line"/>
      <point x="37" y="505" type="line"/>
      <point x="114" y="505" type="line"/>
      <point x="124" y="595" type="line" smooth="yes"/>
      <point x="129" y="639"/>
      <point x="157" y="645"/>
      <point x="265" y="645" type="curve" smooth="yes"/>
      <point x="326" y="645" type="line"/>
    </contour>
    <contour>
      <point x="390" y="741" type="move" name="top"/>
    </contour>
    <contour>
      <point x="393" y="0" type="move" name="bottom"/>
    </contour>
  </outline>
</glyph>
<glyph name="U" format="1">
  <advance width="917"/>
  <unicode hex="0055"/>
  <outline>
    <contour>
      <point x="290" y="260" type="curve" smooth="yes"/>
      <point x="290" y="644" type="line" smooth="yes"/>
      <point x="290" y="651"/>
      <point x="333" y="654"/>
      <point x="367" y="654" type="curve" smooth="yes"/>
      <point x="378" y="654" type="line"/>
      <point x="378" y="710" type="line"/>
      <point x="50" y="710" type="line"/>
      <point x="50" y="654" type="line"/>
      <point x="63" y="654" type="line" smooth="yes"/>
      <point x="106" y="654"/>
      <point x="138" y="647"/>
      <point x="138" y="618" type="curve" smooth="yes"/>
      <point x="138" y="260" type="line" smooth="yes"/>
      <point x="138" y="69"/>
      <point x="274" y="-10"/>
      <point x="469" y="-10" type="curve" smooth="yes"/>
      <point x="645" y="-10"/>
      <point x="779" y="68"/>
      <point x="779" y="259" type="curve" smooth="yes"/>
      <point x="779" y="611" type="line" smooth="yes"/>
      <point x="779" y="644"/>
      <point x="811" y="654"/>
      <point x="855" y="654" type="curve" smooth="yes"/>
      <point x="867" y="654" type="line"/>
      <point x="867" y="710" type="line"/>
      <point x="609" y="710" type="line"/>
      <point x="609" y="654" type="line"/>
      <point x="620" y="654" type="line" smooth="yes"/>
      <point x="653" y="654"/>
      <point x="697" y="647"/>
      <point x="697" y="633" type="curve" smooth="yes"/>
      <point x="697" y="260" type="line" smooth="yes"/>
      <point x="697" y="116"/>
      <point x="613" y="68"/>
      <point x="497" y="68" type="curve" smooth="yes"/>
      <point x="372" y="68"/>
      <point x="290" y="116"/>
    </contour>
    <contour>
      <point x="473" y="741" type="move" name="top"/>
    </contour>
    <contour>
      <point x="538" y="0" type="move" name="right"/>
    </contour>
    <contour>
      <point x="473" y="0" type="move" name="bottom"/>
    </contour>
  </outline>
</glyph>
<glyph name="V" format="1">
  <advance width="820"/>
  <unicode hex="0056"/>
  <outline>
    <contour>
      <point x="468" y="47" type="line"/>
      <point x="234" y="644" type="line"/>
      <point x="234" y="651"/>
      <point x="272" y="654"/>
      <point x="307" y="654" type="curve" smooth="yes"/>
      <point x="327" y="654" type="line"/>
      <point x="327" y="710" type="line"/>
      <point x="11" y="710" type="line"/>
      <point x="11" y="654" type="line"/>
      <point x="18" y="654" type="line"/>
      <point x="50" y="654"/>
      <point x="71" y="651"/>
      <point x="81" y="626" type="curve" smooth="yes"/>
      <point x="333" y="0" type="line"/>
      <point x="491" y="0" type="line"/>
      <point x="735" y="611" type="line" smooth="yes"/>
      <point x="749" y="647"/>
      <point x="766" y="654"/>
      <point x="804" y="654" type="curve"/>
      <point x="810" y="654" type="line"/>
      <point x="810" y="710" type="line"/>
      <point x="569" y="710" type="line"/>
      <point x="569" y="654" type="line"/>
      <point x="586" y="654" type="line" smooth="yes"/>
      <point x="620" y="654"/>
      <point x="662" y="647"/>
      <point x="662" y="636" type="curve"/>
      <point x="437" y="65" type="line"/>
    </contour>
  </outline>
</glyph>
<glyph name="W" format="1">
  <advance width="1169"/>
  <unicode hex="0057"/>
  <outline>
    <contour>
      <point x="11" y="710" type="line"/>
      <point x="11" y="654" type="line"/>
      <point x="17" y="654" type="line" smooth="yes"/>
      <point x="53" y="654"/>
      <point x="76" y="651"/>
      <point x="85" y="620" type="curve" smooth="yes"/>
      <point x="266" y="0" type="line"/>
      <point x="423" y="0" type="line"/>
      <point x="599" y="620" type="line"/>
      <point x="572" y="620" type="line"/>
      <point x="762" y="0" type="line"/>
      <point x="918" y="0" type="line"/>
      <point x="1085" y="611" type="line" smooth="yes"/>
      <point x="1094" y="645"/>
      <point x="1118" y="654"/>
      <point x="1152" y="654" type="curve" smooth="yes"/>
      <point x="1158" y="654" type="line"/>
      <point x="1158" y="710" type="line"/>
      <point x="920" y="710" type="line"/>
      <point x="920" y="654" type="line"/>
      <point x="938" y="654" type="line" smooth="yes"/>
      <point x="971" y="654"/>
      <point x="1010" y="647"/>
      <point x="1010" y="636" type="curve"/>
      <point x="863" y="83" type="line"/>
      <point x="884" y="84" type="line"/>
      <point x="694" y="710" type="line"/>
      <point x="547" y="710" type="line"/>
      <point x="368" y="80" type="line"/>
      <point x="393" y="80" type="line"/>
      <point x="235" y="644" type="line"/>
      <point x="235" y="651"/>
      <point x="272" y="654"/>
      <point x="304" y="654" type="curve" smooth="yes"/>
      <point x="323" y="654" type="line"/>
      <point x="323" y="710" type="line"/>
    </contour>
    <contour>
      <point x="603" y="741" type="move" name="top"/>
    </contour>
  </outline>
</glyph>
<glyph name="X" format="1">
  <advance width="849"/>
  <unicode hex="0058"/>
  <outline>
    <contour>
      <point x="41" y="654" type="line"/>
      <point x="47" y="654" type="line" smooth="yes"/>
      <point x="83" y="654"/>
      <point x="102" y="651"/>
      <point x="125" y="622" type="curve" smooth="yes"/>
      <point x="357" y="332" type="line"/>
      <point x="364" y="328" type="line"/>
      <point x="580" y="66" type="line"/>
      <point x="580" y="59"/>
      <point x="541" y="56"/>
      <point x="509" y="56" type="curve" smooth="yes"/>
      <point x="490" y="56" type="line"/>
      <point x="490" y="0" type="line"/>
      <point x="825" y="0" type="line"/>
      <point x="825" y="56" type="line"/>
      <point x="814" y="56" type="line" smooth="yes"/>
      <point x="778" y="56"/>
      <point x="761" y="60"/>
      <point x="737" y="90" type="curve" smooth="yes"/>
      <point x="488" y="393" type="line"/>
      <point x="481" y="396" type="line"/>
      <point x="282" y="644" type="line"/>
      <point x="282" y="651"/>
      <point x="318" y="654"/>
      <point x="349" y="654" type="curve" smooth="yes"/>
      <point x="369" y="654" type="line"/>
      <point x="369" y="710" type="line"/>
      <point x="41" y="710" type="line"/>
    </contour>
    <contour>
      <point x="24" y="0" type="line"/>
      <point x="283" y="0" type="line"/>
      <point x="283" y="56" type="line"/>
      <point x="266" y="56" type="line" smooth="yes"/>
      <point x="232" y="56"/>
      <point x="192" y="63"/>
      <point x="192" y="74" type="curve"/>
      <point x="415" y="338" type="line"/>
      <point x="364" y="383" type="line"/>
      <point x="123" y="102" type="line" smooth="yes"/>
      <point x="92" y="67"/>
      <point x="71" y="56"/>
      <point x="35" y="56" type="curve" smooth="yes"/>
      <point x="24" y="56" type="line"/>
    </contour>
    <contour>
      <point x="488" y="349" type="line"/>
      <point x="703" y="609" type="line" smooth="yes"/>
      <point x="732" y="644"/>
      <point x="756" y="654"/>
      <point x="794" y="654" type="curve" smooth="yes"/>
      <point x="800" y="654" type="line"/>
      <point x="800" y="710" type="line"/>
      <point x="547" y="710" type="line"/>
      <point x="547" y="654" type="line"/>
      <point x="564" y="654" type="line" smooth="yes"/>
      <point x="596" y="654"/>
      <point x="636" y="647"/>
      <point x="636" y="636" type="curve"/>
      <point x="441" y="399" type="line"/>
    </contour>
  </outline>
</glyph>
<glyph name="Y" format="1">
  <advance width="804"/>
  <unicode hex="0059"/>
  <outline>
    <contour>
      <point x="328" y="318" type="line"/>
      <point x="328" y="92" type="line" smooth="yes"/>
      <point x="328" y="63"/>
      <point x="296" y="56"/>
      <point x="252" y="56" type="curve" smooth="yes"/>
      <point x="234" y="56" type="line"/>
      <point x="234" y="0" type="line"/>
      <point x="574" y="0" type="line"/>
      <point x="574" y="56" type="line"/>
      <point x="556" y="56" type="line" smooth="yes"/>
      <point x="513" y="56"/>
      <point x="480" y="63"/>
      <point x="480" y="92" type="curve" smooth="yes"/>
      <point x="480" y="318" type="line"/>
      <point x="465" y="271" type="line"/>
      <point x="698" y="613" type="line" smooth="yes"/>
      <point x="722" y="649"/>
      <point x="750" y="654"/>
      <point x="784" y="654" type="curve" smooth="yes"/>
      <point x="789" y="654" type="line"/>
      <point x="789" y="710" type="line"/>
      <point x="538" y="710" type="line"/>
      <point x="538" y="654" type="line"/>
      <point x="554" y="654" type="line" smooth="yes"/>
      <point x="590" y="654"/>
      <point x="629" y="647"/>
      <point x="629" y="636" type="curve"/>
      <point x="419" y="324" type="line"/>
      <point x="463" y="329" type="line"/>
      <point x="247" y="644" type="line"/>
      <point x="247" y="651"/>
      <point x="280" y="654"/>
      <point x="312" y="654" type="curve" smooth="yes"/>
      <point x="331" y="654" type="line"/>
      <point x="331" y="710" type="line"/>
      <point x="14" y="710" type="line"/>
      <point x="14" y="654" type="line"/>
      <point x="20" y="654" type="line" smooth="yes"/>
      <point x="53" y="654"/>
      <point x="76" y="653"/>
      <point x="94" y="628" type="curve" smooth="yes"/>
      <point x="344" y="273" type="line"/>
    </contour>
    <contour>
      <point x="403" y="741" type="move" name="top"/>
    </contour>
    <contour>
      <point x="403" y="0" type="move" name="bottom"/>
    </contour>
  </outline>
</glyph>
<glyph name="Z" format="1">
  <advance width="728"/>
  <unicode hex="005A"/>
  <outline>
    <contour>
      <point x="129" y="68" type="line"/>
      <point x="161" y="18" type="line"/>
      <point x="672" y="633" type="line"/>
      <point x="672" y="710" type="line"/>
      <point x="63" y="710" type="line"/>
      <point x="63" y="519" type="line"/>
      <point x="140" y="519" type="line"/>
      <point x="149" y="600" type="line" smooth="yes"/>
      <point x="153" y="636"/>
      <point x="193" y="643"/>
      <point x="285" y="643" type="curve" smooth="yes"/>
      <point x="572" y="643" type="line"/>
      <point x="541" y="682" type="line"/>
      <point x="42" y="80" type="line"/>
      <point x="42" y="0" type="line"/>
      <point x="685" y="0" type="line"/>
      <point x="685" y="209" type="line"/>
      <point x="606" y="209" type="line"/>
      <point x="595" y="110" type="line" smooth="yes"/>
      <point x="591" y="74"/>
      <point x="553" y="68"/>
      <point x="453" y="68" type="curve" smooth="yes"/>
    </contour>
    <contour>
      <point x="381" y="741" type="move" name="top"/>
    </contour>
    <contour>
      <point x="381" y="0" type="move" name="bottom"/>
    </contour>
  </outline>
</glyph>
<glyph name="bracketleft" format="1">
  <advance width="363"/>
  <unicode hex="005B"/>
  <outline>
    <contour>
      <point x="53" y="750" type="line"/>
      <point x="53" y="-130" type="line"/>
      <point x="174" y="-130" type="line"/>
      <point x="174" y="750" type="line"/>
    </contour>
    <contour>
      <point x="338" y="750" type="line"/>
      <point x="99" y="750" type="line"/>
      <point x="99" y="688" type="line"/>
      <point x="338" y="688" type="line"/>
    </contour>
    <contour>
      <point x="338" y="-68" type="line"/>
      <point x="99" y="-68" type="line"/>
      <point x="99" y="-130" type="line"/>
      <point x="338" y="-130" type="line"/>
    </contour>
  </outline>
</glyph>
<glyph name="asciicircum" format="1">
  <advance width="592"/>
  <unicode hex="005E"/>
  <outline>
    <contour>
      <point x="153" y="360" type="line"/>
      <point x="312" y="685" type="line"/>
      <point x="316" y="710" type="line"/>
      <point x="234" y="710" type="line"/>
      <point x="51" y="360" type="line"/>
    </contour>
    <contour>
      <point x="434" y="360" type="line"/>
      <point x="541" y="360" type="line"/>
      <point x="357" y="710" type="line"/>
      <point x="273" y="710" type="line"/>
      <point x="274" y="686" type="line"/>
    </contour>
  </outline>
</glyph>
<glyph name="underscore" format="1">
  <advance width="565"/>
  <unicode hex="005F"/>
  <outline>
    <contour>
      <point x="-6" y="-88" type="line"/>
      <point x="-6" y="-159" type="line"/>
      <point x="570" y="-159" type="line"/>
      <point x="570" y="-88" type="line"/>
    </contour>
  </outline>
</glyph>
<glyph name="grave" format="1">
  <advance width="590"/>
  <unicode hex="0060"/>
  <outline>
    <component base="acute" xScale="-1.0" xOffset="496"/>
    <contour>
      <point x="253" y="531" type="move" name="_top"/>
    </contour>
  </outline>
</glyph>
<glyph name="a" format="1">
  <advance width="647"/>
  <unicode hex="0061"/>
  <outline>
    <contour>
      <point x="438" y="313" type="line"/>
      <point x="160" y="291"/>
      <point x="47" y="238"/>
      <point x="47" y="123" type="curve" smooth="yes"/>
      <point x="47" y="37"/>
      <point x="119" y="-10"/>
      <point x="222" y="-10" type="curve" smooth="yes"/>
      <point x="325" y="-10"/>
      <point x="396" y="36"/>
      <point x="435" y="105" type="curve"/>
      <point x="435" y="183" type="line"/>
      <point x="399" y="106"/>
      <point x="343" y="58"/>
      <point x="269" y="58" type="curve" smooth="yes"/>
      <point x="218" y="58"/>
      <point x="188" y="83"/>
      <point x="188" y="130" type="curve" smooth="yes"/>
      <point x="188" y="203"/>
      <point x="251" y="242"/>
      <point x="438" y="256" type="curve"/>
    </contour>
    <contour>
      <point x="422" y="0" type="line"/>
      <point x="625" y="0" type="line"/>
      <point x="625" y="54" type="line"/>
      <point x="620" y="54" type="line"/>
      <point x="580" y="55"/>
      <point x="552" y="62"/>
      <point x="552" y="87" type="curve" smooth="yes"/>
      <point x="552" y="349" type="line" smooth="yes"/>
      <point x="552" y="475"/>
      <point x="448" y="519"/>
      <point x="317" y="519" type="curve" smooth="yes"/>
      <point x="198" y="519"/>
      <point x="118" y="480"/>
      <point x="84" y="457" type="curve"/>
      <point x="84" y="351" type="line"/>
      <point x="208" y="351" type="line"/>
      <point x="208" y="454" type="line"/>
      <point x="172" y="445"/>
      <point x="150" y="422"/>
      <point x="165" y="392" type="curve"/>
      <point x="191" y="426"/>
      <point x="237" y="454"/>
      <point x="306" y="454" type="curve" smooth="yes"/>
      <point x="372" y="454"/>
      <point x="411" y="430"/>
      <point x="411" y="358" type="curve" smooth="yes"/>
      <point x="411" y="109" type="line"/>
      <point x="422" y="107" type="line"/>
    </contour>
    <contour>
      <point x="288" y="553" type="move" name="top"/>
    </contour>
    <contour>
      <point x="470" y="-10" type="move" name="right"/>
    </contour>
    <contour>
      <point x="321" y="0" type="move" name="bottom"/>
    </contour>
  </outline>
</glyph>
<glyph name="b" format="1">
  <advance width="752"/>
  <unicode hex="0062"/>
  <outline>
    <contour>
      <point x="710" y="259" type="curve" smooth="yes"/>
      <point x="710" y="416"/>
      <point x="609" y="519"/>
      <point x="455" y="519" type="curve" smooth="yes"/>
      <point x="355" y="519"/>
      <point x="276" y="475"/>
      <point x="221" y="390" type="curve"/>
      <point x="221" y="298" type="line"/>
      <point x="275" y="400"/>
      <point x="339" y="448"/>
      <point x="419" y="448" type="curve" smooth="yes"/>
      <point x="512" y="448"/>
      <point x="560" y="380"/>
      <point x="560" y="259" type="curve" smooth="yes"/>
      <point x="560" y="137"/>
      <point x="509" y="61"/>
      <point x="408" y="61" type="curve" smooth="yes"/>
      <point x="328" y="61"/>
      <point x="272" y="108"/>
      <point x="221" y="202" type="curve"/>
      <point x="221" y="98" type="line"/>
      <point x="265" y="31"/>
      <point x="340" y="-10"/>
      <point x="434" y="-10" type="curve" smooth="yes"/>
      <point x="598" y="-10"/>
      <point x="710" y="100"/>
    </contour>
    <contour>
      <point x="104" y="640" type="curve" smooth="yes"/>
      <point x="104" y="-2" type="line"/>
      <point x="194" y="-2" type="line"/>
      <point x="231" y="106" type="line"/>
      <point x="248" y="118" type="line"/>
      <point x="248" y="735" type="line"/>
      <point x="30" y="735" type="line"/>
      <point x="30" y="681" type="line"/>
      <point x="42" y="679" type="line" smooth="yes"/>
      <point x="85" y="672"/>
      <point x="104" y="666"/>
    </contour>
  </outline>
</glyph>
<glyph name="c" format="1">
  <advance width="635"/>
  <unicode hex="0063"/>
  <outline>
    <contour>
      <point x="374" y="57" type="curve" smooth="yes"/>
      <point x="261" y="57"/>
      <point x="192" y="133"/>
      <point x="192" y="255" type="curve" smooth="yes"/>
      <point x="192" y="375"/>
      <point x="252" y="453"/>
      <point x="369" y="453" type="curve" smooth="yes"/>
      <point x="431" y="453"/>
      <point x="486" y="426"/>
      <point x="509" y="389" type="curve"/>
      <point x="524" y="416"/>
      <point x="505" y="442"/>
      <point x="468" y="446" type="curve"/>
      <point x="468" y="328" type="line"/>
      <point x="591" y="328" type="line"/>
      <point x="591" y="456" type="line"/>
      <point x="564" y="478"/>
      <point x="483" y="519"/>
      <point x="366" y="519" type="curve" smooth="yes"/>
      <point x="169" y="519"/>
      <point x="42" y="414"/>
      <point x="42" y="255" type="curve" smooth="yes"/>
      <point x="42" y="94"/>
      <point x="167" y="-10"/>
      <point x="353" y="-10" type="curve" smooth="yes"/>
      <point x="481" y="-10"/>
      <point x="554" y="47"/>
      <point x="604" y="118" type="curve"/>
      <point x="549" y="162" type="line"/>
      <point x="516" y="117"/>
      <point x="465" y="57"/>
    </contour>
    <contour>
      <point x="342" y="551" type="move" name="top"/>
    </contour>
    <contour>
      <point x="353" y="0" type="move" name="bottom"/>
    </contour>
  </outline>
</glyph>
<glyph name="d" format="1">
  <advance width="749"/>
  <unicode hex="0064"/>
  <outline>
    <contour>
      <point x="515" y="0" type="line"/>
      <point x="721" y="0" type="line"/>
      <point x="721" y="54" type="line"/>
      <point x="719" y="54" type="line"/>
      <point x="677" y="56"/>
      <point x="649" y="62"/>
      <point x="649" y="87" type="curve" smooth="yes"/>
      <point x="649" y="735" type="line"/>
      <point x="429" y="735" type="line"/>
      <point x="429" y="681" type="line"/>
      <point x="441" y="679" type="line" smooth="yes"/>
      <point x="484" y="672"/>
      <point x="505" y="666"/>
      <point x="505" y="640" type="curve" smooth="yes"/>
      <point x="505" y="113" type="line"/>
      <point x="515" y="114" type="line"/>
    </contour>
    <contour>
      <point x="310" y="-10" type="curve" smooth="yes"/>
      <point x="413" y="-10"/>
      <point x="484" y="43"/>
      <point x="532" y="123" type="curve"/>
      <point x="532" y="216" type="line"/>
      <point x="477" y="110"/>
      <point x="421" y="61"/>
      <point x="341" y="61" type="curve" smooth="yes"/>
      <point x="243" y="61"/>
      <point x="192" y="133"/>
      <point x="192" y="250" type="curve" smooth="yes"/>
      <point x="192" y="370"/>
      <point x="244" y="448"/>
      <point x="346" y="448" type="curve" smooth="yes"/>
      <point x="424" y="448"/>
      <point x="485" y="405"/>
      <point x="532" y="312" type="curve"/>
      <point x="532" y="405" type="line"/>
      <point x="489" y="475"/>
      <point x="422" y="519"/>
      <point x="320" y="519" type="curve" smooth="yes"/>
      <point x="154" y="519"/>
      <point x="43" y="409"/>
      <point x="43" y="250" type="curve" smooth="yes"/>
      <point x="43" y="94"/>
      <point x="146" y="-10"/>
    </contour>
    <contour>
      <point x="702" y="729" type="move" name="right"/>
    </contour>
    <contour>
      <point x="343" y="0" type="move" name="bottom"/>
    </contour>
  </outline>
</glyph>
<glyph name="e" format="1">
  <advance width="645"/>
  <unicode hex="0065"/>
  <outline>
    <contour>
      <point x="353" y="-10" type="curve" smooth="yes"/>
      <point x="470" y="-10"/>
      <point x="553" y="41"/>
      <point x="602" y="111" type="curve"/>
      <point x="547" y="157" type="line"/>
      <point x="510" y="107"/>
      <point x="460" y="58"/>
      <point x="369" y="58" type="curve" smooth="yes"/>
      <point x="261" y="58"/>
      <point x="189" y="117"/>
      <point x="189" y="251" type="curve" smooth="yes"/>
      <point x="189" y="389"/>
      <point x="246" y="453"/>
      <point x="333" y="453" type="curve" smooth="yes"/>
      <point x="417" y="453"/>
      <point x="473" y="396"/>
      <point x="471" y="267" type="curve"/>
      <point x="499" y="295" type="line"/>
      <point x="167" y="295" type="line"/>
      <point x="167" y="232" type="line"/>
      <point x="611" y="232" type="line"/>
      <point x="610" y="424"/>
      <point x="505" y="519"/>
      <point x="331" y="519" type="curve" smooth="yes"/>
      <point x="164" y="519"/>
      <point x="42" y="412"/>
      <point x="42" y="253" type="curve" smooth="yes"/>
      <point x="42" y="83"/>
      <point x="170" y="-10"/>
    </contour>
    <contour>
      <point x="322" y="551" type="move" name="top"/>
    </contour>
    <contour>
      <point x="502" y="1" type="move" name="right"/>
    </contour>
    <contour>
      <point x="347" y="0" type="move" name="bottom"/>
    </contour>
  </outline>
</glyph>
<glyph name="f" format="1">
  <advance width="460"/>
  <unicode hex="0066"/>
  <outline>
    <contour>
      <point x="40" y="509" type="line"/>
      <point x="40" y="446" type="line"/>
      <point x="446" y="446" type="line"/>
      <point x="446" y="509" type="line"/>
    </contour>
    <contour>
      <point x="489" y="740" type="line"/>
      <point x="470" y="746"/>
      <point x="427" y="751"/>
      <point x="384" y="751" type="curve" smooth="yes"/>
      <point x="254" y="751"/>
      <point x="140" y="707"/>
      <point x="140" y="568" type="curve" smooth="yes"/>
      <point x="140" y="87" type="line" smooth="yes"/>
      <point x="140" y="61"/>
      <point x="111" y="53"/>
      <point x="62" y="53" type="curve" smooth="yes"/>
      <point x="49" y="53" type="line"/>
      <point x="49" y="0" type="line"/>
      <point x="395" y="0" type="line"/>
      <point x="395" y="53" type="line"/>
      <point x="380" y="53" type="line" smooth="yes"/>
      <point x="328" y="53"/>
      <point x="285" y="56"/>
      <point x="285" y="62" type="curve" smooth="yes"/>
      <point x="285" y="575" type="line" smooth="yes"/>
      <point x="285" y="663"/>
      <point x="330" y="686"/>
      <point x="397" y="686" type="curve" smooth="yes"/>
      <point x="434" y="686"/>
      <point x="468" y="677"/>
      <point x="489" y="670" type="curve"/>
    </contour>
  </outline>
</glyph>
<glyph name="g" format="1">
  <advance width="678"/>
  <unicode hex="0067"/>
  <outline>
    <contour>
      <point x="320" y="219" type="curve" smooth="yes"/>
      <point x="252" y="219"/>
      <point x="209" y="258"/>
      <point x="209" y="335" type="curve" smooth="yes"/>
      <point x="209" y="413"/>
      <point x="253" y="455"/>
      <point x="320" y="455" type="curve" smooth="yes"/>
      <point x="387" y="455"/>
      <point x="431" y="413"/>
      <point x="431" y="335" type="curve" smooth="yes"/>
      <point x="431" y="258"/>
      <point x="388" y="219"/>
    </contour>
    <contour>
      <point x="320" y="156" type="curve" smooth="yes"/>
      <point x="464" y="156"/>
      <point x="568" y="225"/>
      <point x="568" y="337" type="curve" smooth="yes"/>
      <point x="568" y="447"/>
      <point x="464" y="519"/>
      <point x="320" y="519" type="curve" smooth="yes"/>
      <point x="176" y="519"/>
      <point x="73" y="447"/>
      <point x="73" y="337" type="curve" smooth="yes"/>
      <point x="73" y="225"/>
      <point x="175" y="156"/>
    </contour>
    <contour>
      <point x="486" y="411" type="line"/>
      <point x="521" y="438"/>
      <point x="573" y="437"/>
      <point x="665" y="427" type="curve"/>
      <point x="665" y="530" type="line"/>
      <point x="576" y="540"/>
      <point x="511" y="499"/>
      <point x="467" y="422" type="curve"/>
    </contour>
    <contour>
      <point x="341" y="-236" type="line" smooth="yes"/>
      <point x="514" y="-236"/>
      <point x="653" y="-178"/>
      <point x="653" y="-56" type="curve" smooth="yes"/>
      <point x="653" y="30"/>
      <point x="581" y="76"/>
      <point x="463" y="76" type="curve" smooth="yes"/>
      <point x="237" y="76" type="line" smooth="yes"/>
      <point x="193" y="76"/>
      <point x="170" y="86"/>
      <point x="170" y="112" type="curve" smooth="yes"/>
      <point x="170" y="137"/>
      <point x="196" y="159"/>
      <point x="253" y="176" type="curve"/>
      <point x="202" y="203" type="line"/>
      <point x="106" y="173"/>
      <point x="54" y="127"/>
      <point x="54" y="74" type="curve" smooth="yes"/>
      <point x="54" y="28"/>
      <point x="90" y="-14"/>
      <point x="156" y="-34" type="curve"/>
      <point x="158" y="-42" type="line"/>
      <point x="446" y="-42" type="line" smooth="yes"/>
      <point x="506" y="-42"/>
      <point x="528" y="-58"/>
      <point x="528" y="-88" type="curve" smooth="yes"/>
      <point x="528" y="-139"/>
      <point x="458" y="-171"/>
      <point x="340" y="-171" type="curve" smooth="yes"/>
      <point x="292" y="-171" type="line" smooth="yes"/>
      <point x="176" y="-171"/>
      <point x="131" y="-147"/>
      <point x="131" y="-104" type="curve" smooth="yes"/>
      <point x="131" y="-73"/>
      <point x="154" y="-49"/>
      <point x="210" y="-26" type="curve"/>
      <point x="167" y="1" type="line"/>
      <point x="61" y="-31"/>
      <point x="13" y="-69"/>
      <point x="13" y="-118" type="curve" smooth="yes"/>
      <point x="13" y="-205"/>
      <point x="117" y="-236"/>
      <point x="284" y="-236" type="curve" smooth="yes"/>
    </contour>
    <contour>
      <point x="322" y="545" type="move" name="top"/>
    </contour>
  </outline>
</glyph>
<glyph name="h" format="1">
  <advance width="754"/>
  <unicode hex="0068"/>
  <outline>
    <contour>
      <point x="262" y="735" type="line"/>
      <point x="45" y="735" type="line"/>
      <point x="45" y="681" type="line"/>
      <point x="56" y="679" type="line" smooth="yes"/>
      <point x="99" y="672"/>
      <point x="118" y="666"/>
      <point x="118" y="640" type="curve" smooth="yes"/>
      <point x="118" y="86" type="line" smooth="yes"/>
      <point x="118" y="60"/>
      <point x="87" y="53"/>
      <point x="46" y="53" type="curve" smooth="yes"/>
      <point x="45" y="53" type="line"/>
      <point x="45" y="0" type="line"/>
      <point x="326" y="0" type="line"/>
      <point x="326" y="53" type="line"/>
      <point x="322" y="53" type="line" smooth="yes"/>
      <point x="299" y="53"/>
      <point x="262" y="56"/>
      <point x="262" y="62" type="curve"/>
    </contour>
    <contour>
      <point x="725" y="0" type="line"/>
      <point x="725" y="53" type="line"/>
      <point x="722" y="53" type="line" smooth="yes"/>
      <point x="682" y="53"/>
      <point x="653" y="60"/>
      <point x="653" y="86" type="curve" smooth="yes"/>
      <point x="653" y="333" type="line" smooth="yes"/>
      <point x="653" y="460"/>
      <point x="575" y="519"/>
      <point x="458" y="519" type="curve" smooth="yes"/>
      <point x="364" y="519"/>
      <point x="291" y="476"/>
      <point x="241" y="404" type="curve"/>
      <point x="241" y="325" type="line"/>
      <point x="286" y="398"/>
      <point x="346" y="441"/>
      <point x="414" y="441" type="curve" smooth="yes"/>
      <point x="482" y="441"/>
      <point x="508" y="402"/>
      <point x="508" y="327" type="curve" smooth="yes"/>
      <point x="508" y="62" type="line" smooth="yes"/>
      <point x="508" y="56"/>
      <point x="470" y="53"/>
      <point x="447" y="53" type="curve" smooth="yes"/>
      <point x="444" y="53" type="line"/>
      <point x="444" y="0" type="line"/>
    </contour>
    <contour>
      <point x="390" y="749" type="move" name="top"/>
    </contour>
    <contour>
      <point x="378" y="0" type="move" name="bottom"/>
    </contour>
  </outline>
</glyph>
<glyph name="i" format="1">
  <advance width="365"/>
  <unicode hex="0069"/>
  <outline>
    <contour>
      <point x="184" y="604" type="curve" smooth="yes"/>
      <point x="237" y="604"/>
      <point x="272" y="630"/>
      <point x="272" y="675" type="curve" smooth="yes"/>
      <point x="272" y="718"/>
      <point x="237" y="744"/>
      <point x="184" y="744" type="curve" smooth="yes"/>
      <point x="131" y="744"/>
      <point x="96" y="718"/>
      <point x="96" y="675" type="curve" smooth="yes"/>
      <point x="96" y="630"/>
      <point x="131" y="604"/>
    </contour>
    <contour>
      <point x="262" y="509" type="line"/>
      <point x="45" y="509" type="line"/>
      <point x="45" y="456" type="line"/>
      <point x="56" y="454" type="line" smooth="yes"/>
      <point x="99" y="447"/>
      <point x="118" y="440"/>
      <point x="118" y="415" type="curve" smooth="yes"/>
      <point x="118" y="86" type="line" smooth="yes"/>
      <point x="118" y="60"/>
      <point x="87" y="53"/>
      <point x="46" y="53" type="curve" smooth="yes"/>
      <point x="45" y="53" type="line"/>
      <point x="45" y="0" type="line"/>
      <point x="334" y="0" type="line"/>
      <point x="334" y="53" type="line"/>
      <point x="332" y="53" type="line" smooth="yes"/>
      <point x="292" y="53"/>
      <point x="262" y="60"/>
      <point x="262" y="86" type="curve" smooth="yes"/>
    </contour>
    <contour>
      <point x="190" y="551" type="move" name="top"/>
    </contour>
    <contour>
      <point x="244" y="-10" type="move" name="right"/>
    </contour>
    <contour>
      <point x="188" y="-10" type="move" name="bottom"/>
    </contour>
  </outline>
</glyph>
<glyph name="j" format="1">
  <advance width="342"/>
  <unicode hex="006A"/>
  <outline>
    <contour>
      <point x="110" y="-54" type="line" smooth="yes"/>
      <point x="110" y="-139"/>
      <point x="71" y="-166"/>
      <point x="9" y="-166" type="curve" smooth="yes"/>
      <point x="-24" y="-166"/>
      <point x="-49" y="-160"/>
      <point x="-76" y="-153" type="curve"/>
      <point x="-76" y="-225" type="line"/>
      <point x="-52" y="-232"/>
      <point x="-17" y="-236"/>
      <point x="25" y="-236" type="curve" smooth="yes"/>
      <point x="158" y="-236"/>
      <point x="254" y="-191"/>
      <point x="254" y="-46" type="curve" smooth="yes"/>
      <point x="254" y="509" type="line"/>
      <point x="25" y="509" type="line"/>
      <point x="25" y="456" type="line"/>
      <point x="41" y="454" type="line" smooth="yes"/>
      <point x="86" y="448"/>
      <point x="110" y="440"/>
      <point x="110" y="415" type="curve" smooth="yes"/>
    </contour>
    <contour>
      <point x="175" y="604" type="curve" smooth="yes"/>
      <point x="228" y="604"/>
      <point x="263" y="630"/>
      <point x="263" y="675" type="curve" smooth="yes"/>
      <point x="263" y="718"/>
      <point x="228" y="744"/>
      <point x="175" y="744" type="curve" smooth="yes"/>
      <point x="123" y="744"/>
      <point x="87" y="718"/>
      <point x="87" y="675" type="curve" smooth="yes"/>
      <point x="87" y="630"/>
      <point x="123" y="604"/>
    </contour>
    <contour>
      <point x="179" y="551" type="move" name="top"/>
    </contour>
  </outline>
</glyph>
<glyph name="k" format="1">
  <advance width="756"/>
  <unicode hex="006B"/>
  <outline>
    <contour>
      <point x="733" y="0" type="line"/>
      <point x="733" y="53" type="line"/>
      <point x="730" y="53" type="line"/>
      <point x="694" y="53"/>
      <point x="666" y="62"/>
      <point x="637" y="91" type="curve" smooth="yes"/>
      <point x="413" y="327" type="line"/>
      <point x="385" y="268" type="line"/>
      <point x="567" y="408" type="line" smooth="yes"/>
      <point x="606" y="439"/>
      <point x="645" y="457"/>
      <point x="692" y="457" type="curve"/>
      <point x="694" y="457" type="line"/>
      <point x="694" y="509" type="line"/>
      <point x="410" y="509" type="line"/>
      <point x="410" y="457" type="line"/>
      <point x="415" y="457" type="line"/>
      <point x="447" y="457"/>
      <point x="502" y="454"/>
      <point x="502" y="439" type="curve"/>
      <point x="292" y="275" type="line"/>
      <point x="292" y="263" type="line"/>
      <point x="491" y="62" type="line"/>
      <point x="491" y="56"/>
      <point x="453" y="53"/>
      <point x="428" y="53" type="curve"/>
      <point x="424" y="53" type="line"/>
      <point x="424" y="0" type="line"/>
    </contour>
    <contour>
      <point x="262" y="735" type="line"/>
      <point x="44" y="735" type="line"/>
      <point x="44" y="681" type="line"/>
      <point x="56" y="679" type="line" smooth="yes"/>
      <point x="99" y="672"/>
      <point x="118" y="666"/>
      <point x="118" y="640" type="curve" smooth="yes"/>
      <point x="118" y="86" type="line" smooth="yes"/>
      <point x="118" y="60"/>
      <point x="88" y="53"/>
      <point x="47" y="53" type="curve" smooth="yes"/>
      <point x="45" y="53" type="line"/>
      <point x="45" y="0" type="line"/>
      <point x="331" y="0" type="line"/>
      <point x="331" y="53" type="line"/>
      <point x="328" y="53" type="line" smooth="yes"/>
      <point x="303" y="53"/>
      <point x="262" y="56"/>
      <point x="262" y="62" type="curve" smooth="yes"/>
    </contour>
    <contour>
      <point x="369" y="0" type="move" name="bottom"/>
    </contour>
  </outline>
</glyph>
<glyph name="l" format="1">
  <advance width="358"/>
  <unicode hex="006C"/>
  <outline>
    <contour>
      <point x="258" y="735" type="line"/>
      <point x="41" y="735" type="line"/>
      <point x="41" y="681" type="line"/>
      <point x="52" y="679" type="line" smooth="yes"/>
      <point x="95" y="672"/>
      <point x="114" y="666"/>
      <point x="114" y="640" type="curve" smooth="yes"/>
      <point x="114" y="86" type="line" smooth="yes"/>
      <point x="114" y="60"/>
      <point x="84" y="53"/>
      <point x="44" y="53" type="curve" smooth="yes"/>
      <point x="42" y="53" type="line"/>
      <point x="42" y="0" type="line"/>
      <point x="330" y="0" type="line"/>
      <point x="330" y="53" type="line"/>
      <point x="328" y="53" type="line" smooth="yes"/>
      <point x="287" y="53"/>
      <point x="258" y="60"/>
      <point x="258" y="86" type="curve" smooth="yes"/>
    </contour>
    <contour>
      <point x="183" y="745" type="move" name="top"/>
    </contour>
    <contour>
      <point x="308" y="734" type="move" name="right"/>
    </contour>
    <contour>
      <point x="373" y="391" type="move" name="mid"/>
    </contour>
    <contour>
      <point x="187" y="0" type="move" name="bottom"/>
    </contour>
  </outline>
</glyph>
<glyph name="m" format="1">
  <advance width="1083"/>
  <unicode hex="006D"/>
  <outline>
    <contour>
      <point x="45" y="0" type="line"/>
      <point x="318" y="0" type="line"/>
      <point x="318" y="53" type="line"/>
      <point x="316" y="53" type="line" smooth="yes"/>
      <point x="294" y="53"/>
      <point x="261" y="56"/>
      <point x="261" y="62" type="curve" smooth="yes"/>
      <point x="261" y="396" type="line"/>
      <point x="249" y="401" type="line"/>
      <point x="249" y="509" type="line"/>
      <point x="45" y="509" type="line"/>
      <point x="45" y="456" type="line"/>
      <point x="56" y="454" type="line" smooth="yes"/>
      <point x="98" y="446"/>
      <point x="117" y="440"/>
      <point x="117" y="415" type="curve" smooth="yes"/>
      <point x="117" y="86" type="line" smooth="yes"/>
      <point x="117" y="60"/>
      <point x="87" y="53"/>
      <point x="46" y="53" type="curve" smooth="yes"/>
      <point x="45" y="53" type="line"/>
    </contour>
    <contour>
      <point x="679" y="0" type="line"/>
      <point x="679" y="53" type="line"/>
      <point x="677" y="53" type="line" smooth="yes"/>
      <point x="654" y="53"/>
      <point x="620" y="56"/>
      <point x="620" y="62" type="curve" smooth="yes"/>
      <point x="620" y="343" type="line" smooth="yes"/>
      <point x="620" y="465"/>
      <point x="548" y="519"/>
      <point x="443" y="519" type="curve" smooth="yes"/>
      <point x="357" y="519"/>
      <point x="289" y="476"/>
      <point x="241" y="407" type="curve"/>
      <point x="241" y="327" type="line"/>
      <point x="289" y="402"/>
      <point x="338" y="441"/>
      <point x="398" y="441" type="curve" smooth="yes"/>
      <point x="454" y="441"/>
      <point x="476" y="409"/>
      <point x="476" y="339" type="curve" smooth="yes"/>
      <point x="476" y="62" type="line" smooth="yes"/>
      <point x="476" y="56"/>
      <point x="443" y="53"/>
      <point x="420" y="53" type="curve" smooth="yes"/>
      <point x="418" y="53" type="line"/>
      <point x="418" y="0" type="line"/>
    </contour>
    <contour>
      <point x="1052" y="0" type="line"/>
      <point x="1052" y="53" type="line"/>
      <point x="1050" y="53" type="line" smooth="yes"/>
      <point x="1009" y="53"/>
      <point x="979" y="60"/>
      <point x="979" y="86" type="curve" smooth="yes"/>
      <point x="979" y="343" type="line" smooth="yes"/>
      <point x="979" y="465"/>
      <point x="907" y="519"/>
      <point x="803" y="519" type="curve" smooth="yes"/>
      <point x="717" y="519"/>
      <point x="649" y="476"/>
      <point x="601" y="407" type="curve"/>
      <point x="601" y="327" type="line"/>
      <point x="648" y="400"/>
      <point x="697" y="441"/>
      <point x="757" y="441" type="curve" smooth="yes"/>
      <point x="814" y="441"/>
      <point x="835" y="409"/>
      <point x="835" y="339" type="curve" smooth="yes"/>
      <point x="835" y="62" type="line" smooth="yes"/>
      <point x="835" y="56"/>
      <point x="802" y="53"/>
      <point x="779" y="53" type="curve" smooth="yes"/>
      <point x="777" y="53" type="line"/>
      <point x="777" y="0" type="line"/>
    </contour>
  </outline>
</glyph>
<glyph name="n" format="1">
  <advance width="755"/>
  <unicode hex="006E"/>
  <outline>
    <contour>
      <point x="45" y="0" type="line"/>
      <point x="325" y="0" type="line"/>
      <point x="325" y="53" type="line"/>
      <point x="322" y="53" type="line" smooth="yes"/>
      <point x="298" y="53"/>
      <point x="261" y="56"/>
      <point x="261" y="62" type="curve" smooth="yes"/>
      <point x="261" y="395" type="line"/>
      <point x="250" y="402" type="line"/>
      <point x="250" y="509" type="line"/>
      <point x="45" y="509" type="line"/>
      <point x="45" y="456" type="line"/>
      <point x="56" y="454" type="line" smooth="yes"/>
      <point x="97" y="446"/>
      <point x="117" y="440"/>
      <point x="117" y="415" type="curve" smooth="yes"/>
      <point x="117" y="86" type="line" smooth="yes"/>
      <point x="117" y="60"/>
      <point x="87" y="53"/>
      <point x="46" y="53" type="curve" smooth="yes"/>
      <point x="45" y="53" type="line"/>
    </contour>
    <contour>
      <point x="725" y="0" type="line"/>
      <point x="725" y="53" type="line"/>
      <point x="722" y="53" type="line" smooth="yes"/>
      <point x="682" y="53"/>
      <point x="653" y="60"/>
      <point x="653" y="86" type="curve" smooth="yes"/>
      <point x="653" y="333" type="line" smooth="yes"/>
      <point x="653" y="460"/>
      <point x="575" y="519"/>
      <point x="458" y="519" type="curve" smooth="yes"/>
      <point x="364" y="519"/>
      <point x="291" y="476"/>
      <point x="241" y="404" type="curve"/>
      <point x="241" y="325" type="line"/>
      <point x="286" y="398"/>
      <point x="346" y="441"/>
      <point x="414" y="441" type="curve" smooth="yes"/>
      <point x="482" y="441"/>
      <point x="508" y="402"/>
      <point x="508" y="327" type="curve" smooth="yes"/>
      <point x="508" y="62" type="line" smooth="yes"/>
      <point x="508" y="56"/>
      <point x="470" y="53"/>
      <point x="447" y="53" type="curve" smooth="yes"/>
      <point x="444" y="53" type="line"/>
      <point x="444" y="0" type="line"/>
    </contour>
    <contour>
      <point x="368" y="551" type="move" name="top"/>
    </contour>
    <contour>
      <point x="377" y="0" type="move" name="bottom"/>
    </contour>
  </outline>
</glyph>
<glyph name="o" format="1">
  <advance width="714"/>
  <unicode hex="006F"/>
  <outline>
    <contour>
      <point x="357" y="-10" type="curve" smooth="yes"/>
      <point x="543" y="-10"/>
      <point x="673" y="97"/>
      <point x="673" y="255" type="curve" smooth="yes"/>
      <point x="673" y="411"/>
      <point x="543" y="519"/>
      <point x="357" y="519" type="curve" smooth="yes"/>
      <point x="172" y="519"/>
      <point x="42" y="411"/>
      <point x="42" y="255" type="curve" smooth="yes"/>
      <point x="42" y="97"/>
      <point x="172" y="-10"/>
    </contour>
    <contour>
      <point x="357" y="56" type="curve" smooth="yes"/>
      <point x="255" y="56"/>
      <point x="192" y="130"/>
      <point x="192" y="255" type="curve" smooth="yes"/>
      <point x="192" y="379"/>
      <point x="255" y="453"/>
      <point x="357" y="453" type="curve" smooth="yes"/>
      <point x="459" y="453"/>
      <point x="523" y="379"/>
      <point x="523" y="255" type="curve" smooth="yes"/>
      <point x="523" y="129"/>
      <point x="459" y="56"/>
    </contour>
    <contour>
      <point x="357" y="551" type="move" name="top"/>
    </contour>
    <contour>
      <point x="478" y="0" type="move" name="right"/>
    </contour>
    <contour>
      <point x="357" y="0" type="move" name="bottom"/>
    </contour>
  </outline>
</glyph>
<glyph name="p" format="1">
  <advance width="761"/>
  <unicode hex="0070"/>
  <outline>
    <contour>
      <point x="41" y="-223" type="line"/>
      <point x="352" y="-223" type="line"/>
      <point x="352" y="-170" type="line"/>
      <point x="326" y="-170" type="line" smooth="yes"/>
      <point x="301" y="-170"/>
      <point x="257" y="-168"/>
      <point x="257" y="-161" type="curve" smooth="yes"/>
      <point x="257" y="372" type="line"/>
      <point x="246" y="380" type="line"/>
      <point x="246" y="509" type="line"/>
      <point x="41" y="509" type="line"/>
      <point x="41" y="456" type="line"/>
      <point x="52" y="454" type="line" smooth="yes"/>
      <point x="94" y="446"/>
      <point x="113" y="440"/>
      <point x="113" y="415" type="curve" smooth="yes"/>
      <point x="113" y="-137" type="line" smooth="yes"/>
      <point x="113" y="-164"/>
      <point x="83" y="-170"/>
      <point x="43" y="-170" type="curve"/>
      <point x="41" y="-170" type="line"/>
    </contour>
    <contour>
      <point x="444" y="-10" type="curve" smooth="yes"/>
      <point x="608" y="-10"/>
      <point x="719" y="100"/>
      <point x="719" y="259" type="curve" smooth="yes"/>
      <point x="719" y="416"/>
      <point x="619" y="519"/>
      <point x="465" y="519" type="curve" smooth="yes"/>
      <point x="365" y="519"/>
      <point x="286" y="475"/>
      <point x="231" y="390" type="curve"/>
      <point x="231" y="298" type="line"/>
      <point x="285" y="400"/>
      <point x="349" y="448"/>
      <point x="429" y="448" type="curve" smooth="yes"/>
      <point x="522" y="448"/>
      <point x="570" y="380"/>
      <point x="570" y="259" type="curve" smooth="yes"/>
      <point x="570" y="137"/>
      <point x="518" y="61"/>
      <point x="418" y="61" type="curve" smooth="yes"/>
      <point x="338" y="61"/>
      <point x="282" y="108"/>
      <point x="231" y="202" type="curve"/>
      <point x="231" y="98" type="line"/>
      <point x="275" y="31"/>
      <point x="349" y="-10"/>
    </contour>
  </outline>
</glyph>
<glyph name="q" format="1">
  <advance width="743"/>
  <unicode hex="0071"/>
  <outline>
    <contour>
      <point x="410" y="-223" type="line"/>
      <point x="721" y="-223" type="line"/>
      <point x="721" y="-170" type="line"/>
      <point x="720" y="-170" type="line"/>
      <point x="672" y="-170"/>
      <point x="649" y="-164"/>
      <point x="649" y="-137" type="curve" smooth="yes"/>
      <point x="649" y="512" type="line"/>
      <point x="557" y="512" type="line"/>
      <point x="517" y="402" type="line"/>
      <point x="505" y="390" type="line"/>
      <point x="505" y="-161" type="line" smooth="yes"/>
      <point x="505" y="-168"/>
      <point x="465" y="-170"/>
      <point x="436" y="-170" type="curve" smooth="yes"/>
      <point x="410" y="-170" type="line"/>
    </contour>
    <contour>
      <point x="310" y="-10" type="curve" smooth="yes"/>
      <point x="413" y="-10"/>
      <point x="484" y="43"/>
      <point x="532" y="123" type="curve"/>
      <point x="532" y="216" type="line"/>
      <point x="477" y="110"/>
      <point x="421" y="61"/>
      <point x="341" y="61" type="curve" smooth="yes"/>
      <point x="243" y="61"/>
      <point x="192" y="133"/>
      <point x="192" y="250" type="curve" smooth="yes"/>
      <point x="192" y="370"/>
      <point x="244" y="448"/>
      <point x="346" y="448" type="curve" smooth="yes"/>
      <point x="424" y="448"/>
      <point x="485" y="405"/>
      <point x="532" y="312" type="curve"/>
      <point x="532" y="405" type="line"/>
      <point x="489" y="475"/>
      <point x="422" y="519"/>
      <point x="320" y="519" type="curve" smooth="yes"/>
      <point x="154" y="519"/>
      <point x="43" y="409"/>
      <point x="43" y="250" type="curve" smooth="yes"/>
      <point x="43" y="94"/>
      <point x="146" y="-10"/>
    </contour>
  </outline>
</glyph>
<glyph name="r" format="1">
  <advance width="493"/>
  <unicode hex="0072"/>
  <outline>
    <contour>
      <point x="467" y="515" type="line"/>
      <point x="459" y="517"/>
      <point x="442" y="518"/>
      <point x="425" y="518" type="curve" smooth="yes"/>
      <point x="330" y="518"/>
      <point x="275" y="454"/>
      <point x="241" y="363" type="curve"/>
      <point x="241" y="299" type="line"/>
      <point x="282" y="375"/>
      <point x="322" y="406"/>
      <point x="401" y="406" type="curve" smooth="yes"/>
      <point x="423" y="406"/>
      <point x="448" y="403"/>
      <point x="467" y="398" type="curve"/>
    </contour>
    <contour>
      <point x="45" y="0" type="line"/>
      <point x="361" y="0" type="line"/>
      <point x="361" y="53" type="line"/>
      <point x="347" y="53" type="line" smooth="yes"/>
      <point x="317" y="53"/>
      <point x="261" y="56"/>
      <point x="261" y="81" type="curve" smooth="yes"/>
      <point x="261" y="367" type="line"/>
      <point x="250" y="356" type="line"/>
      <point x="250" y="509" type="line"/>
      <point x="45" y="509" type="line"/>
      <point x="45" y="456" type="line"/>
      <point x="56" y="454" type="line" smooth="yes"/>
      <point x="97" y="446"/>
      <point x="117" y="440"/>
      <point x="117" y="415" type="curve" smooth="yes"/>
      <point x="117" y="86" type="line" smooth="yes"/>
      <point x="117" y="60"/>
      <point x="87" y="53"/>
      <point x="46" y="53" type="curve" smooth="yes"/>
      <point x="45" y="53" type="line"/>
    </contour>
    <contour>
      <point x="253" y="545" type="move" name="top"/>
    </contour>
    <contour>
      <point x="191" y="0" type="move" name="bottom"/>
    </contour>
  </outline>
</glyph>
<glyph name="s" format="1">
  <advance width="573"/>
  <unicode hex="0073"/>
  <outline>
    <contour>
      <point x="411" y="126" type="curve" smooth="yes"/>
      <point x="411" y="79"/>
      <point x="364" y="55"/>
      <point x="285" y="55" type="curve" smooth="yes"/>
      <point x="215" y="55"/>
      <point x="158" y="68"/>
      <point x="119" y="105" type="curve"/>
      <point x="100" y="89"/>
      <point x="103" y="61"/>
      <point x="153" y="37" type="curve"/>
      <point x="153" y="158" type="line"/>
      <point x="37" y="158" type="line"/>
      <point x="37" y="44" type="line"/>
      <point x="86" y="17"/>
      <point x="169" y="-10"/>
      <point x="285" y="-10" type="curve" smooth="yes"/>
      <point x="448" y="-10"/>
      <point x="541" y="56"/>
      <point x="541" y="152" type="curve" smooth="yes"/>
      <point x="541" y="250"/>
      <point x="459" y="280"/>
      <point x="343" y="305" type="curve" smooth="yes"/>
      <point x="234" y="327"/>
      <point x="179" y="337"/>
      <point x="179" y="389" type="curve" smooth="yes"/>
      <point x="179" y="428"/>
      <point x="218" y="456"/>
      <point x="297" y="456" type="curve" smooth="yes"/>
      <point x="354" y="456"/>
      <point x="401" y="442"/>
      <point x="428" y="412" type="curve"/>
      <point x="438" y="437"/>
      <point x="434" y="460"/>
      <point x="392" y="458" type="curve"/>
      <point x="392" y="369" type="line"/>
      <point x="507" y="369" type="line"/>
      <point x="507" y="474" type="line"/>
      <point x="480" y="492"/>
      <point x="411" y="519"/>
      <point x="296" y="519" type="curve" smooth="yes"/>
      <point x="148" y="519"/>
      <point x="56" y="462"/>
      <point x="56" y="365" type="curve" smooth="yes"/>
      <point x="56" y="268"/>
      <point x="146" y="232"/>
      <point x="262" y="207" type="curve" smooth="yes"/>
      <point x="352" y="187"/>
      <point x="411" y="176"/>
    </contour>
    <contour>
      <point x="282" y="546" type="move" name="top"/>
    </contour>
    <contour>
      <point x="285" y="0" type="move" name="bottom"/>
    </contour>
  </outline>
</glyph>
<glyph name="t" format="1">
  <advance width="446"/>
  <unicode hex="0074"/>
  <outline>
    <contour>
      <point x="242" y="160" type="curve" smooth="yes"/>
      <point x="242" y="649" type="line"/>
      <point x="106" y="649" type="line"/>
      <point x="106" y="500" type="line"/>
      <point x="98" y="492" type="line"/>
      <point x="98" y="158" type="line" smooth="yes"/>
      <point x="98" y="30"/>
      <point x="191" y="-10"/>
      <point x="311" y="-10" type="curve" smooth="yes"/>
      <point x="358" y="-10"/>
      <point x="400" y="-1"/>
      <point x="420" y="8" type="curve"/>
      <point x="420" y="74" type="line"/>
      <point x="401" y="67"/>
      <point x="371" y="61"/>
      <point x="340" y="61" type="curve" smooth="yes"/>
      <point x="276" y="61"/>
      <point x="242" y="88"/>
    </contour>
    <contour>
      <point x="106" y="552" type="line"/>
      <point x="106" y="513"/>
      <point x="68" y="504"/>
      <point x="6" y="504" type="curve" smooth="yes"/>
      <point x="1" y="504" type="line"/>
      <point x="1" y="446" type="line"/>
      <point x="140" y="446" type="line"/>
    </contour>
    <contour>
      <point x="197" y="446" type="line"/>
      <point x="409" y="446" type="line"/>
      <point x="409" y="509" type="line"/>
      <point x="197" y="509" type="line"/>
    </contour>
    <contour>
      <point x="174" y="675" type="move" name="top"/>
    </contour>
    <contour>
      <point x="332" y="681" type="move" name="right"/>
    </contour>
    <contour>
      <point x="276" y="0" type="move" name="bottom"/>
    </contour>
  </outline>
</glyph>
<glyph name="u" format="1">
  <advance width="731"/>
  <unicode hex="0075"/>
  <outline>
    <contour>
      <point x="246" y="509" type="line"/>
      <point x="28" y="509" type="line"/>
      <point x="28" y="456" type="line"/>
      <point x="40" y="454" type="line" smooth="yes"/>
      <point x="82" y="447"/>
      <point x="102" y="440"/>
      <point x="102" y="415" type="curve" smooth="yes"/>
      <point x="102" y="170" type="line" smooth="yes"/>
      <point x="102" y="44"/>
      <point x="175" y="-10"/>
      <point x="293" y="-10" type="curve" smooth="yes"/>
      <point x="380" y="-10"/>
      <point x="456" y="28"/>
      <point x="507" y="102" type="curve"/>
      <point x="507" y="184" type="line"/>
      <point x="459" y="106"/>
      <point x="401" y="68"/>
      <point x="338" y="68" type="curve" smooth="yes"/>
      <point x="266" y="68"/>
      <point x="246" y="102"/>
      <point x="246" y="177" type="curve" smooth="yes"/>
    </contour>
    <contour>
      <point x="630" y="509" type="line"/>
      <point x="398" y="509" type="line"/>
      <point x="398" y="456" type="line"/>
      <point x="416" y="453" type="line"/>
      <point x="463" y="446"/>
      <point x="486" y="440"/>
      <point x="486" y="414" type="curve" smooth="yes"/>
      <point x="486" y="114" type="line"/>
      <point x="497" y="109" type="line"/>
      <point x="497" y="0" type="line"/>
      <point x="704" y="0" type="line"/>
      <point x="704" y="54" type="line"/>
      <point x="700" y="54" type="line" smooth="yes"/>
      <point x="652" y="56"/>
      <point x="630" y="62"/>
      <point x="630" y="87" type="curve" smooth="yes"/>
    </contour>
    <contour>
      <point x="334" y="551" type="move" name="top"/>
    </contour>
    <contour>
      <point x="525" y="0" type="move" name="right"/>
    </contour>
    <contour>
      <point x="332" y="0" type="move" name="bottom"/>
    </contour>
  </outline>
</glyph>
<glyph name="v" format="1">
  <advance width="666"/>
  <unicode hex="0076"/>
  <outline>
    <contour>
      <point x="516" y="436" type="curve"/>
      <point x="364" y="73" type="line"/>
      <point x="377" y="64" type="line"/>
      <point x="216" y="448" type="line"/>
      <point x="216" y="455"/>
      <point x="260" y="457"/>
      <point x="302" y="457" type="curve" smooth="yes"/>
      <point x="305" y="457" type="line"/>
      <point x="305" y="509" type="line"/>
      <point x="8" y="509" type="line"/>
      <point x="8" y="457" type="line"/>
      <point x="10" y="457" type="line" smooth="yes"/>
      <point x="47" y="457"/>
      <point x="67" y="449"/>
      <point x="79" y="423" type="curve" smooth="yes"/>
      <point x="263" y="0" type="line"/>
      <point x="409" y="0" type="line"/>
      <point x="587" y="415" type="line" smooth="yes"/>
      <point x="602" y="448"/>
      <point x="626" y="457"/>
      <point x="656" y="457" type="curve" smooth="yes"/>
      <point x="658" y="457" type="line"/>
      <point x="658" y="509" type="line"/>
      <point x="432" y="509" type="line"/>
      <point x="432" y="457" type="line"/>
      <point x="434" y="457" type="line" smooth="yes"/>
      <point x="474" y="457"/>
      <point x="514" y="448"/>
    </contour>
  </outline>
</glyph>
<glyph name="w" format="1">
  <advance width="967"/>
  <unicode hex="0077"/>
  <outline>
    <contour>
      <point x="489" y="390" type="line"/>
      <point x="363" y="0" type="line"/>
      <point x="220" y="0" type="line"/>
      <point x="75" y="426" type="line" smooth="yes"/>
      <point x="67" y="451"/>
      <point x="41" y="457"/>
      <point x="10" y="457" type="curve"/>
      <point x="9" y="457" type="line"/>
      <point x="9" y="509" type="line"/>
      <point x="299" y="509" type="line"/>
      <point x="299" y="457" type="line"/>
      <point x="297" y="457" type="line" smooth="yes"/>
      <point x="255" y="457"/>
      <point x="214" y="455"/>
      <point x="214" y="448" type="curve"/>
      <point x="333" y="76" type="line"/>
      <point x="311" y="59" type="line"/>
      <point x="455" y="509" type="line"/>
      <point x="573" y="509" type="line"/>
      <point x="716" y="77" type="line"/>
      <point x="695" y="61" type="line"/>
      <point x="815" y="436" type="line"/>
      <point x="813" y="449"/>
      <point x="778" y="457"/>
      <point x="733" y="457" type="curve" smooth="yes"/>
      <point x="731" y="457" type="line"/>
      <point x="731" y="509" type="line"/>
      <point x="959" y="509" type="line"/>
      <point x="959" y="457" type="line" smooth="yes"/>
      <point x="957" y="457" type="line" smooth="yes"/>
      <point x="928" y="457"/>
      <point x="898" y="445"/>
      <point x="888" y="415" type="curve" smooth="yes"/>
      <point x="751" y="0" type="line"/>
      <point x="607" y="0" type="line"/>
      <point x="477" y="393" type="line"/>
    </contour>
    <contour>
      <point x="484" y="551" type="move" name="top"/>
    </contour>
  </outline>
</glyph>
<glyph name="x" format="1">
  <advance width="660"/>
  <unicode hex="0078"/>
  <outline>
    <contour>
      <point x="652" y="0" type="line"/>
      <point x="652" y="52" type="line"/>
      <point x="651" y="52" type="line"/>
      <point x="612" y="52"/>
      <point x="598" y="62"/>
      <point x="576" y="86" type="curve" smooth="yes"/>
      <point x="401" y="278" type="line"/>
      <point x="395" y="282" type="line"/>
      <point x="242" y="449" type="line"/>
      <point x="242" y="455"/>
      <point x="283" y="457"/>
      <point x="319" y="457" type="curve" smooth="yes"/>
      <point x="322" y="457" type="line"/>
      <point x="322" y="509" type="line"/>
      <point x="25" y="509" type="line"/>
      <point x="25" y="456" type="line"/>
      <point x="25" y="456" type="line"/>
      <point x="61" y="456"/>
      <point x="76" y="450"/>
      <point x="94" y="430" type="curve" smooth="yes"/>
      <point x="270" y="236" type="line"/>
      <point x="276" y="233" type="line"/>
      <point x="433" y="62" type="line"/>
      <point x="433" y="54"/>
      <point x="390" y="52"/>
      <point x="353" y="52" type="curve" smooth="yes"/>
      <point x="350" y="52" type="line"/>
      <point x="350" y="0" type="line"/>
    </contour>
    <contour>
      <point x="14" y="0" type="line"/>
      <point x="242" y="0" type="line"/>
      <point x="242" y="52" type="line"/>
      <point x="241" y="52" type="line" smooth="yes"/>
      <point x="206" y="52"/>
      <point x="168" y="60"/>
      <point x="168" y="72" type="curve"/>
      <point x="325" y="236" type="line"/>
      <point x="270" y="270" type="line"/>
      <point x="94" y="90" type="line" smooth="yes"/>
      <point x="69" y="65"/>
      <point x="43" y="52"/>
      <point x="15" y="52" type="curve"/>
      <point x="14" y="52" type="line"/>
    </contour>
    <contour>
      <point x="394" y="246" type="line"/>
      <point x="553" y="412" type="line" smooth="yes"/>
      <point x="584" y="444"/>
      <point x="605" y="457"/>
      <point x="639" y="457" type="curve" smooth="yes"/>
      <point x="640" y="457" type="line"/>
      <point x="640" y="509" type="line"/>
      <point x="414" y="509" type="line"/>
      <point x="414" y="457" type="line"/>
      <point x="418" y="457" type="line" smooth="yes"/>
      <point x="449" y="457"/>
      <point x="488" y="449"/>
      <point x="488" y="437" type="curve"/>
      <point x="342" y="283" type="line"/>
    </contour>
  </outline>
</glyph>
<glyph name="y" format="1">
  <advance width="677"/>
  <unicode hex="0079"/>
  <outline>
    <contour>
      <point x="309" y="-30" type="line"/>
      <point x="362" y="10" type="line"/>
      <point x="399" y="80" type="line"/>
      <point x="218" y="448" type="line"/>
      <point x="218" y="455"/>
      <point x="263" y="457"/>
      <point x="302" y="457" type="curve" smooth="yes"/>
      <point x="304" y="457" type="line"/>
      <point x="304" y="509" type="line"/>
      <point x="9" y="509" type="line"/>
      <point x="9" y="457" type="line"/>
      <point x="10" y="457" type="line"/>
      <point x="48" y="457"/>
      <point x="67" y="449"/>
      <point x="81" y="422" type="curve" smooth="yes"/>
    </contour>
    <contour>
      <point x="131" y="-233" type="curve" smooth="yes"/>
      <point x="248" y="-233"/>
      <point x="311" y="-167"/>
      <point x="365" y="-59" type="curve" smooth="yes"/>
      <point x="598" y="412" type="line" smooth="yes"/>
      <point x="615" y="447"/>
      <point x="637" y="457"/>
      <point x="668" y="457" type="curve"/>
      <point x="669" y="457" type="line"/>
      <point x="669" y="509" type="line"/>
      <point x="442" y="509" type="line"/>
      <point x="442" y="457" type="line"/>
      <point x="445" y="457" type="line" smooth="yes"/>
      <point x="484" y="457"/>
      <point x="527" y="448"/>
      <point x="527" y="435" type="curve"/>
      <point x="353" y="70" type="line"/>
      <point x="303" y="-20" type="line"/>
      <point x="258" y="-107"/>
      <point x="217" y="-133"/>
      <point x="141" y="-133" type="curve" smooth="yes"/>
      <point x="94" y="-133"/>
      <point x="56" y="-114"/>
      <point x="49" y="-112" type="curve"/>
      <point x="49" y="-214" type="line"/>
      <point x="64" y="-223"/>
      <point x="94" y="-233"/>
    </contour>
    <contour>
      <point x="340" y="551" type="move" name="top"/>
    </contour>
    <contour>
      <point x="351" y="-211" type="move" name="bottom"/>
    </contour>
  </outline>
</glyph>
<glyph name="z" format="1">
  <advance width="575"/>
  <unicode hex="007A"/>
  <outline>
    <contour>
      <point x="172" y="43" type="line"/>
      <point x="537" y="440" type="line"/>
      <point x="537" y="509" type="line"/>
      <point x="51" y="509" type="line"/>
      <point x="51" y="347" type="line"/>
      <point x="118" y="347" type="line"/>
      <point x="127" y="405" type="line" smooth="yes"/>
      <point x="132" y="441"/>
      <point x="167" y="448"/>
      <point x="259" y="448" type="curve" smooth="yes"/>
      <point x="440" y="448" type="line"/>
      <point x="400" y="467" type="line"/>
      <point x="37" y="74" type="line"/>
      <point x="37" y="0" type="line"/>
      <point x="551" y="0" type="line"/>
      <point x="551" y="181" type="line"/>
      <point x="482" y="181" type="line"/>
      <point x="472" y="108" type="line" smooth="yes"/>
      <point x="466" y="70"/>
      <point x="430" y="63"/>
      <point x="340" y="63" type="curve" smooth="yes"/>
      <point x="155" y="63" type="line"/>
    </contour>
    <contour>
      <point x="283" y="551" type="move" name="top"/>
    </contour>
    <contour>
      <point x="305" y="0" type="move" name="bottom"/>
    </contour>
  </outline>
</glyph>
<glyph name="braceleft" format="1">
  <advance width="397"/>
  <unicode hex="007B"/>
  <outline>
    <contour>
      <point x="293" y="226" type="curve" smooth="yes"/>
      <point x="293" y="265"/>
      <point x="273" y="286"/>
      <point x="142" y="302" type="curve"/>
      <point x="142" y="306" type="line"/>
      <point x="273" y="322"/>
      <point x="293" y="344"/>
      <point x="293" y="382" type="curve" smooth="yes"/>
      <point x="293" y="426"/>
      <point x="203" y="529"/>
      <point x="203" y="598" type="curve" smooth="yes"/>
      <point x="203" y="668"/>
      <point x="255" y="693"/>
      <point x="371" y="692" type="curve"/>
      <point x="354" y="749" type="line"/>
      <point x="197" y="757"/>
      <point x="74" y="722"/>
      <point x="74" y="607" type="curve" smooth="yes"/>
      <point x="74" y="521"/>
      <point x="157" y="433"/>
      <point x="208" y="354" type="curve"/>
      <point x="219" y="376" type="line"/>
      <point x="50" y="329" type="line"/>
      <point x="50" y="279" type="line"/>
      <point x="219" y="232" type="line"/>
      <point x="208" y="254" type="line"/>
      <point x="157" y="176"/>
      <point x="74" y="87"/>
      <point x="74" y="1" type="curve" smooth="yes"/>
      <point x="74" y="-115"/>
      <point x="197" y="-149"/>
      <point x="354" y="-141" type="curve"/>
      <point x="371" y="-84" type="line"/>
      <point x="255" y="-85"/>
      <point x="203" y="-60"/>
      <point x="203" y="10" type="curve" smooth="yes"/>
      <point x="203" y="79"/>
      <point x="293" y="182"/>
    </contour>
  </outline>
</glyph>
<glyph name="bar" format="1">
  <advance width="336"/>
  <unicode hex="007C"/>
  <outline>
    <contour>
      <point x="116" y="755" type="line"/>
      <point x="116" y="-138" type="line"/>
      <point x="220" y="-138" type="line"/>
      <point x="220" y="755" type="line"/>
    </contour>
  </outline>
</glyph>
<glyph name="asciitilde" format="1">
  <advance width="631"/>
  <unicode hex="007E"/>
  <outline>
    <contour>
      <point x="409" y="267" type="curve" smooth="yes"/>
      <point x="500" y="267"/>
      <point x="545" y="324"/>
      <point x="572" y="414" type="curve"/>
      <point x="498" y="434" type="line"/>
      <point x="483" y="399"/>
      <point x="467" y="369"/>
      <point x="419" y="369" type="curve" smooth="yes"/>
      <point x="351" y="369"/>
      <point x="311" y="426"/>
      <point x="215" y="426" type="curve" smooth="yes"/>
      <point x="124" y="426"/>
      <point x="80" y="373"/>
      <point x="59" y="280" type="curve"/>
      <point x="134" y="261" type="line"/>
      <point x="147" y="297"/>
      <point x="160" y="325"/>
      <point x="207" y="325" type="curve" smooth="yes"/>
      <point x="270" y="325"/>
      <point x="318" y="267"/>
    </contour>
  </outline>
</glyph>
<glyph name="cent" format="1">
  <advance width="660"/>
  <unicode hex="00A2"/>
  <outline>
    <contour>
      <point x="319" y="623" type="line"/>
      <point x="319" y="482" type="line"/>
      <point x="326" y="469" type="line"/>
      <point x="326" y="36" type="line"/>
      <point x="319" y="19" type="line"/>
      <point x="319" y="-126" type="line"/>
      <point x="402" y="-126" type="line"/>
      <point x="402" y="22" type="line"/>
      <point x="395" y="36" type="line"/>
      <point x="395" y="472" type="line"/>
      <point x="402" y="490" type="line"/>
      <point x="402" y="623" type="line"/>
    </contour>
    <contour>
      <point x="377" y="56" type="curve" smooth="yes"/>
      <point x="260" y="56"/>
      <point x="181" y="127"/>
      <point x="181" y="250" type="curve" smooth="yes"/>
      <point x="181" y="377"/>
      <point x="245" y="454"/>
      <point x="370" y="454" type="curve" smooth="yes"/>
      <point x="454" y="454"/>
      <point x="508" y="419"/>
      <point x="532" y="391" type="curve"/>
      <point x="553" y="403"/>
      <point x="547" y="439"/>
      <point x="497" y="445" type="curve"/>
      <point x="497" y="328" type="line"/>
      <point x="609" y="328" type="line"/>
      <point x="609" y="452" type="line"/>
      <point x="579" y="474"/>
      <point x="497" y="519"/>
      <point x="366" y="519" type="curve" smooth="yes"/>
      <point x="172" y="519"/>
      <point x="43" y="409"/>
      <point x="43" y="250" type="curve" smooth="yes"/>
      <point x="43" y="94"/>
      <point x="183" y="-11"/>
      <point x="364" y="-11" type="curve" smooth="yes"/>
      <point x="497" y="-11"/>
      <point x="571" y="46"/>
      <point x="619" y="118" type="curve"/>
      <point x="558" y="161" type="line"/>
      <point x="524" y="115"/>
      <point x="476" y="56"/>
    </contour>
  </outline>
</glyph>
<glyph name="sterling" format="1">
  <advance width="660"/>
  <unicode hex="00A3"/>
  <outline>
    <contour>
      <point x="41" y="375" type="line"/>
      <point x="41" y="306" type="line"/>
      <point x="500" y="306" type="line"/>
      <point x="500" y="375" type="line"/>
    </contour>
    <contour>
      <point x="34" y="-13" type="line"/>
      <point x="218" y="23"/>
      <point x="314" y="123"/>
      <point x="314" y="244" type="curve" smooth="yes"/>
      <point x="314" y="360"/>
      <point x="238" y="425"/>
      <point x="238" y="528" type="curve" smooth="yes"/>
      <point x="238" y="606"/>
      <point x="293" y="649"/>
      <point x="373" y="649" type="curve" smooth="yes"/>
      <point x="437" y="649"/>
      <point x="476" y="627"/>
      <point x="504" y="601" type="curve"/>
      <point x="513" y="617"/>
      <point x="501" y="643"/>
      <point x="467" y="644" type="curve"/>
      <point x="467" y="538" type="line"/>
      <point x="589" y="538" type="line"/>
      <point x="589" y="662" type="line"/>
      <point x="558" y="686"/>
      <point x="487" y="719"/>
      <point x="368" y="719" type="curve" smooth="yes"/>
      <point x="200" y="719"/>
      <point x="95" y="638"/>
      <point x="95" y="520" type="curve" smooth="yes"/>
      <point x="95" y="405"/>
      <point x="195" y="338"/>
      <point x="195" y="225" type="curve" smooth="yes"/>
      <point x="195" y="149"/>
      <point x="146" y="103"/>
      <point x="34" y="71" type="curve"/>
    </contour>
    <contour>
      <point x="447" y="-10" type="curve" smooth="yes"/>
      <point x="557" y="-10"/>
      <point x="615" y="81"/>
      <point x="639" y="182" type="curve"/>
      <point x="564" y="203" type="line"/>
      <point x="541" y="130"/>
      <point x="511" y="99"/>
      <point x="451" y="99" type="curve" smooth="yes"/>
      <point x="385" y="99"/>
      <point x="326" y="126"/>
      <point x="246" y="188" type="curve"/>
      <point x="223" y="178"/>
      <point x="199" y="144"/>
      <point x="195" y="125" type="curve"/>
      <point x="305" y="37"/>
      <point x="356" y="-10"/>
    </contour>
  </outline>
</glyph>
<glyph name="currency" format="1">
  <advance width="660"/>
  <unicode hex="00A4"/>
  <outline>
    <contour>
      <point x="468" y="373" type="curve" smooth="yes"/>
      <point x="468" y="301"/>
      <point x="414" y="255"/>
      <point x="330" y="255" type="curve" smooth="yes"/>
      <point x="246" y="255"/>
      <point x="192" y="302"/>
      <point x="192" y="373" type="curve" smooth="yes"/>
      <point x="192" y="445"/>
      <point x="246" y="492"/>
      <point x="330" y="492" type="curve" smooth="yes"/>
      <point x="414" y="492"/>
      <point x="468" y="445"/>
    </contour>
    <contour>
      <point x="82" y="373" type="curve" smooth="yes"/>
      <point x="82" y="252"/>
      <point x="192" y="165"/>
      <point x="330" y="165" type="curve" smooth="yes"/>
      <point x="468" y="165"/>
      <point x="579" y="252"/>
      <point x="579" y="373" type="curve" smooth="yes"/>
      <point x="579" y="495"/>
      <point x="468" y="582"/>
      <point x="330" y="582" type="curve" smooth="yes"/>
      <point x="192" y="582"/>
      <point x="82" y="495"/>
    </contour>
    <contour>
      <point x="24" y="578" type="line"/>
      <point x="147" y="474" type="line"/>
      <point x="225" y="529" type="line"/>
      <point x="94" y="640" type="line"/>
    </contour>
    <contour>
      <point x="637" y="578" type="line"/>
      <point x="567" y="640" type="line"/>
      <point x="435" y="529" type="line"/>
      <point x="513" y="474" type="line"/>
    </contour>
    <contour>
      <point x="24" y="168" type="line"/>
      <point x="94" y="106" type="line"/>
      <point x="225" y="218" type="line"/>
      <point x="147" y="273" type="line"/>
    </contour>
    <contour>
      <point x="637" y="168" type="line"/>
      <point x="513" y="273" type="line"/>
      <point x="435" y="218" type="line"/>
      <point x="567" y="106" type="line"/>
    </contour>
  </outline>
</glyph>
<glyph name="yen" format="1">
  <advance width="660"/>
  <unicode hex="00A5"/>
  <outline>
    <contour>
      <point x="73" y="360" type="line"/>
      <point x="73" y="296" type="line"/>
      <point x="591" y="296" type="line"/>
      <point x="591" y="360" type="line"/>
    </contour>
    <contour>
      <point x="73" y="229" type="line"/>
      <point x="73" y="166" type="line"/>
      <point x="591" y="166" type="line"/>
      <point x="591" y="229" type="line"/>
    </contour>
    <contour>
      <point x="8" y="710" type="line"/>
      <point x="8" y="654" type="line"/>
      <point x="13" y="654" type="line" smooth="yes"/>
      <point x="45" y="654"/>
      <point x="68" y="653"/>
      <point x="84" y="628" type="curve" smooth="yes"/>
      <point x="281" y="322" type="line"/>
      <point x="385" y="321" type="line"/>
      <point x="567" y="613" type="line" smooth="yes"/>
      <point x="588" y="650"/>
      <point x="615" y="654"/>
      <point x="647" y="654" type="curve" smooth="yes"/>
      <point x="652" y="654" type="line"/>
      <point x="652" y="710" type="line"/>
      <point x="409" y="710" type="line"/>
      <point x="409" y="654" type="line"/>
      <point x="423" y="654" type="line" smooth="yes"/>
      <point x="458" y="654"/>
      <point x="499" y="647"/>
      <point x="499" y="636" type="curve"/>
      <point x="337" y="368" type="line"/>
      <point x="393" y="373" type="line"/>
      <point x="221" y="644" type="line"/>
      <point x="221" y="651"/>
      <point x="262" y="654"/>
      <point x="295" y="654" type="curve" smooth="yes"/>
      <point x="312" y="654" type="line"/>
      <point x="312" y="710" type="line"/>
    </contour>
    <contour>
      <point x="151" y="0" type="line"/>
      <point x="512" y="0" type="line"/>
      <point x="512" y="56" type="line"/>
      <point x="493" y="56" type="line" smooth="yes"/>
      <point x="443" y="56"/>
      <point x="406" y="63"/>
      <point x="406" y="92" type="curve" smooth="yes"/>
      <point x="406" y="367" type="line"/>
      <point x="258" y="367" type="line"/>
      <point x="258" y="92" type="line" smooth="yes"/>
      <point x="258" y="63"/>
      <point x="221" y="56"/>
      <point x="171" y="56" type="curve" smooth="yes"/>
      <point x="151" y="56" type="line"/>
    </contour>
  </outline>
</glyph>
<glyph name="brokenbar" format="1">
  <advance width="336"/>
  <unicode hex="00A6"/>
  <outline>
    <contour>
      <point x="116" y="755" type="line"/>
      <point x="116" y="375" type="line"/>
      <point x="220" y="375" type="line"/>
      <point x="220" y="755" type="line"/>
    </contour>
    <contour>
      <point x="116" y="242" type="line"/>
      <point x="116" y="-138" type="line"/>
      <point x="220" y="-138" type="line"/>
      <point x="220" y="242" type="line"/>
    </contour>
  </outline>
</glyph>
<glyph name="section" format="1">
  <advance width="761"/>
  <unicode hex="00A7"/>
  <outline>
    <contour>
      <point x="355" y="421" type="line"/>
      <point x="175" y="427"/>
      <point x="49" y="377"/>
      <point x="49" y="267" type="curve" smooth="yes"/>
      <point x="49" y="159"/>
      <point x="172" y="112"/>
      <point x="293" y="67" type="curve" smooth="yes"/>
      <point x="404" y="26"/>
      <point x="504" y="2"/>
      <point x="504" y="-78" type="curve" smooth="yes"/>
      <point x="504" y="-134"/>
      <point x="452" y="-168"/>
      <point x="359" y="-168" type="curve" smooth="yes"/>
      <point x="271" y="-168"/>
      <point x="214" y="-142"/>
      <point x="171" y="-88" type="curve"/>
      <point x="162" y="-90"/>
      <point x="186" y="-140"/>
      <point x="223" y="-162" type="curve"/>
      <point x="223" y="-37" type="line"/>
      <point x="88" y="-37" type="line"/>
      <point x="88" y="-160" type="line"/>
      <point x="140" y="-202"/>
      <point x="233" y="-236"/>
      <point x="363" y="-236" type="curve" smooth="yes"/>
      <point x="517" y="-236"/>
      <point x="632" y="-165"/>
      <point x="632" y="-52" type="curve" smooth="yes"/>
      <point x="632" y="61"/>
      <point x="512" y="116"/>
      <point x="388" y="161" type="curve" smooth="yes"/>
      <point x="278" y="202"/>
      <point x="177" y="228"/>
      <point x="177" y="293" type="curve" smooth="yes"/>
      <point x="177" y="354"/>
      <point x="255" y="379"/>
      <point x="373" y="389" type="curve"/>
    </contour>
    <contour>
      <point x="459" y="67" type="line"/>
      <point x="619" y="87"/>
      <point x="708" y="137"/>
      <point x="708" y="238" type="curve" smooth="yes"/>
      <point x="708" y="348"/>
      <point x="584" y="389"/>
      <point x="457" y="435" type="curve" smooth="yes"/>
      <point x="352" y="474"/>
      <point x="254" y="499"/>
      <point x="254" y="569" type="curve" smooth="yes"/>
      <point x="254" y="617"/>
      <point x="303" y="653"/>
      <point x="397" y="653" type="curve" smooth="yes"/>
      <point x="474" y="653"/>
      <point x="525" y="623"/>
      <point x="553" y="580" type="curve"/>
      <point x="565" y="609"/>
      <point x="533" y="637"/>
      <point x="503" y="639" type="curve"/>
      <point x="503" y="543" type="line"/>
      <point x="630" y="543" type="line"/>
      <point x="630" y="651" type="line"/>
      <point x="598" y="683"/>
      <point x="513" y="720"/>
      <point x="396" y="720" type="curve" smooth="yes"/>
      <point x="238" y="720"/>
      <point x="127" y="654"/>
      <point x="127" y="552" type="curve" smooth="yes"/>
      <point x="127" y="439"/>
      <point x="246" y="385"/>
      <point x="362" y="341" type="curve" smooth="yes"/>
      <point x="477" y="300"/>
      <point x="582" y="270"/>
      <point x="582" y="208" type="curve" smooth="yes"/>
      <point x="582" y="158"/>
      <point x="529" y="135"/>
      <point x="445" y="114" type="curve"/>
    </contour>
  </outline>
</glyph>
<glyph name="dieresis" format="1">
  <advance width="590"/>
  <unicode hex="00A8"/>
  <outline>
    <contour>
      <point x="161" y="593" type="curve" smooth="yes"/>
      <point x="212" y="593"/>
      <point x="247" y="619"/>
      <point x="247" y="663" type="curve" smooth="yes"/>
      <point x="247" y="706"/>
      <point x="212" y="732"/>
      <point x="161" y="732" type="curve" smooth="yes"/>
      <point x="111" y="732"/>
      <point x="77" y="706"/>
      <point x="77" y="663" type="curve" smooth="yes"/>
      <point x="77" y="619"/>
      <point x="111" y="593"/>
    </contour>
    <contour>
      <point x="428" y="593" type="curve" smooth="yes"/>
      <point x="479" y="593"/>
      <point x="513" y="619"/>
      <point x="513" y="663" type="curve" smooth="yes"/>
      <point x="513" y="706"/>
      <point x="479" y="732"/>
      <point x="428" y="732" type="curve" smooth="yes"/>
      <point x="378" y="732"/>
      <point x="343" y="706"/>
      <point x="343" y="663" type="curve" smooth="yes"/>
      <point x="343" y="619"/>
      <point x="378" y="593"/>
    </contour>
    <contour>
      <point x="295" y="526" type="move" name="_top"/>
    </contour>
  </outline>
</glyph>
<glyph name="copyright" format="1">
  <advance width="997"/>
  <unicode hex="00A9"/>
  <outline>
    <contour>
      <point x="506" y="510" type="curve" smooth="yes"/>
      <point x="576" y="510"/>
      <point x="620" y="470"/>
      <point x="639" y="412" type="curve"/>
      <point x="702" y="412" type="line"/>
      <point x="702" y="552" type="line"/>
      <point x="648" y="552" type="line"/>
      <point x="638" y="450" type="line"/>
      <point x="642" y="445"/>
      <point x="660" y="441"/>
      <point x="674" y="432" type="curve"/>
      <point x="657" y="519"/>
      <point x="584" y="563"/>
      <point x="494" y="563" type="curve" smooth="yes"/>
      <point x="361" y="563"/>
      <point x="255" y="476"/>
      <point x="255" y="354" type="curve" smooth="yes"/>
      <point x="255" y="231"/>
      <point x="360" y="148"/>
      <point x="501" y="148" type="curve" smooth="yes"/>
      <point x="613" y="148"/>
      <point x="693" y="213"/>
      <point x="715" y="293" type="curve"/>
      <point x="663" y="312" type="line"/>
      <point x="644" y="252"/>
      <point x="595" y="200"/>
      <point x="513" y="200" type="curve" smooth="yes"/>
      <point x="422" y="200"/>
      <point x="367" y="261"/>
      <point x="367" y="354" type="curve" smooth="yes"/>
      <point x="367" y="454"/>
      <point x="426" y="510"/>
    </contour>
    <contour>
      <point x="122" y="355" type="curve" smooth="yes"/>
      <point x="122" y="538"/>
      <point x="279" y="682"/>
      <point x="498" y="682" type="curve" smooth="yes"/>
      <point x="717" y="682"/>
      <point x="875" y="538"/>
      <point x="875" y="355" type="curve" smooth="yes"/>
      <point x="875" y="172"/>
      <point x="717" y="28"/>
      <point x="498" y="28" type="curve" smooth="yes"/>
      <point x="279" y="28"/>
      <point x="122" y="172"/>
    </contour>
    <contour>
      <point x="44" y="355" type="curve" smooth="yes"/>
      <point x="44" y="137"/>
      <point x="240" y="-31"/>
      <point x="498" y="-31" type="curve" smooth="yes"/>
      <point x="757" y="-31"/>
      <point x="952" y="137"/>
      <point x="952" y="355" type="curve" smooth="yes"/>
      <point x="952" y="573"/>
      <point x="757" y="741"/>
      <point x="498" y="741" type="curve" smooth="yes"/>
      <point x="240" y="741"/>
      <point x="44" y="573"/>
    </contour>
  </outline>
</glyph>
<glyph name="ordfeminine" format="1">
  <advance width="574"/>
  <unicode hex="00AA"/>
  <outline>
    <contour>
      <point x="364" y="561" type="line"/>
      <point x="153" y="542"/>
      <point x="50" y="507"/>
      <point x="50" y="420" type="curve" smooth="yes"/>
      <point x="50" y="350"/>
      <point x="111" y="311"/>
      <point x="204" y="311" type="curve" smooth="yes"/>
      <point x="287" y="311"/>
      <point x="340" y="349"/>
      <point x="368" y="409" type="curve"/>
      <point x="408" y="455"/>
      <point x="355" y="443"/>
      <point x="350" y="443" type="curve"/>
      <point x="329" y="401"/>
      <point x="296" y="368"/>
      <point x="247" y="368" type="curve" smooth="yes"/>
      <point x="206" y="368"/>
      <point x="179" y="389"/>
      <point x="179" y="424" type="curve" smooth="yes"/>
      <point x="179" y="474"/>
      <point x="231" y="506"/>
      <point x="363" y="514" type="curve"/>
    </contour>
    <contour>
      <point x="352" y="320" type="line"/>
      <point x="532" y="320" type="line"/>
      <point x="532" y="367" type="line"/>
      <point x="530" y="367" type="line"/>
      <point x="495" y="369"/>
      <point x="469" y="372"/>
      <point x="469" y="394" type="curve" smooth="yes"/>
      <point x="469" y="590" type="line" smooth="yes"/>
      <point x="469" y="685"/>
      <point x="378" y="720"/>
      <point x="275" y="720" type="curve" smooth="yes"/>
      <point x="177" y="720"/>
      <point x="107" y="693"/>
      <point x="80" y="663" type="curve"/>
      <point x="80" y="598" type="line"/>
      <point x="196" y="598" type="line"/>
      <point x="196" y="665" type="line"/>
      <point x="168" y="660"/>
      <point x="142" y="643"/>
      <point x="155" y="615" type="curve"/>
      <point x="173" y="643"/>
      <point x="215" y="664"/>
      <point x="265" y="664" type="curve" smooth="yes"/>
      <point x="316" y="664"/>
      <point x="345" y="642"/>
      <point x="345" y="590" type="curve" smooth="yes"/>
      <point x="345" y="399" type="line"/>
      <point x="352" y="401" type="line"/>
    </contour>
  </outline>
</glyph>
<glyph name="logicalnot" format="1">
  <advance width="660"/>
  <unicode hex="00AC"/>
  <outline>
    <contour>
      <point x="472" y="346" type="line"/>
      <point x="472" y="150" type="line"/>
      <point x="567" y="150" type="line"/>
      <point x="567" y="382" type="line"/>
      <point x="93" y="382" type="line"/>
      <point x="93" y="302" type="line"/>
      <point x="519" y="302" type="line"/>
    </contour>
  </outline>
</glyph>
<glyph name="registered" format="1">
  <advance width="997"/>
  <unicode hex="00AE"/>
  <outline>
    <contour>
      <point x="122" y="355" type="curve" smooth="yes"/>
      <point x="122" y="538"/>
      <point x="279" y="682"/>
      <point x="498" y="682" type="curve" smooth="yes"/>
      <point x="717" y="682"/>
      <point x="875" y="538"/>
      <point x="875" y="355" type="curve" smooth="yes"/>
      <point x="875" y="172"/>
      <point x="717" y="28"/>
      <point x="498" y="28" type="curve" smooth="yes"/>
      <point x="279" y="28"/>
      <point x="122" y="172"/>
    </contour>
    <contour>
      <point x="44" y="355" type="curve" smooth="yes"/>
      <point x="44" y="137"/>
      <point x="240" y="-31"/>
      <point x="498" y="-31" type="curve" smooth="yes"/>
      <point x="757" y="-31"/>
      <point x="952" y="137"/>
      <point x="952" y="355" type="curve" smooth="yes"/>
      <point x="952" y="573"/>
      <point x="757" y="741"/>
      <point x="498" y="741" type="curve" smooth="yes"/>
      <point x="240" y="741"/>
      <point x="44" y="573"/>
    </contour>
    <contour>
      <point x="291" y="153" type="line"/>
      <point x="505" y="153" type="line"/>
      <point x="505" y="200" type="line"/>
      <point x="496" y="200" type="line" smooth="yes"/>
      <point x="477" y="200"/>
      <point x="453" y="201"/>
      <point x="453" y="205" type="curve" smooth="yes"/>
      <point x="453" y="310" type="line"/>
      <point x="503" y="310" type="line" smooth="yes"/>
      <point x="621" y="310"/>
      <point x="700" y="360"/>
      <point x="700" y="438" type="curve" smooth="yes"/>
      <point x="700" y="513"/>
      <point x="627" y="557"/>
      <point x="506" y="557" type="curve" smooth="yes"/>
      <point x="291" y="557" type="line"/>
      <point x="291" y="510" type="line"/>
      <point x="297" y="510" type="line" smooth="yes"/>
      <point x="326" y="510"/>
      <point x="349" y="506"/>
      <point x="349" y="490" type="curve" smooth="yes"/>
      <point x="349" y="220" type="line" smooth="yes"/>
      <point x="349" y="204"/>
      <point x="326" y="200"/>
      <point x="297" y="200" type="curve" smooth="yes"/>
      <point x="291" y="200" type="line"/>
    </contour>
    <contour>
      <point x="498" y="506" type="line" smooth="yes"/>
      <point x="561" y="506"/>
      <point x="593" y="486"/>
      <point x="593" y="435" type="curve" smooth="yes"/>
      <point x="593" y="383"/>
      <point x="561" y="357"/>
      <point x="494" y="357" type="curve" smooth="yes"/>
      <point x="453" y="357" type="line"/>
      <point x="453" y="506" type="line"/>
    </contour>
    <contour>
      <point x="495" y="335" type="line"/>
      <point x="592" y="152" type="line"/>
      <point x="727" y="152" type="line"/>
      <point x="727" y="199" type="line"/>
      <point x="713" y="199" type="line" smooth="yes"/>
      <point x="693" y="199"/>
      <point x="678" y="202"/>
      <point x="671" y="215" type="curve" smooth="yes"/>
      <point x="589" y="354" type="line"/>
    </contour>
  </outline>
</glyph>
<glyph name="macron" format="1">
  <advance width="590"/>
  <unicode hex="00AF"/>
  <outline>
    <contour>
      <point x="115" y="695" type="line"/>
      <point x="115" y="615" type="line"/>
      <point x="474" y="615" type="line"/>
      <point x="474" y="695" type="line"/>
    </contour>
    <contour>
      <point x="295" y="526" type="move" name="_top"/>
    </contour>
  </outline>
</glyph>
<glyph name="degree" format="1">
  <advance width="565"/>
  <unicode hex="00B0"/>
  <outline>
    <contour>
      <point x="402" y="544" type="curve" smooth="yes"/>
      <point x="402" y="480"/>
      <point x="353" y="437"/>
      <point x="282" y="437" type="curve" smooth="yes"/>
      <point x="212" y="437"/>
      <point x="164" y="480"/>
      <point x="164" y="544" type="curve" smooth="yes"/>
      <point x="164" y="608"/>
      <point x="212" y="651"/>
      <point x="282" y="651" type="curve" smooth="yes"/>
      <point x="353" y="651"/>
      <point x="402" y="608"/>
    </contour>
    <contour>
      <point x="61" y="544" type="curve" smooth="yes"/>
      <point x="61" y="433"/>
      <point x="159" y="358"/>
      <point x="282" y="358" type="curve" smooth="yes"/>
      <point x="406" y="358"/>
      <point x="505" y="433"/>
      <point x="505" y="544" type="curve" smooth="yes"/>
      <point x="505" y="654"/>
      <point x="406" y="729"/>
      <point x="282" y="729" type="curve" smooth="yes"/>
      <point x="159" y="729"/>
      <point x="61" y="654"/>
    </contour>
  </outline>
</glyph>
<glyph name="acute" format="1">
  <advance width="590"/>
  <unicode hex="00B4"/>
  <outline>
    <contour>
      <point x="273" y="700" type="curve" smooth="yes"/>
      <point x="224" y="586" type="line"/>
      <point x="224" y="563" type="line"/>
      <point x="269" y="563" type="line"/>
      <point x="365" y="645" type="line" smooth="yes"/>
      <point x="397" y="668"/>
      <point x="414" y="693"/>
      <point x="414" y="717" type="curve" smooth="yes"/>
      <point x="414" y="744"/>
      <point x="390" y="765"/>
      <point x="353" y="765" type="curve" smooth="yes"/>
      <point x="314" y="765"/>
      <point x="289" y="743"/>
    </contour>
    <contour>
      <point x="257" y="527" type="move" name="_top"/>
    </contour>
  </outline>
</glyph>
<glyph name="paragraph" format="1">
  <advance width="735"/>
  <unicode hex="00B6"/>
  <outline>
    <contour>
      <point x="697" y="710" type="line"/>
      <point x="697" y="654" type="line"/>
      <point x="684" y="654" type="line" smooth="yes"/>
      <point x="634" y="654"/>
      <point x="596" y="647"/>
      <point x="596" y="618" type="curve" smooth="yes"/>
      <point x="596" y="0" type="line"/>
      <point x="503" y="0" type="line"/>
      <point x="503" y="710" type="line"/>
    </contour>
    <contour>
      <point x="394" y="0" type="line"/>
      <point x="300" y="0" type="line"/>
      <point x="300" y="330" type="line"/>
      <point x="295" y="330" type="line" smooth="yes"/>
      <point x="142" y="330"/>
      <point x="48" y="412"/>
      <point x="48" y="526" type="curve" smooth="yes"/>
      <point x="48" y="638"/>
      <point x="138" y="710"/>
      <point x="290" y="710" type="curve" smooth="yes"/>
      <point x="394" y="710" type="line"/>
    </contour>
    <contour>
      <point x="542" y="710" type="line"/>
      <point x="542" y="654" type="line"/>
      <point x="344" y="654" type="line"/>
      <point x="344" y="710" type="line"/>
    </contour>
  </outline>
</glyph>
<glyph name="cedilla" format="1">
  <advance width="707"/>
  <unicode hex="00B8"/>
  <outline>
    <contour>
      <point x="365" y="4" type="line"/>
      <point x="286" y="4" type="line"/>
      <point x="250" y="-96" type="line"/>
      <point x="278" y="-96" type="line" smooth="yes"/>
      <point x="341" y="-96"/>
      <point x="362" y="-115"/>
      <point x="362" y="-142" type="curve" smooth="yes"/>
      <point x="362" y="-169"/>
      <point x="341" y="-182"/>
      <point x="308" y="-182" type="curve" smooth="yes"/>
      <point x="268" y="-182"/>
      <point x="239" y="-164"/>
      <point x="215" y="-142" type="curve"/>
      <point x="172" y="-184" type="line"/>
      <point x="203" y="-216"/>
      <point x="248" y="-237"/>
      <point x="316" y="-237" type="curve" smooth="yes"/>
      <point x="397" y="-237"/>
      <point x="462" y="-208"/>
      <point x="462" y="-143" type="curve" smooth="yes"/>
      <point x="462" y="-85"/>
      <point x="398" y="-53"/>
      <point x="306" y="-57" type="curve"/>
      <point x="284" y="-78"/>
      <point x="314" y="-75"/>
      <point x="317" y="-67" type="curve"/>
    </contour>
    <contour>
      <point x="348" y="34" type="move" name="_bottom"/>
    </contour>
  </outline>
</glyph>
<glyph name="ordmasculine" format="1">
  <advance width="605"/>
  <unicode hex="00BA"/>
  <outline>
    <contour>
      <point x="303" y="310" type="curve" smooth="yes"/>
      <point x="453" y="310"/>
      <point x="555" y="392"/>
      <point x="555" y="515" type="curve" smooth="yes"/>
      <point x="555" y="637"/>
      <point x="453" y="720"/>
      <point x="303" y="720" type="curve" smooth="yes"/>
      <point x="153" y="720"/>
      <point x="51" y="637"/>
      <point x="51" y="515" type="curve" smooth="yes"/>
      <point x="51" y="392"/>
      <point x="153" y="310"/>
    </contour>
    <contour>
      <point x="303" y="370" type="curve" smooth="yes"/>
      <point x="229" y="370"/>
      <point x="181" y="425"/>
      <point x="181" y="515" type="curve" smooth="yes"/>
      <point x="181" y="602"/>
      <point x="229" y="660"/>
      <point x="303" y="660" type="curve" smooth="yes"/>
      <point x="377" y="660"/>
      <point x="425" y="602"/>
      <point x="425" y="515" type="curve" smooth="yes"/>
      <point x="425" y="425"/>
      <point x="377" y="370"/>
    </contour>
  </outline>
</glyph>
<glyph name="AE" format="1">
  <advance width="1150"/>
  <unicode hex="00C6"/>
  <outline>
    <contour>
      <point x="8" y="0" type="line"/>
      <point x="270" y="0" type="line"/>
      <point x="270" y="56" type="line"/>
      <point x="254" y="56" type="line" smooth="yes"/>
      <point x="213" y="56"/>
      <point x="167" y="63"/>
      <point x="167" y="74" type="curve"/>
      <point x="284" y="240" type="line"/>
      <point x="556" y="240" type="line"/>
      <point x="556" y="72" type="line" smooth="yes"/>
      <point x="556" y="60"/>
      <point x="507" y="56"/>
      <point x="466" y="56" type="curve" smooth="yes"/>
      <point x="455" y="56" type="line"/>
      <point x="455" y="0" type="line"/>
      <point x="1090" y="0" type="line"/>
      <point x="1090" y="222" type="line"/>
      <point x="1017" y="222" type="line"/>
      <point x="1006" y="110" type="line" smooth="yes"/>
      <point x="1002" y="74"/>
      <point x="962" y="67"/>
      <point x="864" y="67" type="curve" smooth="yes"/>
      <point x="707" y="67" type="line"/>
      <point x="707" y="332" type="line"/>
      <point x="951" y="324" type="line"/>
      <point x="951" y="402" type="line"/>
      <point x="707" y="394" type="line"/>
      <point x="707" y="643" type="line"/>
      <point x="838" y="643" type="line" smooth="yes"/>
      <point x="930" y="643"/>
      <point x="971" y="636"/>
      <point x="975" y="600" type="curve" smooth="yes"/>
      <point x="984" y="514" type="line"/>
      <point x="1056" y="514" type="line"/>
      <point x="1056" y="710" type="line"/>
      <point x="332" y="710" type="line"/>
      <point x="332" y="654" type="line"/>
      <point x="348" y="654" type="line" smooth="yes"/>
      <point x="410" y="654"/>
      <point x="460" y="647"/>
      <point x="460" y="624" type="curve"/>
      <point x="92" y="99" type="line" smooth="yes"/>
      <point x="68" y="65"/>
      <point x="52" y="56"/>
      <point x="14" y="56" type="curve" smooth="yes"/>
      <point x="8" y="56" type="line"/>
    </contour>
    <contour>
      <point x="323" y="302" type="line"/>
      <point x="556" y="640" type="line"/>
      <point x="556" y="302" type="line"/>
    </contour>
    <contour>
      <point x="726" y="741" type="move" name="top"/>
    </contour>
  </outline>
</glyph>
<glyph name="Eth" format="1">
  <advance width="918"/>
  <unicode hex="00D0"/>
  <outline>
    <contour>
      <point x="46" y="387" type="line"/>
      <point x="512" y="387" type="line"/>
      <point x="512" y="323" type="line"/>
      <point x="46" y="323" type="line"/>
    </contour>
    <component base="D" xOffset="60"/>
  </outline>
</glyph>
<glyph name="multiply" format="1">
  <advance width="660"/>
  <unicode hex="00D7"/>
  <outline>
    <contour>
      <point x="160" y="541" type="line"/>
      <point x="95" y="483" type="line"/>
      <point x="499" y="140" type="line"/>
      <point x="564" y="198" type="line"/>
    </contour>
    <contour>
      <point x="498" y="541" type="line"/>
      <point x="94" y="198" type="line"/>
      <point x="159" y="140" type="line"/>
      <point x="562" y="483" type="line"/>
    </contour>
  </outline>
</glyph>
<glyph name="Oslash" format="1">
  <advance width="934"/>
  <unicode hex="00D8"/>
  <outline>
    <contour>
      <point x="812" y="725" type="line"/>
      <point x="0" y="-15" type="line"/>
      <point x="105" y="-15" type="line"/>
      <point x="917" y="725" type="line"/>
    </contour>
    <contour>
      <point x="468" y="-10" type="curve" smooth="yes"/>
      <point x="706" y="-10"/>
      <point x="886" y="138"/>
      <point x="886" y="355" type="curve" smooth="yes"/>
      <point x="886" y="573"/>
      <point x="700" y="720"/>
      <point x="468" y="720" type="curve" smooth="yes"/>
      <point x="229" y="720"/>
      <point x="50" y="573"/>
      <point x="50" y="355" type="curve" smooth="yes"/>
      <point x="50" y="138"/>
      <point x="236" y="-10"/>
    </contour>
    <contour>
      <point x="466" y="60" type="curve" smooth="yes"/>
      <point x="302" y="60"/>
      <point x="205" y="153"/>
      <point x="205" y="355" type="curve" smooth="yes"/>
      <point x="205" y="539"/>
      <point x="313" y="650"/>
      <point x="469" y="650" type="curve" smooth="yes"/>
      <point x="633" y="650"/>
      <point x="730" y="557"/>
      <point x="730" y="355" type="curve" smooth="yes"/>
      <point x="730" y="171"/>
      <point x="621" y="60"/>
    </contour>
    <contour>
      <point x="463" y="731" type="move" name="top"/>
    </contour>
  </outline>
</glyph>
<glyph name="Thorn" format="1">
  <advance width="776"/>
  <unicode hex="00DE"/>
  <outline>
    <contour>
      <point x="409" y="710" type="line"/>
      <point x="46" y="710" type="line"/>
      <point x="46" y="654" type="line"/>
      <point x="59" y="654" type="line" smooth="yes"/>
      <point x="110" y="654"/>
      <point x="147" y="647"/>
      <point x="147" y="618" type="curve" smooth="yes"/>
      <point x="147" y="92" type="line" smooth="yes"/>
      <point x="147" y="63"/>
      <point x="110" y="56"/>
      <point x="59" y="56" type="curve" smooth="yes"/>
      <point x="46" y="56" type="line"/>
      <point x="46" y="0" type="line"/>
      <point x="409" y="0" type="line"/>
      <point x="409" y="56" type="line"/>
      <point x="379" y="56" type="line" smooth="yes"/>
      <point x="343" y="56"/>
      <point x="298" y="59"/>
      <point x="298" y="66" type="curve" smooth="yes"/>
      <point x="298" y="644" type="line" smooth="yes"/>
      <point x="298" y="651"/>
      <point x="343" y="654"/>
      <point x="379" y="654" type="curve" smooth="yes"/>
      <point x="409" y="654" type="line"/>
    </contour>
    <contour>
      <point x="222" y="153" type="line"/>
      <point x="422" y="153" type="line" smooth="yes"/>
      <point x="617" y="153"/>
      <point x="733" y="237"/>
      <point x="733" y="364" type="curve" smooth="yes"/>
      <point x="733" y="490"/>
      <point x="622" y="567"/>
      <point x="428" y="567" type="curve" smooth="yes"/>
      <point x="234" y="567" type="line"/>
      <point x="222" y="500" type="line"/>
      <point x="406" y="500" type="line" smooth="yes"/>
      <point x="519" y="500"/>
      <point x="576" y="451"/>
      <point x="576" y="363" type="curve" smooth="yes"/>
      <point x="576" y="274"/>
      <point x="519" y="220"/>
      <point x="401" y="220" type="curve" smooth="yes"/>
      <point x="222" y="220" type="line"/>
    </contour>
  </outline>
</glyph>
<glyph name="germandbls" format="1">
  <advance width="750"/>
  <unicode hex="00DF"/>
  <outline>
    <contour>
      <point x="33" y="509" type="line"/>
      <point x="33" y="446" type="line"/>
      <point x="195" y="446" type="line"/>
      <point x="195" y="509" type="line"/>
    </contour>
    <contour>
      <point x="42" y="0" type="line"/>
      <point x="290" y="0" type="line"/>
      <point x="290" y="567" type="line" smooth="yes"/>
      <point x="290" y="662"/>
      <point x="335" y="686"/>
      <point x="401" y="686" type="curve" smooth="yes"/>
      <point x="465" y="686"/>
      <point x="504" y="654"/>
      <point x="504" y="591" type="curve" smooth="yes"/>
      <point x="504" y="507"/>
      <point x="437" y="461"/>
      <point x="352" y="451" type="curve"/>
      <point x="352" y="392" type="line"/>
      <point x="355" y="392" type="line" smooth="yes"/>
      <point x="469" y="390"/>
      <point x="559" y="307"/>
      <point x="559" y="191" type="curve" smooth="yes"/>
      <point x="559" y="96"/>
      <point x="513" y="56"/>
      <point x="442" y="56" type="curve" smooth="yes"/>
      <point x="400" y="56"/>
      <point x="359" y="73"/>
      <point x="351" y="76" type="curve"/>
      <point x="351" y="11" type="line"/>
      <point x="371" y="2"/>
      <point x="419" y="-10"/>
      <point x="472" y="-10" type="curve" smooth="yes"/>
      <point x="609" y="-10"/>
      <point x="708" y="56"/>
      <point x="708" y="188" type="curve" smooth="yes"/>
      <point x="708" y="310"/>
      <point x="601" y="409"/>
      <point x="418" y="437" type="curve"/>
      <point x="379" y="418" type="line"/>
      <point x="515" y="425"/>
      <point x="640" y="498"/>
      <point x="640" y="598" type="curve" smooth="yes"/>
      <point x="640" y="689"/>
      <point x="550" y="751"/>
      <point x="400" y="751" type="curve" smooth="yes"/>
      <point x="254" y="751"/>
      <point x="145" y="697"/>
      <point x="145" y="560" type="curve" smooth="yes"/>
      <point x="145" y="87" type="line" smooth="yes"/>
      <point x="145" y="61"/>
      <point x="112" y="53"/>
      <point x="55" y="53" type="curve" smooth="yes"/>
      <point x="42" y="53" type="line"/>
    </contour>
  </outline>
</glyph>
<glyph name="ae" format="1">
  <advance width="1017"/>
  <unicode hex="00E6"/>
  <outline>
    <contour>
      <point x="455" y="295" type="line"/>
      <point x="186" y="282"/>
      <point x="50" y="237"/>
      <point x="50" y="126" type="curve" smooth="yes"/>
      <point x="50" y="40"/>
      <point x="131" y="-10"/>
      <point x="253" y="-10" type="curve" smooth="yes"/>
      <point x="379" y="-10"/>
      <point x="460" y="52"/>
      <point x="501" y="146" type="curve"/>
      <point x="536" y="191"/>
      <point x="461" y="186"/>
      <point x="456" y="179" type="curve"/>
      <point x="426" y="108"/>
      <point x="368" y="57"/>
      <point x="290" y="57" type="curve" smooth="yes"/>
      <point x="228" y="57"/>
      <point x="191" y="83"/>
      <point x="191" y="130" type="curve" smooth="yes"/>
      <point x="191" y="198"/>
      <point x="271" y="230"/>
      <point x="453" y="239" type="curve"/>
    </contour>
    <contour>
      <point x="728" y="-10" type="curve" smooth="yes"/>
      <point x="853" y="-10"/>
      <point x="927" y="43"/>
      <point x="972" y="112" type="curve"/>
      <point x="911" y="155" type="line"/>
      <point x="879" y="112"/>
      <point x="832" y="58"/>
      <point x="743" y="58" type="curve" smooth="yes"/>
      <point x="635" y="58"/>
      <point x="567" y="127"/>
      <point x="567" y="251" type="curve" smooth="yes"/>
      <point x="567" y="382"/>
      <point x="628" y="454"/>
      <point x="715" y="454" type="curve" smooth="yes"/>
      <point x="797" y="454"/>
      <point x="835" y="400"/>
      <point x="838" y="266" type="curve"/>
      <point x="868" y="295" type="line"/>
      <point x="502" y="295" type="line"/>
      <point x="503" y="231" type="line"/>
      <point x="979" y="231" type="line"/>
      <point x="978" y="426"/>
      <point x="885" y="520"/>
      <point x="722" y="520" type="curve" smooth="yes"/>
      <point x="593" y="520"/>
      <point x="511" y="453"/>
      <point x="473" y="339" type="curve"/>
      <point x="456" y="317"/>
      <point x="431" y="289"/>
      <point x="423" y="260" type="curve" smooth="yes"/>
      <point x="423" y="92"/>
      <point x="550" y="-10"/>
    </contour>
    <contour>
      <point x="313" y="519" type="curve" smooth="yes"/>
      <point x="201" y="519"/>
      <point x="122" y="480"/>
      <point x="88" y="457" type="curve"/>
      <point x="88" y="351" type="line"/>
      <point x="213" y="351" type="line"/>
      <point x="213" y="455" type="line"/>
      <point x="176" y="445"/>
      <point x="155" y="422"/>
      <point x="169" y="392" type="curve"/>
      <point x="195" y="426"/>
      <point x="238" y="454"/>
      <point x="310" y="454" type="curve" smooth="yes"/>
      <point x="382" y="454"/>
      <point x="423" y="429"/>
      <point x="423" y="356" type="curve"/>
      <point x="423" y="272" type="line"/>
      <point x="530" y="341" type="line"/>
      <point x="530" y="465"/>
      <point x="454" y="519"/>
    </contour>
    <contour>
      <point x="516" y="555" type="move" name="top"/>
    </contour>
  </outline>
</glyph>
<glyph name="eth" format="1">
  <advance width="718"/>
  <unicode hex="00F0"/>
  <outline>
    <contour>
      <point x="537" y="410" type="curve"/>
      <point x="502" y="486"/>
      <point x="425" y="519"/>
      <point x="340" y="519" type="curve" smooth="yes"/>
      <point x="175" y="519"/>
      <point x="47" y="414"/>
      <point x="47" y="257" type="curve" smooth="yes"/>
      <point x="47" y="97"/>
      <point x="174" y="-10"/>
      <point x="359" y="-10" type="curve" smooth="yes"/>
      <point x="544" y="-10"/>
      <point x="670" y="113"/>
      <point x="670" y="294" type="curve" smooth="yes"/>
      <point x="670" y="481"/>
      <point x="556" y="657"/>
      <point x="228" y="749" type="curve"/>
      <point x="191" y="700" type="line"/>
      <point x="441" y="622"/>
      <point x="523" y="476"/>
      <point x="523" y="294" type="curve" smooth="yes"/>
      <point x="523" y="141"/>
      <point x="464" y="57"/>
      <point x="359" y="57" type="curve" smooth="yes"/>
      <point x="258" y="57"/>
      <point x="197" y="128"/>
      <point x="197" y="257" type="curve" smooth="yes"/>
      <point x="197" y="376"/>
      <point x="265" y="453"/>
      <point x="367" y="453" type="curve" smooth="yes"/>
      <point x="443" y="453"/>
      <point x="499" y="415"/>
      <point x="554" y="343" type="curve"/>
      <point x="576" y="372"/>
      <point x="574" y="397"/>
    </contour>
    <contour>
      <point x="144" y="583" type="line"/>
      <point x="169" y="532" type="line"/>
      <point x="568" y="686" type="line"/>
      <point x="544" y="737" type="line"/>
    </contour>
  </outline>
</glyph>
<glyph name="divide" format="1">
  <advance width="660"/>
  <unicode hex="00F7"/>
  <outline>
    <contour>
      <point x="415" y="162" type="curve" smooth="yes"/>
      <point x="415" y="203"/>
      <point x="381" y="231"/>
      <point x="330" y="231" type="curve" smooth="yes"/>
      <point x="279" y="231"/>
      <point x="245" y="203"/>
      <point x="245" y="162" type="curve" smooth="yes"/>
      <point x="245" y="121"/>
      <point x="279" y="93"/>
      <point x="330" y="93" type="curve" smooth="yes"/>
      <point x="381" y="93"/>
      <point x="415" y="121"/>
    </contour>
    <contour>
      <point x="415" y="520" type="curve" smooth="yes"/>
      <point x="415" y="561"/>
      <point x="381" y="589"/>
      <point x="330" y="589" type="curve" smooth="yes"/>
      <point x="279" y="589"/>
      <point x="245" y="561"/>
      <point x="245" y="520" type="curve" smooth="yes"/>
      <point x="245" y="480"/>
      <point x="279" y="451"/>
      <point x="330" y="451" type="curve" smooth="yes"/>
      <point x="381" y="451"/>
      <point x="415" y="480"/>
    </contour>
    <component base="minus" xOffset="45"/>
  </outline>
</glyph>
<glyph name="oslash" format="1">
  <advance width="732"/>
  <unicode hex="00F8"/>
  <outline>
    <contour>
      <point x="623" y="523" type="line"/>
      <point x="1" y="-14" type="line"/>
      <point x="100" y="-14" type="line"/>
      <point x="723" y="523" type="line"/>
    </contour>
    <contour>
      <point x="366" y="-10" type="curve"/>
      <point x="556" y="-10"/>
      <point x="685" y="97"/>
      <point x="685" y="255" type="curve" smooth="yes"/>
      <point x="685" y="411"/>
      <point x="556" y="519"/>
      <point x="366" y="519" type="curve" smooth="yes"/>
      <point x="176" y="519"/>
      <point x="47" y="412"/>
      <point x="47" y="255" type="curve" smooth="yes"/>
      <point x="47" y="97"/>
      <point x="176" y="-10"/>
    </contour>
    <contour>
      <point x="365" y="57" type="curve"/>
      <point x="251" y="57"/>
      <point x="191" y="126"/>
      <point x="191" y="255" type="curve" smooth="yes"/>
      <point x="191" y="380"/>
      <point x="257" y="453"/>
      <point x="367" y="453" type="curve" smooth="yes"/>
      <point x="483" y="453"/>
      <point x="542" y="383"/>
      <point x="542" y="255" type="curve" smooth="yes"/>
      <point x="542" y="130"/>
      <point x="477" y="57"/>
    </contour>
    <contour>
      <point x="357" y="551" type="move" name="top"/>
    </contour>
  </outline>
</glyph>
<glyph name="thorn" format="1">
  <advance width="768"/>
  <unicode hex="00FE"/>
  <outline>
    <contour>
      <point x="27" y="-223" type="line"/>
      <point x="362" y="-223" type="line"/>
      <point x="362" y="-170" type="line"/>
      <point x="336" y="-170" type="line" smooth="yes"/>
      <point x="307" y="-170"/>
      <point x="256" y="-168"/>
      <point x="256" y="-161" type="curve"/>
      <point x="256" y="735" type="line"/>
      <point x="27" y="735" type="line"/>
      <point x="27" y="681" type="line"/>
      <point x="38" y="679" type="line" smooth="yes"/>
      <point x="88" y="670"/>
      <point x="111" y="665"/>
      <point x="111" y="638" type="curve" smooth="yes"/>
      <point x="111" y="-137" type="line" smooth="yes"/>
      <point x="111" y="-164"/>
      <point x="76" y="-170"/>
      <point x="29" y="-170" type="curve"/>
      <point x="27" y="-170" type="line"/>
    </contour>
    <contour>
      <point x="570" y="259" type="curve" smooth="yes"/>
      <point x="570" y="140"/>
      <point x="519" y="61"/>
      <point x="416" y="61" type="curve" smooth="yes"/>
      <point x="333" y="61"/>
      <point x="277" y="110"/>
      <point x="230" y="199" type="curve"/>
      <point x="183" y="168" type="line"/>
      <point x="251" y="44"/>
      <point x="318" y="-10"/>
      <point x="443" y="-10" type="curve" smooth="yes"/>
      <point x="608" y="-10"/>
      <point x="720" y="100"/>
      <point x="720" y="259" type="curve" smooth="yes"/>
      <point x="720" y="415"/>
      <point x="614" y="519"/>
      <point x="452" y="519" type="curve" smooth="yes"/>
      <point x="330" y="519"/>
      <point x="267" y="460"/>
      <point x="189" y="336" type="curve"/>
      <point x="230" y="303" type="line"/>
      <point x="280" y="396"/>
      <point x="339" y="448"/>
      <point x="423" y="448" type="curve" smooth="yes"/>
      <point x="520" y="448"/>
      <point x="570" y="377"/>
    </contour>
  </outline>
</glyph>
<glyph name="Aogonek" format="1">
  <advance width="834"/>
  <unicode hex="0104"/>
  <outline>
    <contour>
      <point x="211" y="303" type="line"/>
      <point x="202" y="238" type="line"/>
      <point x="554" y="238" type="line"/>
      <point x="552" y="303" type="line"/>
    </contour>
    <contour>
      <point x="11" y="0" type="line"/>
      <point x="267" y="0" type="line"/>
      <point x="267" y="56" type="line"/>
      <point x="250" y="56" type="line" smooth="yes"/>
      <point x="210" y="56"/>
      <point x="162" y="63"/>
      <point x="162" y="74" type="curve"/>
      <point x="415" y="710" type="line"/>
      <point x="336" y="710" type="line"/>
      <point x="91" y="99" type="line" smooth="yes"/>
      <point x="76" y="63"/>
      <point x="55" y="56"/>
      <point x="17" y="56" type="curve"/>
      <point x="11" y="56" type="line"/>
    </contour>
    <contour>
      <point x="653" y="47" type="curve"/>
      <point x="513" y="-12"/>
      <point x="430" y="-69"/>
      <point x="430" y="-143" type="curve" smooth="yes"/>
      <point x="430" y="-204"/>
      <point x="486" y="-238"/>
      <point x="566" y="-238" type="curve" smooth="yes"/>
      <point x="636" y="-238"/>
      <point x="675" y="-217"/>
      <point x="707" y="-184" type="curve"/>
      <point x="669" y="-146" type="line"/>
      <point x="653" y="-157"/>
      <point x="632" y="-174"/>
      <point x="603" y="-174" type="curve" smooth="yes"/>
      <point x="574" y="-174"/>
      <point x="554" y="-159"/>
      <point x="554" y="-128" type="curve" smooth="yes"/>
      <point x="554" y="-89"/>
      <point x="582" y="-40"/>
      <point x="690" y="10" type="curve"/>
      <point x="673" y="19"/>
      <point x="663" y="33"/>
    </contour>
    <contour>
      <point x="623" y="0" type="line"/>
      <point x="823" y="0" type="line"/>
      <point x="823" y="56" type="line"/>
      <point x="817" y="56" type="line"/>
      <point x="781" y="56"/>
      <point x="757" y="59"/>
      <point x="747" y="84" type="curve" smooth="yes"/>
      <point x="494" y="710" type="line"/>
      <point x="368" y="710" type="line"/>
      <point x="360" y="663" type="line"/>
    </contour>
  </outline>
</glyph>
<glyph name="dcroat" format="1">
  <advance width="761"/>
  <unicode hex="0111"/>
  <outline>
    <contour>
      <point x="197" y="250" type="curve" smooth="yes"/>
      <point x="197" y="370"/>
      <point x="250" y="448"/>
      <point x="352" y="448" type="curve" smooth="yes"/>
      <point x="435" y="448"/>
      <point x="492" y="402"/>
      <point x="536" y="310" type="curve"/>
      <point x="581" y="331" type="line"/>
      <point x="518" y="461"/>
      <point x="451" y="519"/>
      <point x="326" y="519" type="curve" smooth="yes"/>
      <point x="160" y="519"/>
      <point x="47" y="409"/>
      <point x="47" y="250" type="curve" smooth="yes"/>
      <point x="47" y="94"/>
      <point x="155" y="-10"/>
      <point x="317" y="-10" type="curve" smooth="yes"/>
      <point x="441" y="-10"/>
      <point x="502" y="50"/>
      <point x="577" y="174" type="curve"/>
      <point x="538" y="206" type="line"/>
      <point x="488" y="113"/>
      <point x="431" y="61"/>
      <point x="346" y="61" type="curve" smooth="yes"/>
      <point x="249" y="61"/>
      <point x="197" y="133"/>
    </contour>
    <contour>
      <point x="512" y="735" type="line"/>
      <point x="512" y="113" type="line"/>
      <point x="521" y="114" type="line"/>
      <point x="521" y="0" type="line"/>
      <point x="741" y="0" type="line"/>
      <point x="741" y="54" type="line"/>
      <point x="738" y="54" type="line"/>
      <point x="689" y="56"/>
      <point x="656" y="62"/>
      <point x="656" y="87" type="curve" smooth="yes"/>
      <point x="656" y="735" type="line"/>
    </contour>
    <contour>
      <point x="760" y="639" type="line"/>
      <point x="298" y="639" type="line"/>
      <point x="298" y="576" type="line"/>
      <point x="760" y="576" type="line"/>
    </contour>
  </outline>
</glyph>
<glyph name="eogonek" format="1">
  <advance width="661"/>
  <unicode hex="0119"/>
  <outline>
    <contour>
      <point x="482" y="39" type="line"/>
      <point x="340" y="-16"/>
      <point x="254" y="-71"/>
      <point x="254" y="-143" type="curve" smooth="yes"/>
      <point x="254" y="-204"/>
      <point x="311" y="-238"/>
      <point x="391" y="-238" type="curve" smooth="yes"/>
      <point x="460" y="-238"/>
      <point x="499" y="-217"/>
      <point x="532" y="-184" type="curve"/>
      <point x="493" y="-146" type="line"/>
      <point x="477" y="-157"/>
      <point x="455" y="-174"/>
      <point x="427" y="-174" type="curve" smooth="yes"/>
      <point x="398" y="-174"/>
      <point x="378" y="-159"/>
      <point x="378" y="-128" type="curve" smooth="yes"/>
      <point x="378" y="-75"/>
      <point x="426" y="-38"/>
      <point x="529" y="29" type="curve" smooth="yes"/>
      <point x="571" y="57"/>
      <point x="593" y="80"/>
      <point x="614" y="112" type="curve"/>
      <point x="553" y="155" type="line"/>
      <point x="521" y="110"/>
      <point x="471" y="58"/>
      <point x="378" y="58" type="curve" smooth="yes"/>
      <point x="265" y="58"/>
      <point x="193" y="127"/>
      <point x="193" y="251" type="curve" smooth="yes"/>
      <point x="193" y="382"/>
      <point x="259" y="453"/>
      <point x="345" y="453" type="curve" smooth="yes"/>
      <point x="436" y="453"/>
      <point x="476" y="399"/>
      <point x="479" y="266" type="curve"/>
      <point x="507" y="292" type="line"/>
      <point x="129" y="292" type="line"/>
      <point x="130" y="228" type="line"/>
      <point x="620" y="228" type="line"/>
      <point x="619" y="423"/>
      <point x="523" y="519"/>
      <point x="343" y="519" type="curve" smooth="yes"/>
      <point x="175" y="519"/>
      <point x="47" y="411"/>
      <point x="47" y="253" type="curve" smooth="yes"/>
      <point x="47" y="92"/>
      <point x="179" y="-10"/>
      <point x="363" y="-10" type="curve" smooth="yes"/>
      <point x="412" y="-10"/>
      <point x="453" y="-3"/>
      <point x="488" y="11" type="curve"/>
    </contour>
  </outline>
</glyph>
<glyph name="Hbar" format="1">
  <advance width="974"/>
  <unicode hex="0126"/>
  <outline>
    <contour>
      <point x="46" y="549" type="line"/>
      <point x="46" y="489" type="line"/>
      <point x="925" y="489" type="line"/>
      <point x="925" y="549" type="line"/>
    </contour>
    <contour>
      <point x="225" y="393" type="line"/>
      <point x="225" y="329" type="line"/>
      <point x="734" y="329" type="line"/>
      <point x="734" y="393" type="line"/>
    </contour>
    <contour>
      <point x="46" y="0" type="line"/>
      <point x="399" y="0" type="line"/>
      <point x="399" y="56" type="line"/>
      <point x="388" y="56" type="line" smooth="yes"/>
      <point x="348" y="56"/>
      <point x="298" y="59"/>
      <point x="298" y="66" type="curve" smooth="yes"/>
      <point x="298" y="644" type="line" smooth="yes"/>
      <point x="298" y="651"/>
      <point x="348" y="654"/>
      <point x="388" y="654" type="curve" smooth="yes"/>
      <point x="399" y="654" type="line"/>
      <point x="399" y="710" type="line"/>
      <point x="46" y="710" type="line"/>
      <point x="46" y="654" type="line"/>
      <point x="59" y="654" type="line" smooth="yes"/>
      <point x="110" y="654"/>
      <point x="147" y="647"/>
      <point x="147" y="618" type="curve" smooth="yes"/>
      <point x="147" y="92" type="line" smooth="yes"/>
      <point x="147" y="63"/>
      <point x="110" y="56"/>
      <point x="59" y="56" type="curve" smooth="yes"/>
      <point x="46" y="56" type="line"/>
    </contour>
    <contour>
      <point x="573" y="0" type="line"/>
      <point x="925" y="0" type="line"/>
      <point x="925" y="56" type="line"/>
      <point x="912" y="56" type="line" smooth="yes"/>
      <point x="861" y="56"/>
      <point x="824" y="63"/>
      <point x="824" y="92" type="curve" smooth="yes"/>
      <point x="824" y="618" type="line" smooth="yes"/>
      <point x="824" y="647"/>
      <point x="861" y="654"/>
      <point x="912" y="654" type="curve" smooth="yes"/>
      <point x="925" y="654" type="line"/>
      <point x="925" y="710" type="line"/>
      <point x="573" y="710" type="line"/>
      <point x="573" y="654" type="line"/>
      <point x="583" y="654" type="line" smooth="yes"/>
      <point x="622" y="654"/>
      <point x="673" y="651"/>
      <point x="673" y="644" type="curve" smooth="yes"/>
      <point x="673" y="66" type="line" smooth="yes"/>
      <point x="673" y="59"/>
      <point x="622" y="56"/>
      <point x="583" y="56" type="curve" smooth="yes"/>
      <point x="573" y="56" type="line"/>
    </contour>
  </outline>
</glyph>
<glyph name="hbar" format="1">
  <advance width="766"/>
  <unicode hex="0127"/>
  <outline>
    <contour>
      <point x="743" y="0" type="line"/>
      <point x="743" y="53" type="line"/>
      <point x="740" y="53" type="line" smooth="yes"/>
      <point x="694" y="53"/>
      <point x="659" y="60"/>
      <point x="659" y="86" type="curve" smooth="yes"/>
      <point x="659" y="353" type="line" smooth="yes"/>
      <point x="659" y="466"/>
      <point x="583" y="519"/>
      <point x="467" y="519" type="curve" smooth="yes"/>
      <point x="355" y="519"/>
      <point x="283" y="465"/>
      <point x="214" y="362" type="curve"/>
      <point x="240" y="321" type="line"/>
      <point x="290" y="399"/>
      <point x="349" y="441"/>
      <point x="425" y="441" type="curve" smooth="yes"/>
      <point x="492" y="441"/>
      <point x="515" y="412"/>
      <point x="515" y="348" type="curve" smooth="yes"/>
      <point x="515" y="62" type="line" smooth="yes"/>
      <point x="515" y="56"/>
      <point x="470" y="53"/>
      <point x="442" y="53" type="curve" smooth="yes"/>
      <point x="439" y="53" type="line"/>
      <point x="439" y="0" type="line"/>
    </contour>
    <contour>
      <point x="123" y="735" type="line"/>
      <point x="123" y="86" type="line" smooth="yes"/>
      <point x="123" y="60"/>
      <point x="88" y="53"/>
      <point x="40" y="53" type="curve" smooth="yes"/>
      <point x="38" y="53" type="line"/>
      <point x="38" y="0" type="line"/>
      <point x="342" y="0" type="line"/>
      <point x="342" y="53" type="line"/>
      <point x="339" y="53" type="line" smooth="yes"/>
      <point x="311" y="53"/>
      <point x="267" y="56"/>
      <point x="267" y="62" type="curve"/>
      <point x="267" y="735" type="line"/>
    </contour>
    <contour>
      <point x="487" y="639" type="line"/>
      <point x="18" y="639" type="line"/>
      <point x="18" y="576" type="line"/>
      <point x="487" y="576" type="line"/>
    </contour>
  </outline>
</glyph>
<glyph name="dotlessi" format="1">
  <advance width="377"/>
  <unicode hex="0131"/>
  <outline>
    <contour>
      <point x="267" y="509" type="line"/>
      <point x="38" y="509" type="line"/>
      <point x="38" y="456" type="line"/>
      <point x="50" y="454" type="line" smooth="yes"/>
      <point x="101" y="445"/>
      <point x="123" y="439"/>
      <point x="123" y="413" type="curve" smooth="yes"/>
      <point x="123" y="86" type="line" smooth="yes"/>
      <point x="123" y="60"/>
      <point x="88" y="53"/>
      <point x="40" y="53" type="curve" smooth="yes"/>
      <point x="39" y="53" type="line"/>
      <point x="39" y="0" type="line"/>
      <point x="351" y="0" type="line"/>
      <point x="351" y="53" type="line"/>
      <point x="350" y="53" type="line" smooth="yes"/>
      <point x="302" y="53"/>
      <point x="267" y="60"/>
      <point x="267" y="86" type="curve" smooth="yes"/>
    </contour>
    <contour>
      <point x="197" y="535" type="move" name="top"/>
    </contour>
  </outline>
</glyph>
<glyph name="Ldot" format="1">
  <advance width="746"/>
  <unicode hex="013F"/>
  <outline>
    <contour>
      <point x="405" y="710" type="line"/>
      <point x="405" y="654" type="line"/>
      <point x="391" y="654" type="line" smooth="yes"/>
      <point x="336" y="654"/>
      <point x="298" y="647"/>
      <point x="298" y="618" type="curve" smooth="yes"/>
      <point x="298" y="67" type="line"/>
      <point x="453" y="67" type="line" smooth="yes"/>
      <point x="551" y="67"/>
      <point x="592" y="74"/>
      <point x="596" y="110" type="curve" smooth="yes"/>
      <point x="607" y="226" type="line"/>
      <point x="688" y="226" type="line"/>
      <point x="688" y="0" type="line"/>
      <point x="46" y="0" type="line"/>
      <point x="46" y="56" type="line"/>
      <point x="59" y="56" type="line" smooth="yes"/>
      <point x="110" y="56"/>
      <point x="147" y="63"/>
      <point x="147" y="92" type="curve" smooth="yes"/>
      <point x="147" y="618" type="line" smooth="yes"/>
      <point x="147" y="647"/>
      <point x="110" y="654"/>
      <point x="59" y="654" type="curve" smooth="yes"/>
      <point x="46" y="654" type="line"/>
      <point x="46" y="710" type="line"/>
    </contour>
    <component base="periodcentered" xOffset="432" yOffset="52"/>
  </outline>
</glyph>
<glyph name="Lslash" format="1">
  <advance width="734"/>
  <unicode hex="0141"/>
  <outline>
    <contour>
      <point x="42" y="185" type="line"/>
      <point x="42" y="263" type="line"/>
      <point x="534" y="527" type="line"/>
      <point x="534" y="450" type="line"/>
    </contour>
    <component base="L" xOffset="50"/>
  </outline>
</glyph>
<glyph name="lslash" format="1">
  <advance width="391"/>
  <unicode hex="0142"/>
  <outline>
    <contour>
      <point x="33" y="189" type="line"/>
      <point x="377" y="448" type="line"/>
      <point x="377" y="526" type="line"/>
      <point x="33" y="267" type="line"/>
    </contour>
    <component base="l" xOffset="40"/>
  </outline>
</glyph>
<glyph name="Eng" format="1">
  <advance width="922"/>
  <unicode hex="014A"/>
  <outline>
    <contour>
      <point x="698" y="47" type="line"/>
      <point x="698" y="-10" type="line" smooth="yes"/>
      <point x="698" y="-102"/>
      <point x="643" y="-138"/>
      <point x="568" y="-138" type="curve" smooth="yes"/>
      <point x="522" y="-138"/>
      <point x="479" y="-128"/>
      <point x="451" y="-122" type="curve"/>
      <point x="451" y="-199" type="line"/>
      <point x="478" y="-206"/>
      <point x="528" y="-212"/>
      <point x="573" y="-212" type="curve" smooth="yes"/>
      <point x="683" y="-212"/>
      <point x="780" y="-154"/>
      <point x="780" y="-9" type="curve" smooth="yes"/>
      <point x="780" y="614" type="line" smooth="yes"/>
      <point x="780" y="644"/>
      <point x="818" y="654"/>
      <point x="868" y="654" type="curve" smooth="yes"/>
      <point x="882" y="654" type="line"/>
      <point x="882" y="710" type="line"/>
      <point x="587" y="710" type="line"/>
      <point x="587" y="654" type="line"/>
      <point x="602" y="654" type="line" smooth="yes"/>
      <point x="648" y="654"/>
      <point x="699" y="646"/>
      <point x="699" y="639" type="curve" smooth="yes"/>
      <point x="699" y="108" type="line"/>
      <point x="741" y="157" type="line"/>
      <point x="346" y="710" type="line"/>
      <point x="46" y="710" type="line"/>
      <point x="46" y="654" type="line"/>
      <point x="59" y="654" type="line" smooth="yes"/>
      <point x="110" y="654"/>
      <point x="147" y="647"/>
      <point x="147" y="618" type="curve" smooth="yes"/>
      <point x="147" y="97" type="line" smooth="yes"/>
      <point x="147" y="68"/>
      <point x="110" y="56"/>
      <point x="59" y="56" type="curve" smooth="yes"/>
      <point x="46" y="56" type="line"/>
      <point x="46" y="0" type="line"/>
      <point x="341" y="0" type="line"/>
      <point x="341" y="56" type="line"/>
      <point x="325" y="56" type="line" smooth="yes"/>
      <point x="280" y="56"/>
      <point x="229" y="64"/>
      <point x="229" y="71" type="curve" smooth="yes"/>
      <point x="229" y="674" type="line"/>
      <point x="207" y="670" type="line"/>
      <point x="737" y="-93" type="line"/>
    </contour>
  </outline>
</glyph>
<glyph name="eng" format="1">
  <advance width="735"/>
  <unicode hex="014B"/>
  <outline>
    <contour>
      <point x="38" y="0" type="line"/>
      <point x="341" y="0" type="line"/>
      <point x="341" y="53" type="line"/>
      <point x="338" y="53" type="line" smooth="yes"/>
      <point x="310" y="53"/>
      <point x="266" y="56"/>
      <point x="266" y="62" type="curve" smooth="yes"/>
      <point x="266" y="395" type="line"/>
      <point x="255" y="403" type="line"/>
      <point x="255" y="509" type="line"/>
      <point x="38" y="509" type="line"/>
      <point x="38" y="456" type="line"/>
      <point x="49" y="454" type="line" smooth="yes"/>
      <point x="98" y="444"/>
      <point x="122" y="439"/>
      <point x="122" y="413" type="curve" smooth="yes"/>
      <point x="122" y="86" type="line" smooth="yes"/>
      <point x="122" y="60"/>
      <point x="88" y="53"/>
      <point x="40" y="53" type="curve" smooth="yes"/>
      <point x="38" y="53" type="line"/>
    </contour>
    <contour>
      <point x="658" y="353" type="line" smooth="yes"/>
      <point x="658" y="466"/>
      <point x="582" y="519"/>
      <point x="467" y="519" type="curve" smooth="yes"/>
      <point x="355" y="519"/>
      <point x="283" y="465"/>
      <point x="212" y="359" type="curve"/>
      <point x="240" y="321" type="line"/>
      <point x="290" y="399"/>
      <point x="349" y="441"/>
      <point x="424" y="441" type="curve" smooth="yes"/>
      <point x="491" y="441"/>
      <point x="513" y="412"/>
      <point x="513" y="347" type="curve"/>
      <point x="513" y="-40" type="line" smooth="yes"/>
      <point x="513" y="-136"/>
      <point x="472" y="-166"/>
      <point x="405" y="-166" type="curve" smooth="yes"/>
      <point x="370" y="-166"/>
      <point x="341" y="-160"/>
      <point x="315" y="-153" type="curve"/>
      <point x="315" y="-225" type="line"/>
      <point x="335" y="-231"/>
      <point x="377" y="-236"/>
      <point x="422" y="-236" type="curve" smooth="yes"/>
      <point x="555" y="-236"/>
      <point x="658" y="-188"/>
      <point x="658" y="-32" type="curve" smooth="yes"/>
    </contour>
  </outline>
</glyph>
